<svg width="34" height="35" viewBox="0 0 34 35" fill="none" xmlns="http://www.w3.org/2000/svg">
<path d="M6.3878 10.8198C8.49831 10.8198 10.2289 9.10329 10.2289 6.97872C10.2289 4.85415 8.51238 3.1376 6.3878 3.1376C4.26323 3.1376 2.56076 4.86822 2.56076 6.97872C2.56076 9.08922 4.2773 10.8198 6.3878 10.8198ZM6.3878 4.60089C7.69632 4.60089 8.77971 5.67021 8.77971 6.99279C8.77971 8.31537 7.71039 9.38469 6.3878 9.38469C5.06522 9.38469 3.9959 8.31537 3.9959 6.99279C3.9959 5.67021 5.07929 4.60089 6.3878 4.60089Z" fill="#FFFCFC"/>
<path d="M10.9324 15.266C10.5384 15.2378 10.1867 15.5474 10.1586 15.9413L9.56761 24.3693C9.56761 24.3974 9.55354 24.4115 9.55354 24.4396L9.01888 32.6425C9.00481 32.952 8.73748 33.2053 8.42794 33.2053H4.34763C4.03809 33.2053 3.77076 32.9661 3.75669 32.6425L3.22203 24.4396C3.20796 24.1442 2.99691 23.8768 2.71551 23.7924C2.56074 23.7502 2.1105 23.6095 2.04015 23.5392C1.98387 23.4547 1.95573 23.0045 1.94166 22.7794L1.44921 14.0841V14.07C2.36376 13.8027 3.26424 13.5072 4.17879 13.2118C4.58682 13.6901 4.99486 14.1545 5.41696 14.6328L5.85313 15.1253C5.99383 15.2801 6.19081 15.3785 6.40186 15.3785C6.61291 15.3785 6.80989 15.2941 6.95059 15.1253L7.45711 14.5484C7.86514 14.0841 8.24503 13.6479 8.62492 13.1977L14.9283 14.6188C15.0268 14.6469 15.1393 14.6469 15.2378 14.6188L20.9221 13.451C21.3161 13.3665 21.5693 12.9866 21.4849 12.5927C21.4005 12.1987 21.0206 11.9455 20.6266 12.0299L15.0971 13.1696L8.87818 11.7626C8.85004 11.7485 8.80783 11.7485 8.77969 11.7485C8.59678 11.7344 7.9777 11.7203 7.59781 12.1706C7.20385 12.6349 6.80989 13.0851 6.40186 13.5494C5.99383 13.0851 5.59987 12.6349 5.20591 12.1706C4.84009 11.7485 4.37577 11.6078 3.86925 11.7766C2.89842 12.1002 1.92759 12.4098 0.956761 12.7052C0.33768 12.9022 0 13.3665 0 13.9997C0 14.0419 0 14.1545 0 14.1685L0.478381 22.7512L0.49245 22.8919C0.576871 24.1442 0.759781 24.6225 1.81503 25.0306L2.32155 32.755C2.3919 33.8243 3.29238 34.6685 4.3617 34.6685H8.44201C9.51133 34.6685 10.4118 33.8243 10.4822 32.755L11.0168 24.6225C11.0168 24.5944 11.0168 24.5803 11.0309 24.5522L11.6218 16.0539C11.6218 15.6459 11.3264 15.2941 10.9324 15.266Z" fill="#FFFCFC"/>
<path d="M33.2193 0H6.3878C5.99384 0 5.65616 0.32361 5.65616 0.731641C5.65616 1.13967 5.97977 1.46328 6.3878 1.46328H32.4877V20.3171H13.2399C12.8459 20.3171 12.5083 20.6407 12.5083 21.0487C12.5083 21.4427 12.8319 21.7804 13.2399 21.7804H33.2193C33.6133 21.7804 33.951 21.4568 33.951 21.0487V0.731641C33.951 0.33768 33.6273 0 33.2193 0Z" fill="#FFFCFC"/>
</svg>
