<svg width="562" height="112" viewBox="0 0 562 112" fill="none" xmlns="http://www.w3.org/2000/svg">
<path d="M518 69.9115L530.688 73.6511L542.374 69.7112" stroke="#D9D9D9" stroke-width="2" stroke-linecap="round" stroke-linejoin="round"/>
<path d="M521.472 94.8197L530.755 81.1302L537.967 94.6862" stroke="#D9D9D9" stroke-width="2" stroke-linecap="round" stroke-linejoin="round"/>
<path d="M530.761 81.155V66.5406" stroke="#D9D9D9" stroke-width="2" stroke-linecap="round" stroke-linejoin="round"/>
<path d="M530.911 66.5941C535.586 66.5941 539.375 63.1033 539.375 58.7971C539.375 54.4909 535.586 51 530.911 51C526.236 51 522.446 54.4909 522.446 58.7971C522.446 63.1033 526.236 66.5941 530.911 66.5941Z" stroke="#D9D9D9" stroke-width="2" stroke-miterlimit="100" stroke-linecap="round" stroke-linejoin="round"/>
<path d="M18 76.7044L26.5234 79.2166L34.374 76.5698" stroke="#D9D9D9" stroke-width="2" stroke-linecap="round" stroke-linejoin="round"/>
<path d="M20.3326 93.4373L26.5682 84.241L31.4131 93.3476" stroke="#D9D9D9" stroke-width="2" stroke-linecap="round" stroke-linejoin="round"/>
<path d="M26.5726 84.2576V74.4399" stroke="#D9D9D9" stroke-width="2" stroke-linecap="round" stroke-linejoin="round"/>
<path d="M26.6731 74.4758C29.8137 74.4758 32.3596 72.1307 32.3596 69.2379C32.3596 66.3451 29.8137 64 26.6731 64C23.5325 64 20.9866 66.3451 20.9866 69.2379C20.9866 72.1307 23.5325 74.4758 26.6731 74.4758Z" stroke="#D9D9D9" stroke-width="2" stroke-miterlimit="100" stroke-linecap="round" stroke-linejoin="round"/>
<path d="M518 81L508 75.2265V86.7735L518 81ZM43 82H509V80H43V82Z" fill="#ACACAD"/>
<rect x="57" y="57" width="243" height="13" rx="2" fill="#A5C98E"/>
<rect x="80" y="38" width="387" height="13" rx="2" fill="#EE9C64"/>
<rect x="119" y="19" width="317" height="13" rx="2" fill="#5C5B5B"/>
<rect x="145" width="274" height="13" rx="2" fill="#A4C5E3"/>
<rect x="308" y="57" width="195" height="13" rx="2" fill="#A5C98E"/>
<path d="M256.717 2.72727H258.33L260.489 7.99716H260.574L262.733 2.72727H264.345V10H263.081V5.00355H263.013L261.004 9.97869H260.059L258.049 4.9929H257.982V10H256.717V2.72727ZM268.138 10.1065C267.591 10.1065 267.119 9.9929 266.721 9.76562C266.326 9.53598 266.021 9.21165 265.808 8.79261C265.595 8.37121 265.489 7.87524 265.489 7.30469C265.489 6.74361 265.595 6.25118 265.808 5.82741C266.024 5.40128 266.324 5.06984 266.71 4.8331C267.096 4.59399 267.549 4.47443 268.07 4.47443C268.406 4.47443 268.724 4.52888 269.022 4.63778C269.323 4.74432 269.588 4.91004 269.817 5.13494C270.049 5.35985 270.232 5.64631 270.364 5.99432C270.497 6.33996 270.563 6.75189 270.563 7.23011V7.62429H266.092V6.75781H269.331C269.329 6.5116 269.275 6.29261 269.171 6.10085C269.067 5.90672 268.921 5.75402 268.734 5.64276C268.55 5.53149 268.334 5.47585 268.088 5.47585C267.825 5.47585 267.594 5.53977 267.396 5.66761C267.197 5.79309 267.042 5.95881 266.93 6.16477C266.821 6.36837 266.766 6.59209 266.763 6.83594V7.59233C266.763 7.90956 266.821 8.18182 266.938 8.40909C267.054 8.634 267.216 8.80682 267.424 8.92756C267.632 9.04593 267.876 9.10511 268.156 9.10511C268.343 9.10511 268.512 9.07907 268.663 9.02699C268.815 8.97254 268.946 8.89323 269.058 8.78906C269.169 8.6849 269.253 8.55587 269.31 8.40199L270.51 8.53693C270.434 8.85417 270.29 9.13116 270.077 9.3679C269.866 9.60227 269.596 9.78456 269.267 9.91477C268.938 10.0426 268.562 10.1065 268.138 10.1065ZM272.936 6.80398V10H271.651V4.54545H272.879V5.4723H272.943C273.069 5.1669 273.269 4.92424 273.544 4.74432C273.82 4.56439 274.163 4.47443 274.57 4.47443C274.946 4.47443 275.274 4.55492 275.553 4.71591C275.835 4.87689 276.053 5.11009 276.207 5.41548C276.363 5.72088 276.44 6.09138 276.438 6.52699V10H275.152V6.72585C275.152 6.36127 275.057 6.07599 274.868 5.87003C274.681 5.66406 274.422 5.56108 274.09 5.56108C273.865 5.56108 273.665 5.6108 273.49 5.71023C273.317 5.80729 273.181 5.94815 273.082 6.13281C272.985 6.31747 272.936 6.54119 272.936 6.80398ZM280.468 4.54545V5.53977H277.333V4.54545H280.468ZM278.107 3.23864H279.392V8.35938C279.392 8.5322 279.418 8.66477 279.47 8.7571C279.525 8.84706 279.596 8.90862 279.683 8.94176C279.771 8.97491 279.868 8.99148 279.975 8.99148C280.055 8.99148 280.128 8.98556 280.195 8.97372C280.263 8.96188 280.316 8.95123 280.351 8.94176L280.568 9.94673C280.499 9.97041 280.401 9.99645 280.273 10.0249C280.147 10.0533 279.994 10.0698 279.811 10.0746C279.489 10.084 279.199 10.0355 278.941 9.92898C278.683 9.82008 278.478 9.65199 278.327 9.42472C278.178 9.19744 278.104 8.91335 278.107 8.57244V3.23864ZM283.864 10.1065C283.331 10.1065 282.87 9.98935 282.479 9.75497C282.088 9.5206 281.785 9.19271 281.57 8.77131C281.357 8.34991 281.25 7.85748 281.25 7.29403C281.25 6.73059 281.357 6.23698 281.57 5.81321C281.785 5.38944 282.088 5.06037 282.479 4.82599C282.87 4.59162 283.331 4.47443 283.864 4.47443C284.397 4.47443 284.858 4.59162 285.249 4.82599C285.64 5.06037 285.941 5.38944 286.154 5.81321C286.37 6.23698 286.478 6.73059 286.478 7.29403C286.478 7.85748 286.37 8.34991 286.154 8.77131C285.941 9.19271 285.64 9.5206 285.249 9.75497C284.858 9.98935 284.397 10.1065 283.864 10.1065ZM283.871 9.0767C284.16 9.0767 284.401 8.9974 284.596 8.83878C284.79 8.67779 284.934 8.46236 285.029 8.19247C285.126 7.92259 285.174 7.62192 285.174 7.29048C285.174 6.95668 285.126 6.65483 285.029 6.38494C284.934 6.11269 284.79 5.89607 284.596 5.73509C284.401 5.5741 284.16 5.49361 283.871 5.49361C283.575 5.49361 283.329 5.5741 283.132 5.73509C282.938 5.89607 282.793 6.11269 282.696 6.38494C282.601 6.65483 282.554 6.95668 282.554 7.29048C282.554 7.62192 282.601 7.92259 282.696 8.19247C282.793 8.46236 282.938 8.67779 283.132 8.83878C283.329 8.9974 283.575 9.0767 283.871 9.0767ZM287.569 10V4.54545H288.815V5.45455H288.872C288.971 5.13968 289.142 4.89702 289.383 4.72656C289.627 4.55374 289.905 4.46733 290.218 4.46733C290.289 4.46733 290.368 4.47088 290.456 4.47798C290.546 4.48272 290.62 4.491 290.68 4.50284V5.68537C290.625 5.66643 290.539 5.64986 290.42 5.63565C290.304 5.61908 290.192 5.6108 290.083 5.6108C289.849 5.6108 289.638 5.66169 289.451 5.76349C289.266 5.86293 289.121 6.00142 289.014 6.17898C288.907 6.35653 288.854 6.56132 288.854 6.79332V10H287.569ZM295.845 5.98722L294.673 6.11506C294.64 5.99669 294.582 5.88542 294.499 5.78125C294.418 5.67708 294.309 5.59304 294.172 5.52912C294.035 5.4652 293.867 5.43324 293.668 5.43324C293.4 5.43324 293.175 5.49124 292.993 5.60724C292.813 5.72325 292.724 5.87358 292.727 6.05824C292.724 6.21686 292.782 6.34588 292.901 6.44531C293.021 6.54474 293.22 6.62642 293.497 6.69034L294.428 6.8892C294.944 7.00047 295.327 7.17685 295.578 7.41832C295.832 7.6598 295.959 7.97585 295.962 8.36648C295.959 8.70975 295.859 9.01278 295.66 9.27557C295.463 9.53598 295.19 9.73958 294.84 9.88636C294.489 10.0331 294.087 10.1065 293.632 10.1065C292.965 10.1065 292.427 9.96686 292.02 9.6875C291.613 9.40578 291.37 9.01397 291.292 8.51207L292.546 8.39134C292.602 8.63755 292.723 8.82339 292.908 8.94886C293.093 9.07434 293.333 9.13707 293.629 9.13707C293.934 9.13707 294.179 9.07434 294.364 8.94886C294.551 8.82339 294.644 8.66832 294.644 8.48366C294.644 8.32741 294.584 8.19839 294.463 8.09659C294.345 7.99479 294.16 7.91667 293.909 7.86222L292.979 7.6669C292.456 7.558 292.069 7.37453 291.818 7.11648C291.567 6.85606 291.442 6.52699 291.445 6.12926C291.442 5.79309 291.534 5.50189 291.718 5.25568C291.905 5.0071 292.164 4.81534 292.496 4.6804C292.83 4.54309 293.214 4.47443 293.65 4.47443C294.289 4.47443 294.792 4.61056 295.159 4.88281C295.529 5.15507 295.757 5.5232 295.845 5.98722ZM298.307 6.80398V10H297.022V2.72727H298.279V5.4723H298.343C298.471 5.16454 298.668 4.92187 298.936 4.74432C299.206 4.56439 299.549 4.47443 299.966 4.47443C300.345 4.47443 300.675 4.55374 300.956 4.71236C301.238 4.87098 301.456 5.10298 301.61 5.40838C301.766 5.71378 301.844 6.08665 301.844 6.52699V10H300.559V6.72585C300.559 6.3589 300.464 6.07363 300.275 5.87003C300.088 5.66406 299.825 5.56108 299.486 5.56108C299.259 5.56108 299.055 5.6108 298.876 5.71023C298.698 5.80729 298.558 5.94815 298.456 6.13281C298.357 6.31747 298.307 6.54119 298.307 6.80398ZM303.155 10V4.54545H304.44V10H303.155ZM303.801 3.77131C303.597 3.77131 303.422 3.70384 303.275 3.56889C303.129 3.43158 303.055 3.26705 303.055 3.07528C303.055 2.88116 303.129 2.71662 303.275 2.58168C303.422 2.44437 303.597 2.37571 303.801 2.37571C304.007 2.37571 304.182 2.44437 304.327 2.58168C304.473 2.71662 304.547 2.88116 304.547 3.07528C304.547 3.26705 304.473 3.43158 304.327 3.56889C304.182 3.70384 304.007 3.77131 303.801 3.77131ZM305.762 12.0455V4.54545H307.026V5.44744H307.101C307.167 5.31487 307.261 5.17401 307.381 5.02486C307.502 4.87334 307.665 4.74432 307.871 4.63778C308.077 4.52888 308.34 4.47443 308.66 4.47443C309.081 4.47443 309.461 4.58215 309.8 4.79759C310.141 5.01065 310.411 5.3267 310.609 5.74574C310.811 6.16241 310.911 6.67377 310.911 7.27983C310.911 7.87879 310.813 8.38778 310.616 8.80682C310.42 9.22585 310.152 9.54545 309.814 9.76562C309.475 9.9858 309.092 10.0959 308.663 10.0959C308.351 10.0959 308.092 10.0438 307.886 9.93963C307.68 9.83546 307.514 9.70999 307.388 9.56321C307.265 9.41406 307.17 9.2732 307.101 9.14062H307.048V12.0455H305.762ZM307.023 7.27273C307.023 7.62547 307.072 7.93442 307.172 8.19957C307.274 8.46473 307.419 8.67187 307.609 8.82102C307.8 8.9678 308.032 9.04119 308.305 9.04119C308.589 9.04119 308.827 8.96544 309.018 8.81392C309.21 8.66004 309.355 8.45052 309.452 8.18537C309.551 7.91785 309.601 7.61364 309.601 7.27273C309.601 6.93419 309.552 6.63352 309.455 6.37074C309.358 6.10795 309.214 5.90199 309.022 5.75284C308.83 5.60369 308.591 5.52912 308.305 5.52912C308.03 5.52912 307.797 5.60133 307.605 5.74574C307.413 5.89015 307.268 6.09257 307.168 6.35298C307.071 6.6134 307.023 6.91998 307.023 7.27273Z" fill="white"/>
<path d="M3.23153 109.099C2.7036 109.099 2.23485 109.011 1.82528 108.833C1.41809 108.656 1.09848 108.413 0.866477 108.105C0.636837 107.795 0.523201 107.443 0.525568 107.05C0.523201 106.745 0.589489 106.464 0.724432 106.209C0.859375 105.953 1.04167 105.74 1.27131 105.57C1.50331 105.397 1.76136 105.287 2.04545 105.239V105.19C1.6714 105.107 1.36837 104.916 1.13636 104.618C0.906724 104.317 0.793087 103.97 0.795455 103.577C0.793087 103.203 0.897254 102.87 1.10795 102.576C1.31866 102.282 1.60748 102.052 1.97443 101.884C2.34138 101.713 2.76042 101.628 3.23153 101.628C3.69792 101.628 4.1134 101.713 4.47798 101.884C4.84493 102.052 5.13376 102.282 5.34446 102.576C5.55753 102.87 5.66406 103.203 5.66406 103.577C5.66406 103.97 5.54688 104.317 5.3125 104.618C5.08049 104.916 4.78101 105.107 4.41406 105.19V105.239C4.69815 105.287 4.95384 105.397 5.18111 105.57C5.41075 105.74 5.59304 105.953 5.72798 106.209C5.86529 106.464 5.93395 106.745 5.93395 107.05C5.93395 107.443 5.81795 107.795 5.58594 108.105C5.35393 108.413 5.03433 108.656 4.62713 108.833C4.2223 109.011 3.7571 109.099 3.23153 109.099ZM3.23153 108.084C3.50379 108.084 3.74053 108.038 3.94176 107.945C4.14299 107.851 4.29924 107.718 4.41051 107.548C4.52178 107.377 4.5786 107.181 4.58097 106.958C4.5786 106.726 4.51823 106.521 4.39986 106.344C4.28385 106.164 4.12405 106.023 3.92045 105.921C3.71922 105.819 3.48958 105.768 3.23153 105.768C2.97112 105.768 2.73911 105.819 2.53551 105.921C2.33191 106.023 2.17093 106.164 2.05256 106.344C1.93655 106.521 1.87973 106.726 1.8821 106.958C1.87973 107.181 1.93419 107.377 2.04545 107.548C2.15672 107.716 2.31297 107.847 2.5142 107.942C2.7178 108.036 2.95691 108.084 3.23153 108.084ZM3.23153 104.771C3.45407 104.771 3.65057 104.726 3.82102 104.636C3.99384 104.546 4.12997 104.42 4.2294 104.259C4.32884 104.098 4.37973 103.912 4.3821 103.702C4.37973 103.493 4.33002 103.311 4.23295 103.155C4.13589 102.996 4.00095 102.874 3.82812 102.789C3.6553 102.701 3.45644 102.658 3.23153 102.658C3.00189 102.658 2.79948 102.701 2.62429 102.789C2.45147 102.874 2.31652 102.996 2.21946 103.155C2.12476 103.311 2.0786 103.493 2.08097 103.702C2.0786 103.912 2.12595 104.098 2.22301 104.259C2.32244 104.418 2.45857 104.543 2.63139 104.636C2.80658 104.726 3.00663 104.771 3.23153 104.771ZM10.3951 111.045C10.2199 111.045 10.0577 111.031 9.90856 111.003C9.76178 110.977 9.64459 110.946 9.557 110.911L9.85529 109.909C10.0423 109.964 10.2092 109.99 10.356 109.987C10.5028 109.985 10.6318 109.939 10.7431 109.849C10.8567 109.761 10.9526 109.614 11.0307 109.408L11.1408 109.114L9.16282 103.545H10.5265L11.7836 107.665H11.8404L13.101 103.545H14.4682L12.2843 109.661C12.1825 109.949 12.0475 110.197 11.8794 110.403C11.7114 110.611 11.5054 110.77 11.2615 110.879C11.0201 110.99 10.7312 111.045 10.3951 111.045ZM17.587 109.107C17.0401 109.107 16.5678 108.993 16.1701 108.766C15.7747 108.536 15.4705 108.212 15.2575 107.793C15.0444 107.371 14.9379 106.875 14.9379 106.305C14.9379 105.744 15.0444 105.251 15.2575 104.827C15.4729 104.401 15.7736 104.07 16.1594 103.833C16.5453 103.594 16.9987 103.474 17.5195 103.474C17.8557 103.474 18.1729 103.529 18.4712 103.638C18.7719 103.744 19.0371 103.91 19.2667 104.135C19.4987 104.36 19.681 104.646 19.8136 104.994C19.9461 105.34 20.0124 105.752 20.0124 106.23V106.624H15.5415V105.758H18.7802C18.7778 105.512 18.7246 105.293 18.6204 105.101C18.5162 104.907 18.3706 104.754 18.1836 104.643C17.9989 104.531 17.7835 104.476 17.5373 104.476C17.2745 104.476 17.0437 104.54 16.8448 104.668C16.646 104.793 16.4909 104.959 16.3796 105.165C16.2707 105.368 16.2151 105.592 16.2127 105.836V106.592C16.2127 106.91 16.2707 107.182 16.3867 107.409C16.5027 107.634 16.6649 107.807 16.8732 107.928C17.0816 108.046 17.3254 108.105 17.6048 108.105C17.7918 108.105 17.9611 108.079 18.1126 108.027C18.2641 107.973 18.3955 107.893 18.5067 107.789C18.618 107.685 18.7021 107.556 18.7589 107.402L19.9592 107.537C19.8834 107.854 19.739 108.131 19.5259 108.368C19.3152 108.602 19.0453 108.785 18.7163 108.915C18.3872 109.043 18.0108 109.107 17.587 109.107ZM22.6696 109.11C22.3239 109.11 22.0126 109.049 21.7356 108.925C21.461 108.8 21.2432 108.615 21.0822 108.371C20.9236 108.128 20.8443 107.827 20.8443 107.469C20.8443 107.162 20.9011 106.907 21.0147 106.706C21.1284 106.505 21.2834 106.344 21.4799 106.223C21.6764 106.102 21.8978 106.011 22.144 105.95C22.3926 105.886 22.6494 105.839 22.9146 105.811C23.2342 105.778 23.4934 105.748 23.6923 105.722C23.8912 105.694 24.0356 105.651 24.1255 105.594C24.2179 105.535 24.264 105.444 24.264 105.321V105.3C24.264 105.032 24.1847 104.825 24.0261 104.678C23.8675 104.531 23.639 104.458 23.3407 104.458C23.0259 104.458 22.7761 104.527 22.5914 104.664C22.4092 104.801 22.286 104.964 22.2221 105.151L21.0218 104.98C21.1165 104.649 21.2728 104.372 21.4906 104.149C21.7084 103.924 21.9747 103.756 22.2896 103.645C22.6045 103.531 22.9525 103.474 23.3336 103.474C23.5964 103.474 23.858 103.505 24.1184 103.567C24.3788 103.628 24.6168 103.73 24.8322 103.872C25.0476 104.012 25.2205 104.202 25.3507 104.444C25.4833 104.685 25.5495 104.987 25.5495 105.349V109H24.3137V108.251H24.2711C24.193 108.402 24.0829 108.544 23.9409 108.677C23.8012 108.807 23.6248 108.912 23.4118 108.993C23.2011 109.071 22.9537 109.11 22.6696 109.11ZM23.0034 108.165C23.2614 108.165 23.4851 108.115 23.6745 108.013C23.8639 107.909 24.0095 107.771 24.1113 107.601C24.2155 107.43 24.2676 107.245 24.2676 107.043V106.401C24.2273 106.434 24.1587 106.464 24.0616 106.493C23.9669 106.521 23.8604 106.546 23.742 106.567C23.6236 106.589 23.5065 106.608 23.3904 106.624C23.2744 106.641 23.1738 106.655 23.0886 106.667C22.8968 106.693 22.7252 106.736 22.5737 106.795C22.4222 106.854 22.3026 106.937 22.215 107.043C22.1274 107.147 22.0836 107.282 22.0836 107.448C22.0836 107.685 22.17 107.864 22.3429 107.984C22.5157 108.105 22.7359 108.165 23.0034 108.165ZM26.8422 109V103.545H28.0886V104.455H28.1454C28.2449 104.14 28.4153 103.897 28.6568 103.727C28.9006 103.554 29.1788 103.467 29.4913 103.467C29.5623 103.467 29.6416 103.471 29.7292 103.478C29.8192 103.483 29.8938 103.491 29.9529 103.503V104.685C29.8985 104.666 29.8121 104.65 29.6937 104.636C29.5777 104.619 29.4653 104.611 29.3564 104.611C29.122 104.611 28.9113 104.662 28.7243 104.763C28.5396 104.863 28.394 105.001 28.2875 105.179C28.1809 105.357 28.1277 105.561 28.1277 105.793V109H26.8422ZM35.1181 104.987L33.9462 105.115C33.9131 104.997 33.8551 104.885 33.7722 104.781C33.6917 104.677 33.5828 104.593 33.4455 104.529C33.3082 104.465 33.1401 104.433 32.9412 104.433C32.6737 104.433 32.4488 104.491 32.2665 104.607C32.0866 104.723 31.9978 104.874 32.0002 105.058C31.9978 105.217 32.0558 105.346 32.1742 105.445C32.2949 105.545 32.4938 105.626 32.7708 105.69L33.7012 105.889C34.2173 106 34.6008 106.177 34.8517 106.418C35.1051 106.66 35.2329 106.976 35.2353 107.366C35.2329 107.71 35.1323 108.013 34.9334 108.276C34.7369 108.536 34.4635 108.74 34.1131 108.886C33.7627 109.033 33.3603 109.107 32.9057 109.107C32.2381 109.107 31.7007 108.967 31.2935 108.688C30.8863 108.406 30.6436 108.014 30.5655 107.512L31.8191 107.391C31.8759 107.638 31.9966 107.823 32.1813 107.949C32.3659 108.074 32.6062 108.137 32.9022 108.137C33.2076 108.137 33.4526 108.074 33.6373 107.949C33.8243 107.823 33.9178 107.668 33.9178 107.484C33.9178 107.327 33.8574 107.198 33.7367 107.097C33.6183 106.995 33.4337 106.917 33.1827 106.862L32.2523 106.667C31.7291 106.558 31.342 106.375 31.0911 106.116C30.8401 105.856 30.7158 105.527 30.7182 105.129C30.7158 104.793 30.807 104.502 30.9917 104.256C31.1787 104.007 31.4379 103.815 31.7694 103.68C32.1032 103.543 32.4879 103.474 32.9235 103.474C33.5627 103.474 34.0658 103.611 34.4327 103.883C34.802 104.155 35.0305 104.523 35.1181 104.987ZM41.155 109.107C40.6223 109.107 40.1607 108.989 39.7701 108.755C39.3794 108.521 39.0764 108.193 38.861 107.771C38.6479 107.35 38.5414 106.857 38.5414 106.294C38.5414 105.731 38.6479 105.237 38.861 104.813C39.0764 104.389 39.3794 104.06 39.7701 103.826C40.1607 103.592 40.6223 103.474 41.155 103.474C41.6877 103.474 42.1493 103.592 42.54 103.826C42.9306 104.06 43.2324 104.389 43.4455 104.813C43.6609 105.237 43.7686 105.731 43.7686 106.294C43.7686 106.857 43.6609 107.35 43.4455 107.771C43.2324 108.193 42.9306 108.521 42.54 108.755C42.1493 108.989 41.6877 109.107 41.155 109.107ZM41.1621 108.077C41.4509 108.077 41.6924 107.997 41.8865 107.839C42.0807 107.678 42.2251 107.462 42.3198 107.192C42.4168 106.923 42.4654 106.622 42.4654 106.29C42.4654 105.957 42.4168 105.655 42.3198 105.385C42.2251 105.113 42.0807 104.896 41.8865 104.735C41.6924 104.574 41.4509 104.494 41.1621 104.494C40.8662 104.494 40.62 104.574 40.4235 104.735C40.2293 104.896 40.0837 105.113 39.9867 105.385C39.892 105.655 39.8446 105.957 39.8446 106.29C39.8446 106.622 39.892 106.923 39.9867 107.192C40.0837 107.462 40.2293 107.678 40.4235 107.839C40.62 107.997 40.8662 108.077 41.1621 108.077ZM46.1452 101.727V109H44.8597V101.727H46.1452ZM49.4913 109.096C49.0628 109.096 48.6793 108.986 48.3407 108.766C48.0022 108.545 47.7347 108.226 47.5382 107.807C47.3417 107.388 47.2434 106.879 47.2434 106.28C47.2434 105.674 47.3429 105.162 47.5417 104.746C47.743 104.327 48.014 104.011 48.3549 103.798C48.6958 103.582 49.0758 103.474 49.4949 103.474C49.8145 103.474 50.0772 103.529 50.2832 103.638C50.4892 103.744 50.6525 103.873 50.7733 104.025C50.894 104.174 50.9875 104.315 51.0538 104.447H51.1071V101.727H52.3961V109H51.1319V108.141H51.0538C50.9875 108.273 50.8916 108.414 50.7662 108.563C50.6407 108.71 50.475 108.835 50.269 108.94C50.063 109.044 49.8038 109.096 49.4913 109.096ZM49.85 108.041C50.1222 108.041 50.3542 107.968 50.546 107.821C50.7377 107.672 50.8833 107.465 50.9828 107.2C51.0822 106.934 51.1319 106.625 51.1319 106.273C51.1319 105.92 51.0822 105.613 50.9828 105.353C50.8857 105.093 50.7413 104.89 50.5495 104.746C50.3601 104.601 50.127 104.529 49.85 104.529C49.5635 104.529 49.3244 104.604 49.1326 104.753C48.9409 104.902 48.7965 105.108 48.6994 105.371C48.6023 105.634 48.5538 105.934 48.5538 106.273C48.5538 106.614 48.6023 106.918 48.6994 107.185C48.7988 107.451 48.9444 107.66 49.1362 107.814C49.3303 107.965 49.5682 108.041 49.85 108.041Z" fill="#4D4848"/>
<path d="M502.646 109V108.048L505.171 105.573C505.413 105.329 505.614 105.113 505.775 104.923C505.936 104.734 506.057 104.55 506.137 104.373C506.218 104.195 506.258 104.006 506.258 103.805C506.258 103.575 506.206 103.379 506.102 103.215C505.997 103.049 505.854 102.922 505.672 102.832C505.49 102.742 505.282 102.697 505.05 102.697C504.811 102.697 504.602 102.746 504.422 102.846C504.242 102.943 504.102 103.081 504.003 103.261C503.906 103.441 503.857 103.656 503.857 103.904H502.604C502.604 103.442 502.709 103.041 502.92 102.7C503.13 102.359 503.42 102.095 503.79 101.908C504.161 101.721 504.588 101.628 505.068 101.628C505.556 101.628 505.984 101.719 506.354 101.901C506.723 102.084 507.009 102.333 507.213 102.651C507.419 102.968 507.522 103.33 507.522 103.737C507.522 104.009 507.47 104.277 507.366 104.54C507.262 104.803 507.078 105.094 506.815 105.413C506.555 105.733 506.189 106.12 505.718 106.575L504.464 107.849V107.899H507.632V109H502.646ZM511.467 109.099C510.956 109.099 510.501 109.012 510.104 108.837C509.708 108.661 509.396 108.418 509.166 108.105C508.937 107.793 508.815 107.432 508.8 107.022H510.136C510.147 107.219 510.213 107.39 510.331 107.537C510.449 107.681 510.607 107.794 510.803 107.874C511 107.955 511.22 107.995 511.464 107.995C511.724 107.995 511.955 107.95 512.156 107.86C512.357 107.768 512.515 107.64 512.629 107.477C512.742 107.313 512.798 107.125 512.795 106.912C512.798 106.692 512.741 106.498 512.625 106.33C512.509 106.161 512.341 106.03 512.121 105.935C511.903 105.841 511.64 105.793 511.332 105.793H510.69V104.778H511.332C511.586 104.778 511.807 104.734 511.996 104.646C512.188 104.559 512.339 104.436 512.447 104.277C512.556 104.116 512.61 103.93 512.607 103.719C512.61 103.513 512.563 103.335 512.469 103.183C512.376 103.029 512.245 102.91 512.075 102.825C511.906 102.739 511.709 102.697 511.482 102.697C511.259 102.697 511.053 102.737 510.864 102.817C510.674 102.898 510.522 103.013 510.406 103.162C510.29 103.309 510.228 103.484 510.221 103.688H508.953C508.963 103.28 509.08 102.923 509.305 102.615C509.532 102.305 509.835 102.063 510.214 101.891C510.593 101.715 511.018 101.628 511.489 101.628C511.974 101.628 512.395 101.719 512.753 101.901C513.113 102.081 513.391 102.324 513.587 102.629C513.784 102.935 513.882 103.272 513.882 103.641C513.884 104.051 513.764 104.394 513.52 104.671C513.278 104.948 512.961 105.129 512.568 105.214V105.271C513.08 105.342 513.471 105.532 513.744 105.839C514.018 106.145 514.154 106.525 514.152 106.979C514.152 107.387 514.036 107.751 513.804 108.073C513.574 108.393 513.257 108.644 512.852 108.826C512.45 109.008 511.988 109.099 511.467 109.099ZM518.665 111.045C518.489 111.045 518.327 111.031 518.178 111.003C518.031 110.977 517.914 110.946 517.827 110.911L518.125 109.909C518.312 109.964 518.479 109.99 518.626 109.987C518.772 109.985 518.901 109.939 519.013 109.849C519.126 109.761 519.222 109.614 519.3 109.408L519.41 109.114L517.432 103.545H518.796L520.053 107.665H520.11L521.371 103.545H522.738L520.554 109.661C520.452 109.949 520.317 110.197 520.149 110.403C519.981 110.611 519.775 110.77 519.531 110.879C519.29 110.99 519.001 111.045 518.665 111.045ZM525.857 109.107C525.31 109.107 524.837 108.993 524.44 108.766C524.044 108.536 523.74 108.212 523.527 107.793C523.314 107.371 523.207 106.875 523.207 106.305C523.207 105.744 523.314 105.251 523.527 104.827C523.742 104.401 524.043 104.07 524.429 103.833C524.815 103.594 525.268 103.474 525.789 103.474C526.125 103.474 526.442 103.529 526.741 103.638C527.041 103.744 527.307 103.91 527.536 104.135C527.768 104.36 527.951 104.646 528.083 104.994C528.216 105.34 528.282 105.752 528.282 106.23V106.624H523.811V105.758H527.05C527.047 105.512 526.994 105.293 526.89 105.101C526.786 104.907 526.64 104.754 526.453 104.643C526.268 104.531 526.053 104.476 525.807 104.476C525.544 104.476 525.313 104.54 525.114 104.668C524.915 104.793 524.76 104.959 524.649 105.165C524.54 105.368 524.485 105.592 524.482 105.836V106.592C524.482 106.91 524.54 107.182 524.656 107.409C524.772 107.634 524.934 107.807 525.143 107.928C525.351 108.046 525.595 108.105 525.874 108.105C526.061 108.105 526.231 108.079 526.382 108.027C526.534 107.973 526.665 107.893 526.776 107.789C526.888 107.685 526.972 107.556 527.028 107.402L528.229 107.537C528.153 107.854 528.009 108.131 527.795 108.368C527.585 108.602 527.315 108.785 526.986 108.915C526.657 109.043 526.28 109.107 525.857 109.107ZM530.939 109.11C530.593 109.11 530.282 109.049 530.005 108.925C529.731 108.8 529.513 108.615 529.352 108.371C529.193 108.128 529.114 107.827 529.114 107.469C529.114 107.162 529.171 106.907 529.284 106.706C529.398 106.505 529.553 106.344 529.749 106.223C529.946 106.102 530.167 106.011 530.414 105.95C530.662 105.886 530.919 105.839 531.184 105.811C531.504 105.778 531.763 105.748 531.962 105.722C532.161 105.694 532.305 105.651 532.395 105.594C532.487 105.535 532.534 105.444 532.534 105.321V105.3C532.534 105.032 532.454 104.825 532.296 104.678C532.137 104.531 531.909 104.458 531.61 104.458C531.295 104.458 531.046 104.527 530.861 104.664C530.679 104.801 530.556 104.964 530.492 105.151L529.291 104.98C529.386 104.649 529.542 104.372 529.76 104.149C529.978 103.924 530.244 103.756 530.559 103.645C530.874 103.531 531.222 103.474 531.603 103.474C531.866 103.474 532.128 103.505 532.388 103.567C532.648 103.628 532.886 103.73 533.102 103.872C533.317 104.012 533.49 104.202 533.62 104.444C533.753 104.685 533.819 104.987 533.819 105.349V109H532.583V108.251H532.541C532.463 108.402 532.352 108.544 532.21 108.677C532.071 108.807 531.894 108.912 531.681 108.993C531.471 109.071 531.223 109.11 530.939 109.11ZM531.273 108.165C531.531 108.165 531.755 108.115 531.944 108.013C532.133 107.909 532.279 107.771 532.381 107.601C532.485 107.43 532.537 107.245 532.537 107.043V106.401C532.497 106.434 532.428 106.464 532.331 106.493C532.236 106.521 532.13 106.546 532.012 106.567C531.893 106.589 531.776 106.608 531.66 106.624C531.544 106.641 531.443 106.655 531.358 106.667C531.166 106.693 530.995 106.736 530.843 106.795C530.692 106.854 530.572 106.937 530.485 107.043C530.397 107.147 530.353 107.282 530.353 107.448C530.353 107.685 530.44 107.864 530.612 107.984C530.785 108.105 531.005 108.165 531.273 108.165ZM535.112 109V103.545H536.358V104.455H536.415C536.514 104.14 536.685 103.897 536.926 103.727C537.17 103.554 537.448 103.467 537.761 103.467C537.832 103.467 537.911 103.471 537.999 103.478C538.089 103.483 538.163 103.491 538.222 103.503V104.685C538.168 104.666 538.082 104.65 537.963 104.636C537.847 104.619 537.735 104.611 537.626 104.611C537.392 104.611 537.181 104.662 536.994 104.763C536.809 104.863 536.664 105.001 536.557 105.179C536.45 105.357 536.397 105.561 536.397 105.793V109H535.112ZM543.388 104.987L542.216 105.115C542.183 104.997 542.125 104.885 542.042 104.781C541.961 104.677 541.852 104.593 541.715 104.529C541.578 104.465 541.41 104.433 541.211 104.433C540.943 104.433 540.718 104.491 540.536 104.607C540.356 104.723 540.267 104.874 540.27 105.058C540.267 105.217 540.325 105.346 540.444 105.445C540.564 105.545 540.763 105.626 541.04 105.69L541.971 105.889C542.487 106 542.87 106.177 543.121 106.418C543.375 106.66 543.502 106.976 543.505 107.366C543.502 107.71 543.402 108.013 543.203 108.276C543.006 108.536 542.733 108.74 542.383 108.886C542.032 109.033 541.63 109.107 541.175 109.107C540.508 109.107 539.97 108.967 539.563 108.688C539.156 108.406 538.913 108.014 538.835 107.512L540.089 107.391C540.145 107.638 540.266 107.823 540.451 107.949C540.635 108.074 540.876 108.137 541.172 108.137C541.477 108.137 541.722 108.074 541.907 107.949C542.094 107.823 542.187 107.668 542.187 107.484C542.187 107.327 542.127 107.198 542.006 107.097C541.888 106.995 541.703 106.917 541.452 106.862L540.522 106.667C539.999 106.558 539.612 106.375 539.361 106.116C539.11 105.856 538.985 105.527 538.988 105.129C538.985 104.793 539.077 104.502 539.261 104.256C539.448 104.007 539.707 103.815 540.039 103.68C540.373 103.543 540.757 103.474 541.193 103.474C541.832 103.474 542.335 103.611 542.702 103.883C543.072 104.155 543.3 104.523 543.388 104.987ZM549.425 109.107C548.892 109.107 548.43 108.989 548.04 108.755C547.649 108.521 547.346 108.193 547.131 107.771C546.917 107.35 546.811 106.857 546.811 106.294C546.811 105.731 546.917 105.237 547.131 104.813C547.346 104.389 547.649 104.06 548.04 103.826C548.43 103.592 548.892 103.474 549.425 103.474C549.957 103.474 550.419 103.592 550.809 103.826C551.2 104.06 551.502 104.389 551.715 104.813C551.93 105.237 552.038 105.731 552.038 106.294C552.038 106.857 551.93 107.35 551.715 107.771C551.502 108.193 551.2 108.521 550.809 108.755C550.419 108.989 549.957 109.107 549.425 109.107ZM549.432 108.077C549.72 108.077 549.962 107.997 550.156 107.839C550.35 107.678 550.495 107.462 550.589 107.192C550.686 106.923 550.735 106.622 550.735 106.29C550.735 105.957 550.686 105.655 550.589 105.385C550.495 105.113 550.35 104.896 550.156 104.735C549.962 104.574 549.72 104.494 549.432 104.494C549.136 104.494 548.89 104.574 548.693 104.735C548.499 104.896 548.353 105.113 548.256 105.385C548.162 105.655 548.114 105.957 548.114 106.29C548.114 106.622 548.162 106.923 548.256 107.192C548.353 107.462 548.499 107.678 548.693 107.839C548.89 107.997 549.136 108.077 549.432 108.077ZM554.415 101.727V109H553.129V101.727H554.415ZM557.761 109.096C557.332 109.096 556.949 108.986 556.61 108.766C556.272 108.545 556.004 108.226 555.808 107.807C555.611 107.388 555.513 106.879 555.513 106.28C555.513 105.674 555.612 105.162 555.811 104.746C556.012 104.327 556.284 104.011 556.624 103.798C556.965 103.582 557.345 103.474 557.764 103.474C558.084 103.474 558.347 103.529 558.553 103.638C558.759 103.744 558.922 103.873 559.043 104.025C559.164 104.174 559.257 104.315 559.323 104.447H559.377V101.727H560.666V109H559.401V108.141H559.323C559.257 108.273 559.161 108.414 559.036 108.563C558.91 108.71 558.744 108.835 558.539 108.94C558.333 109.044 558.073 109.096 557.761 109.096ZM558.119 108.041C558.392 108.041 558.624 107.968 558.816 107.821C559.007 107.672 559.153 107.465 559.252 107.2C559.352 106.934 559.401 106.625 559.401 106.273C559.401 105.92 559.352 105.613 559.252 105.353C559.155 105.093 559.011 104.89 558.819 104.746C558.63 104.601 558.396 104.529 558.119 104.529C557.833 104.529 557.594 104.604 557.402 104.753C557.21 104.902 557.066 105.108 556.969 105.371C556.872 105.634 556.823 105.934 556.823 106.273C556.823 106.614 556.872 106.918 556.969 107.185C557.068 107.451 557.214 107.66 557.406 107.814C557.6 107.965 557.838 108.041 558.119 108.041Z" fill="#4D4848"/>
<path d="M245.398 22.8317V21.7273H251.2V22.8317H248.952V29H247.646V22.8317H245.398ZM254.996 26.706V23.5455H256.282V29H255.036V28.0305H254.979C254.856 28.3359 254.653 28.5857 254.371 28.7798C254.092 28.974 253.748 29.071 253.338 29.071C252.981 29.071 252.665 28.9917 252.39 28.8331C252.118 28.6721 251.905 28.4389 251.751 28.1335C251.597 27.8258 251.52 27.4541 251.52 27.0185V23.5455H252.805V26.8196C252.805 27.1652 252.9 27.4399 253.089 27.6435C253.279 27.8471 253.527 27.9489 253.835 27.9489C254.025 27.9489 254.208 27.9027 254.386 27.8104C254.563 27.718 254.709 27.5807 254.822 27.3984C254.938 27.2138 254.996 26.983 254.996 26.706ZM258.776 27.2884L258.772 25.7365H258.978L260.938 23.5455H262.441L260.029 26.2301H259.763L258.776 27.2884ZM257.604 29V21.7273H258.889V29H257.604ZM261.027 29L259.252 26.5178L260.118 25.6122L262.565 29H261.027ZM266.774 26.706V23.5455H268.059V29H266.813V28.0305H266.756C266.633 28.3359 266.431 28.5857 266.149 28.7798C265.869 28.974 265.525 29.071 265.115 29.071C264.758 29.071 264.442 28.9917 264.167 28.8331C263.895 28.6721 263.682 28.4389 263.528 28.1335C263.374 27.8258 263.297 27.4541 263.297 27.0185V23.5455H264.583V26.8196C264.583 27.1652 264.677 27.4399 264.867 27.6435C265.056 27.8471 265.305 27.9489 265.613 27.9489C265.802 27.9489 265.985 27.9027 266.163 27.8104C266.341 27.718 266.486 27.5807 266.6 27.3984C266.716 27.2138 266.774 26.983 266.774 26.706ZM269.31 29V28.1832L272.123 24.657V24.6108H269.403V23.5455H273.696V24.4226L271.018 27.8885V27.9347H273.788V29H269.31ZM277.255 29.1065C276.708 29.1065 276.236 28.9929 275.838 28.7656C275.443 28.536 275.138 28.2116 274.925 27.7926C274.712 27.3712 274.606 26.8752 274.606 26.3047C274.606 25.7436 274.712 25.2512 274.925 24.8274C275.141 24.4013 275.442 24.0698 275.827 23.8331C276.213 23.594 276.667 23.4744 277.188 23.4744C277.524 23.4744 277.841 23.5289 278.139 23.6378C278.44 23.7443 278.705 23.91 278.935 24.1349C279.167 24.3598 279.349 24.6463 279.482 24.9943C279.614 25.34 279.68 25.7519 279.68 26.2301V26.6243H275.21V25.7578H278.448C278.446 25.5116 278.393 25.2926 278.288 25.1009C278.184 24.9067 278.039 24.754 277.852 24.6428C277.667 24.5315 277.451 24.4759 277.205 24.4759C276.942 24.4759 276.712 24.5398 276.513 24.6676C276.314 24.7931 276.159 24.9588 276.048 25.1648C275.939 25.3684 275.883 25.5921 275.881 25.8359V26.5923C275.881 26.9096 275.939 27.1818 276.055 27.4091C276.171 27.634 276.333 27.8068 276.541 27.9276C276.75 28.0459 276.993 28.1051 277.273 28.1051C277.46 28.1051 277.629 28.0791 277.781 28.027C277.932 27.9725 278.063 27.8932 278.175 27.7891C278.286 27.6849 278.37 27.5559 278.427 27.402L279.627 27.5369C279.551 27.8542 279.407 28.1312 279.194 28.3679C278.983 28.6023 278.713 28.7846 278.384 28.9148C278.055 29.0426 277.679 29.1065 277.255 29.1065ZM282.986 22.8317V21.7273H288.788V22.8317H286.54V29H285.233V22.8317H282.986ZM290.677 29.1101C290.332 29.1101 290.02 29.0485 289.743 28.9254C289.469 28.8 289.251 28.6153 289.09 28.3714C288.931 28.1276 288.852 27.8269 288.852 27.4695C288.852 27.1617 288.909 26.9072 289.023 26.706C289.136 26.5047 289.291 26.3438 289.488 26.223C289.684 26.1023 289.906 26.0111 290.152 25.9496C290.4 25.8857 290.657 25.8395 290.922 25.8111C291.242 25.7779 291.501 25.7483 291.7 25.7223C291.899 25.6939 292.043 25.6513 292.133 25.5945C292.226 25.5353 292.272 25.4441 292.272 25.321V25.2997C292.272 25.0322 292.193 24.825 292.034 24.6783C291.875 24.5315 291.647 24.4581 291.349 24.4581C291.034 24.4581 290.784 24.5268 290.599 24.6641C290.417 24.8014 290.294 24.9635 290.23 25.1506L289.03 24.9801C289.124 24.6487 289.281 24.3717 289.498 24.1491C289.716 23.9242 289.983 23.7562 290.297 23.6449C290.612 23.5312 290.96 23.4744 291.341 23.4744C291.604 23.4744 291.866 23.5052 292.126 23.5668C292.387 23.6283 292.625 23.7301 292.84 23.8722C293.055 24.0118 293.228 24.2024 293.358 24.4439C293.491 24.6854 293.557 24.9872 293.557 25.3494V29H292.322V28.2507H292.279C292.201 28.4022 292.091 28.5443 291.949 28.6768C291.809 28.8071 291.633 28.9124 291.42 28.9929C291.209 29.071 290.961 29.1101 290.677 29.1101ZM291.011 28.1655C291.269 28.1655 291.493 28.1146 291.682 28.0128C291.872 27.9086 292.017 27.7713 292.119 27.6009C292.223 27.4304 292.275 27.2446 292.275 27.0433V26.4006C292.235 26.4337 292.166 26.4645 292.069 26.4929C291.975 26.5213 291.868 26.5462 291.75 26.5675C291.631 26.5888 291.514 26.6077 291.398 26.6243C291.282 26.6409 291.182 26.6551 291.096 26.6669C290.905 26.6929 290.733 26.7356 290.581 26.7947C290.43 26.8539 290.31 26.9368 290.223 27.0433C290.135 27.1475 290.091 27.2824 290.091 27.4482C290.091 27.6849 290.178 27.8636 290.351 27.9844C290.523 28.1051 290.744 28.1655 291.011 28.1655ZM296.135 21.7273V29H294.85V21.7273H296.135ZM299.027 29.1101C298.681 29.1101 298.37 29.0485 298.093 28.9254C297.818 28.8 297.601 28.6153 297.44 28.3714C297.281 28.1276 297.202 27.8269 297.202 27.4695C297.202 27.1617 297.259 26.9072 297.372 26.706C297.486 26.5047 297.641 26.3438 297.837 26.223C298.034 26.1023 298.255 26.0111 298.501 25.9496C298.75 25.8857 299.007 25.8395 299.272 25.8111C299.592 25.7779 299.851 25.7483 300.05 25.7223C300.249 25.6939 300.393 25.6513 300.483 25.5945C300.575 25.5353 300.621 25.4441 300.621 25.321V25.2997C300.621 25.0322 300.542 24.825 300.384 24.6783C300.225 24.5315 299.996 24.4581 299.698 24.4581C299.383 24.4581 299.134 24.5268 298.949 24.6641C298.767 24.8014 298.643 24.9635 298.58 25.1506L297.379 24.9801C297.474 24.6487 297.63 24.3717 297.848 24.1491C298.066 23.9242 298.332 23.7562 298.647 23.6449C298.962 23.5312 299.31 23.4744 299.691 23.4744C299.954 23.4744 300.215 23.5052 300.476 23.5668C300.736 23.6283 300.974 23.7301 301.19 23.8722C301.405 24.0118 301.578 24.2024 301.708 24.4439C301.841 24.6854 301.907 24.9872 301.907 25.3494V29H300.671V28.2507H300.629C300.55 28.4022 300.44 28.5443 300.298 28.6768C300.159 28.8071 299.982 28.9124 299.769 28.9929C299.558 29.071 299.311 29.1101 299.027 29.1101ZM299.361 28.1655C299.619 28.1655 299.843 28.1146 300.032 28.0128C300.221 27.9086 300.367 27.7713 300.469 27.6009C300.573 27.4304 300.625 27.2446 300.625 27.0433V26.4006C300.585 26.4337 300.516 26.4645 300.419 26.4929C300.324 26.5213 300.218 26.5462 300.099 26.5675C299.981 26.5888 299.864 26.6077 299.748 26.6243C299.632 26.6409 299.531 26.6551 299.446 26.6669C299.254 26.6929 299.083 26.7356 298.931 26.7947C298.78 26.8539 298.66 26.9368 298.572 27.0433C298.485 27.1475 298.441 27.2824 298.441 27.4482C298.441 27.6849 298.527 27.8636 298.7 27.9844C298.873 28.1051 299.093 28.1655 299.361 28.1655ZM304.485 25.804V29H303.2V23.5455H304.428V24.4723H304.492C304.618 24.1669 304.818 23.9242 305.092 23.7443C305.369 23.5644 305.711 23.4744 306.119 23.4744C306.495 23.4744 306.823 23.5549 307.102 23.7159C307.384 23.8769 307.602 24.1101 307.756 24.4155C307.912 24.7209 307.989 25.0914 307.987 25.527V29H306.701V25.7259C306.701 25.3613 306.606 25.076 306.417 24.87C306.23 24.6641 305.971 24.5611 305.639 24.5611C305.414 24.5611 305.214 24.6108 305.039 24.7102C304.866 24.8073 304.73 24.9482 304.631 25.1328C304.534 25.3175 304.485 25.5412 304.485 25.804ZM312.017 23.5455V24.5398H308.881V23.5455H312.017ZM309.656 22.2386H310.941V27.3594C310.941 27.5322 310.967 27.6648 311.019 27.7571C311.074 27.8471 311.145 27.9086 311.232 27.9418C311.32 27.9749 311.417 27.9915 311.523 27.9915C311.604 27.9915 311.677 27.9856 311.744 27.9737C311.812 27.9619 311.864 27.9512 311.9 27.9418L312.116 28.9467C312.048 28.9704 311.95 28.9964 311.822 29.0249C311.696 29.0533 311.542 29.0698 311.36 29.0746C311.038 29.084 310.748 29.0355 310.49 28.929C310.232 28.8201 310.027 28.652 309.876 28.4247C309.727 28.1974 309.653 27.9134 309.656 27.5724V22.2386ZM314.662 29.1101C314.316 29.1101 314.005 29.0485 313.728 28.9254C313.453 28.8 313.235 28.6153 313.074 28.3714C312.916 28.1276 312.836 27.8269 312.836 27.4695C312.836 27.1617 312.893 26.9072 313.007 26.706C313.121 26.5047 313.276 26.3438 313.472 26.223C313.669 26.1023 313.89 26.0111 314.136 25.9496C314.385 25.8857 314.642 25.8395 314.907 25.8111C315.226 25.7779 315.486 25.7483 315.684 25.7223C315.883 25.6939 316.028 25.6513 316.118 25.5945C316.21 25.5353 316.256 25.4441 316.256 25.321V25.2997C316.256 25.0322 316.177 24.825 316.018 24.6783C315.86 24.5315 315.631 24.4581 315.333 24.4581C315.018 24.4581 314.768 24.5268 314.584 24.6641C314.401 24.8014 314.278 24.9635 314.214 25.1506L313.014 24.9801C313.109 24.6487 313.265 24.3717 313.483 24.1491C313.701 23.9242 313.967 23.7562 314.282 23.6449C314.597 23.5312 314.945 23.4744 315.326 23.4744C315.589 23.4744 315.85 23.5052 316.111 23.5668C316.371 23.6283 316.609 23.7301 316.824 23.8722C317.04 24.0118 317.213 24.2024 317.343 24.4439C317.475 24.6854 317.542 24.9872 317.542 25.3494V29H316.306V28.2507H316.263C316.185 28.4022 316.075 28.5443 315.933 28.6768C315.793 28.8071 315.617 28.9124 315.404 28.9929C315.193 29.071 314.946 29.1101 314.662 29.1101ZM314.996 28.1655C315.254 28.1655 315.477 28.1146 315.667 28.0128C315.856 27.9086 316.002 27.7713 316.104 27.6009C316.208 27.4304 316.26 27.2446 316.26 27.0433V26.4006C316.22 26.4337 316.151 26.4645 316.054 26.4929C315.959 26.5213 315.853 26.5462 315.734 26.5675C315.616 26.5888 315.499 26.6077 315.383 26.6243C315.267 26.6409 315.166 26.6551 315.081 26.6669C314.889 26.6929 314.717 26.7356 314.566 26.7947C314.414 26.8539 314.295 26.9368 314.207 27.0433C314.12 27.1475 314.076 27.2824 314.076 27.4482C314.076 27.6849 314.162 27.8636 314.335 27.9844C314.508 28.1051 314.728 28.1655 314.996 28.1655Z" fill="white"/>
<path d="M238.942 43.1811H237.614C237.576 42.9633 237.507 42.7704 237.405 42.6023C237.303 42.4318 237.176 42.2874 237.025 42.169C236.873 42.0507 236.701 41.9619 236.506 41.9027C236.315 41.8411 236.107 41.8104 235.885 41.8104C235.49 41.8104 235.139 41.9098 234.834 42.1087C234.528 42.3052 234.289 42.594 234.116 42.9751C233.944 43.3539 233.857 43.8168 233.857 44.3636C233.857 44.92 233.944 45.3887 234.116 45.7699C234.292 46.1487 234.531 46.4351 234.834 46.6293C235.139 46.821 235.488 46.9169 235.881 46.9169C236.099 46.9169 236.303 46.8885 236.492 46.8317C236.684 46.7725 236.856 46.6861 237.007 46.5724C237.161 46.4588 237.29 46.3191 237.394 46.1534C237.501 45.9877 237.574 45.7983 237.614 45.5852L238.942 45.5923C238.893 45.938 238.785 46.2623 238.619 46.5653C238.456 46.8684 238.242 47.1359 237.977 47.3679C237.711 47.5975 237.401 47.7775 237.046 47.9077C236.691 48.0355 236.297 48.0994 235.864 48.0994C235.224 48.0994 234.654 47.9515 234.152 47.6555C233.65 47.3596 233.255 46.9323 232.966 46.3736C232.677 45.8149 232.533 45.1449 232.533 44.3636C232.533 43.58 232.678 42.91 232.969 42.3537C233.261 41.795 233.657 41.3677 234.159 41.0717C234.661 40.7758 235.229 40.6278 235.864 40.6278C236.268 40.6278 236.645 40.6847 236.993 40.7983C237.341 40.9119 237.651 41.0788 237.923 41.299C238.196 41.5168 238.419 41.7843 238.594 42.1016C238.772 42.4164 238.888 42.7763 238.942 43.1811ZM242.471 48.1065C241.939 48.1065 241.477 47.9893 241.086 47.755C240.696 47.5206 240.393 47.1927 240.177 46.7713C239.964 46.3499 239.858 45.8575 239.858 45.294C239.858 44.7306 239.964 44.237 240.177 43.8132C240.393 43.3894 240.696 43.0604 241.086 42.826C241.477 42.5916 241.939 42.4744 242.471 42.4744C243.004 42.4744 243.466 42.5916 243.856 42.826C244.247 43.0604 244.549 43.3894 244.762 43.8132C244.977 44.237 245.085 44.7306 245.085 45.294C245.085 45.8575 244.977 46.3499 244.762 46.7713C244.549 47.1927 244.247 47.5206 243.856 47.755C243.466 47.9893 243.004 48.1065 242.471 48.1065ZM242.479 47.0767C242.767 47.0767 243.009 46.9974 243.203 46.8388C243.397 46.6778 243.541 46.4624 243.636 46.1925C243.733 45.9226 243.782 45.6219 243.782 45.2905C243.782 44.9567 243.733 44.6548 243.636 44.3849C243.541 44.1127 243.397 43.8961 243.203 43.7351C243.009 43.5741 242.767 43.4936 242.479 43.4936C242.183 43.4936 241.936 43.5741 241.74 43.7351C241.546 43.8961 241.4 44.1127 241.303 44.3849C241.208 44.6548 241.161 44.9567 241.161 45.2905C241.161 45.6219 241.208 45.9226 241.303 46.1925C241.4 46.4624 241.546 46.6778 241.74 46.8388C241.936 46.9974 242.183 47.0767 242.479 47.0767ZM246.176 48V42.5455H247.405V43.4723H247.469C247.582 43.1598 247.771 42.916 248.033 42.7408C248.296 42.5632 248.61 42.4744 248.974 42.4744C249.344 42.4744 249.655 42.5644 249.908 42.7443C250.164 42.9219 250.344 43.1645 250.448 43.4723H250.505C250.626 43.1693 250.829 42.9278 251.116 42.7479C251.405 42.5656 251.747 42.4744 252.142 42.4744C252.644 42.4744 253.054 42.633 253.371 42.9503C253.688 43.2675 253.847 43.7304 253.847 44.3388V48H252.558V44.5376C252.558 44.1991 252.468 43.9517 252.288 43.7955C252.108 43.6368 251.888 43.5575 251.627 43.5575C251.317 43.5575 251.074 43.6546 250.899 43.8487C250.726 44.0405 250.64 44.2902 250.64 44.598V48H249.379V44.4844C249.379 44.2027 249.294 43.9777 249.124 43.8097C248.955 43.6416 248.735 43.5575 248.463 43.5575C248.278 43.5575 248.11 43.6049 247.959 43.6996C247.807 43.7919 247.687 43.9233 247.597 44.0938C247.507 44.2618 247.462 44.4583 247.462 44.6832V48H246.176ZM255.151 48V42.5455H256.379V43.4723H256.443C256.557 43.1598 256.745 42.916 257.008 42.7408C257.271 42.5632 257.584 42.4744 257.949 42.4744C258.318 42.4744 258.63 42.5644 258.883 42.7443C259.139 42.9219 259.319 43.1645 259.423 43.4723H259.48C259.6 43.1693 259.804 42.9278 260.09 42.7479C260.379 42.5656 260.721 42.4744 261.117 42.4744C261.619 42.4744 262.028 42.633 262.345 42.9503C262.663 43.2675 262.821 43.7304 262.821 44.3388V48H261.532V44.5376C261.532 44.1991 261.442 43.9517 261.262 43.7955C261.082 43.6368 260.862 43.5575 260.602 43.5575C260.292 43.5575 260.049 43.6546 259.874 43.8487C259.701 44.0405 259.615 44.2902 259.615 44.598V48H258.354V44.4844C258.354 44.2027 258.269 43.9777 258.098 43.8097C257.93 43.6416 257.71 43.5575 257.438 43.5575C257.253 43.5575 257.085 43.6049 256.933 43.6996C256.782 43.7919 256.661 43.9233 256.571 44.0938C256.481 44.2618 256.436 44.4583 256.436 44.6832V48H255.151ZM267.602 45.706V42.5455H268.887V48H267.641V47.0305H267.584C267.461 47.3359 267.259 47.5857 266.977 47.7798C266.698 47.974 266.353 48.071 265.944 48.071C265.586 48.071 265.27 47.9917 264.995 47.8331C264.723 47.6721 264.51 47.4389 264.356 47.1335C264.202 46.8258 264.125 46.4541 264.125 46.0185V42.5455H265.411V45.8196C265.411 46.1652 265.506 46.4399 265.695 46.6435C265.884 46.8471 266.133 46.9489 266.441 46.9489C266.63 46.9489 266.814 46.9027 266.991 46.8104C267.169 46.718 267.314 46.5807 267.428 46.3984C267.544 46.2138 267.602 45.983 267.602 45.706ZM271.495 44.804V48H270.209V42.5455H271.438V43.4723H271.502C271.627 43.1669 271.827 42.9242 272.102 42.7443C272.379 42.5644 272.721 42.4744 273.128 42.4744C273.505 42.4744 273.833 42.5549 274.112 42.7159C274.394 42.8769 274.612 43.1101 274.765 43.4155C274.922 43.7209 274.999 44.0914 274.996 44.527V48H273.711V44.7259C273.711 44.3613 273.616 44.076 273.427 43.87C273.24 43.6641 272.98 43.5611 272.649 43.5611C272.424 43.5611 272.224 43.6108 272.049 43.7102C271.876 43.8073 271.74 43.9482 271.64 44.1328C271.543 44.3175 271.495 44.5412 271.495 44.804ZM276.303 48V42.5455H277.589V48H276.303ZM276.949 41.7713C276.746 41.7713 276.571 41.7038 276.424 41.5689C276.277 41.4316 276.204 41.267 276.204 41.0753C276.204 40.8812 276.277 40.7166 276.424 40.5817C276.571 40.4444 276.746 40.3757 276.949 40.3757C277.155 40.3757 277.331 40.4444 277.475 40.5817C277.622 40.7166 277.695 40.8812 277.695 41.0753C277.695 41.267 277.622 41.4316 277.475 41.5689C277.331 41.7038 277.155 41.7713 276.949 41.7713ZM281.634 42.5455V43.5398H278.499V42.5455H281.634ZM279.273 41.2386H280.558V46.3594C280.558 46.5322 280.584 46.6648 280.636 46.7571C280.691 46.8471 280.762 46.9086 280.849 46.9418C280.937 46.9749 281.034 46.9915 281.141 46.9915C281.221 46.9915 281.295 46.9856 281.361 46.9737C281.429 46.9619 281.482 46.9512 281.517 46.9418L281.734 47.9467C281.665 47.9704 281.567 47.9964 281.439 48.0249C281.313 48.0533 281.16 48.0698 280.977 48.0746C280.655 48.084 280.365 48.0355 280.107 47.929C279.849 47.8201 279.644 47.652 279.493 47.4247C279.344 47.1974 279.27 46.9134 279.273 46.5724V41.2386ZM283.508 50.0455C283.333 50.0455 283.171 50.0313 283.022 50.0028C282.875 49.9768 282.758 49.946 282.67 49.9105L282.969 48.9091C283.156 48.9635 283.323 48.9896 283.469 48.9872C283.616 48.9848 283.745 48.9387 283.856 48.8487C283.97 48.7611 284.066 48.6143 284.144 48.4084L284.254 48.1136L282.276 42.5455H283.64L284.897 46.6648H284.954L286.214 42.5455H287.581L285.398 48.6605C285.296 48.9493 285.161 49.1967 284.993 49.4027C284.825 49.611 284.619 49.7696 284.375 49.8786C284.133 49.9898 283.845 50.0455 283.508 50.0455ZM297.507 44.3636C297.507 45.1473 297.36 45.8184 297.067 46.3771C296.775 46.9335 296.378 47.3596 295.873 47.6555C295.372 47.9515 294.802 48.0994 294.165 48.0994C293.528 48.0994 292.958 47.9515 292.454 47.6555C291.952 47.3572 291.554 46.9299 291.26 46.3736C290.969 45.8149 290.824 45.1449 290.824 44.3636C290.824 43.58 290.969 42.91 291.26 42.3537C291.554 41.795 291.952 41.3677 292.454 41.0717C292.958 40.7758 293.528 40.6278 294.165 40.6278C294.802 40.6278 295.372 40.7758 295.873 41.0717C296.378 41.3677 296.775 41.795 297.067 42.3537C297.36 42.91 297.507 43.58 297.507 44.3636ZM296.182 44.3636C296.182 43.812 296.096 43.3468 295.923 42.968C295.753 42.5869 295.516 42.2992 295.213 42.1051C294.91 41.9086 294.561 41.8104 294.165 41.8104C293.77 41.8104 293.421 41.9086 293.118 42.1051C292.815 42.2992 292.577 42.5869 292.404 42.968C292.233 43.3468 292.148 43.812 292.148 44.3636C292.148 44.9152 292.233 45.3816 292.404 45.7628C292.577 46.1416 292.815 46.4292 293.118 46.6257C293.421 46.8198 293.77 46.9169 294.165 46.9169C294.561 46.9169 294.91 46.8198 295.213 46.6257C295.516 46.4292 295.753 46.1416 295.923 45.7628C296.096 45.3816 296.182 44.9152 296.182 44.3636ZM302.172 45.706V42.5455H303.458V48H302.211V47.0305H302.154C302.031 47.3359 301.829 47.5857 301.547 47.7798C301.268 47.974 300.923 48.071 300.514 48.071C300.156 48.071 299.84 47.9917 299.566 47.8331C299.293 47.6721 299.08 47.4389 298.926 47.1335C298.773 46.8258 298.696 46.4541 298.696 46.0185V42.5455H299.981V45.8196C299.981 46.1652 300.076 46.4399 300.265 46.6435C300.455 46.8471 300.703 46.9489 301.011 46.9489C301.2 46.9489 301.384 46.9027 301.561 46.8104C301.739 46.718 301.885 46.5807 301.998 46.3984C302.114 46.2138 302.172 45.983 302.172 45.706ZM307.503 42.5455V43.5398H304.368V42.5455H307.503ZM305.142 41.2386H306.427V46.3594C306.427 46.5322 306.453 46.6648 306.506 46.7571C306.56 46.8471 306.631 46.9086 306.719 46.9418C306.806 46.9749 306.903 46.9915 307.01 46.9915C307.09 46.9915 307.164 46.9856 307.23 46.9737C307.299 46.9619 307.351 46.9512 307.386 46.9418L307.603 47.9467C307.534 47.9704 307.436 47.9964 307.308 48.0249C307.183 48.0533 307.029 48.0698 306.846 48.0746C306.524 48.084 306.234 48.0355 305.976 47.929C305.718 47.8201 305.514 47.652 305.362 47.4247C305.213 47.1974 305.14 46.9134 305.142 46.5724V41.2386ZM308.578 48V42.5455H309.825V43.4545H309.882C309.981 43.1397 310.152 42.897 310.393 42.7266C310.637 42.5537 310.915 42.4673 311.228 42.4673C311.299 42.4673 311.378 42.4709 311.466 42.478C311.556 42.4827 311.63 42.491 311.689 42.5028V43.6854C311.635 43.6664 311.548 43.6499 311.43 43.6357C311.314 43.6191 311.202 43.6108 311.093 43.6108C310.858 43.6108 310.648 43.6617 310.461 43.7635C310.276 43.8629 310.13 44.0014 310.024 44.179C309.917 44.3565 309.864 44.5613 309.864 44.7933V48H308.578ZM314.733 48.1065C314.187 48.1065 313.714 47.9929 313.317 47.7656C312.921 47.536 312.617 47.2116 312.404 46.7926C312.191 46.3712 312.084 45.8752 312.084 45.3047C312.084 44.7436 312.191 44.2512 312.404 43.8274C312.619 43.4013 312.92 43.0698 313.306 42.8331C313.692 42.594 314.145 42.4744 314.666 42.4744C315.002 42.4744 315.319 42.5289 315.618 42.6378C315.918 42.7443 316.184 42.91 316.413 43.1349C316.645 43.3598 316.827 43.6463 316.96 43.9943C317.093 44.34 317.159 44.7519 317.159 45.2301V45.6243H312.688V44.7578H315.927C315.924 44.5116 315.871 44.2926 315.767 44.1009C315.663 43.9067 315.517 43.754 315.33 43.6428C315.145 43.5315 314.93 43.4759 314.684 43.4759C314.421 43.4759 314.19 43.5398 313.991 43.6676C313.792 43.7931 313.637 43.9588 313.526 44.1648C313.417 44.3684 313.362 44.5921 313.359 44.8359V45.5923C313.359 45.9096 313.417 46.1818 313.533 46.4091C313.649 46.634 313.811 46.8068 314.02 46.9276C314.228 47.0459 314.472 47.1051 314.751 47.1051C314.938 47.1051 315.108 47.0791 315.259 47.027C315.411 46.9725 315.542 46.8932 315.653 46.7891C315.765 46.6849 315.849 46.5559 315.905 46.402L317.106 46.5369C317.03 46.8542 316.885 47.1312 316.672 47.3679C316.462 47.6023 316.192 47.7846 315.863 47.9148C315.534 48.0426 315.157 48.1065 314.733 48.1065ZM319.816 48.1101C319.47 48.1101 319.159 48.0485 318.882 47.9254C318.607 47.8 318.39 47.6153 318.229 47.3714C318.07 47.1276 317.991 46.8269 317.991 46.4695C317.991 46.1617 318.048 45.9072 318.161 45.706C318.275 45.5047 318.43 45.3438 318.626 45.223C318.823 45.1023 319.044 45.0111 319.29 44.9496C319.539 44.8857 319.796 44.8395 320.061 44.8111C320.381 44.7779 320.64 44.7483 320.839 44.7223C321.038 44.6939 321.182 44.6513 321.272 44.5945C321.364 44.5353 321.411 44.4441 321.411 44.321V44.2997C321.411 44.0322 321.331 43.825 321.173 43.6783C321.014 43.5315 320.786 43.4581 320.487 43.4581C320.172 43.4581 319.923 43.5268 319.738 43.6641C319.556 43.8014 319.433 43.9635 319.369 44.1506L318.168 43.9801C318.263 43.6487 318.419 43.3717 318.637 43.1491C318.855 42.9242 319.121 42.7562 319.436 42.6449C319.751 42.5312 320.099 42.4744 320.48 42.4744C320.743 42.4744 321.004 42.5052 321.265 42.5668C321.525 42.6283 321.763 42.7301 321.979 42.8722C322.194 43.0118 322.367 43.2024 322.497 43.4439C322.63 43.6854 322.696 43.9872 322.696 44.3494V48H321.46V47.2507H321.418C321.339 47.4022 321.229 47.5443 321.087 47.6768C320.948 47.8071 320.771 47.9124 320.558 47.9929C320.348 48.071 320.1 48.1101 319.816 48.1101ZM320.15 47.1655C320.408 47.1655 320.632 47.1146 320.821 47.0128C321.01 46.9086 321.156 46.7713 321.258 46.6009C321.362 46.4304 321.414 46.2446 321.414 46.0433V45.4006C321.374 45.4337 321.305 45.4645 321.208 45.4929C321.113 45.5213 321.007 45.5462 320.888 45.5675C320.77 45.5888 320.653 45.6077 320.537 45.6243C320.421 45.6409 320.32 45.6551 320.235 45.6669C320.043 45.6929 319.872 45.7356 319.72 45.7947C319.569 45.8539 319.449 45.9368 319.362 46.0433C319.274 46.1475 319.23 46.2824 319.23 46.4482C319.23 46.6849 319.317 46.8636 319.489 46.9844C319.662 47.1051 319.882 47.1655 320.15 47.1655ZM326.368 48.1065C325.823 48.1065 325.356 47.987 324.965 47.7479C324.577 47.5088 324.277 47.1785 324.067 46.7571C323.858 46.3333 323.754 45.8456 323.754 45.294C323.754 44.7401 323.861 44.2512 324.074 43.8274C324.287 43.4013 324.588 43.0698 324.976 42.8331C325.366 42.594 325.828 42.4744 326.361 42.4744C326.804 42.4744 327.195 42.5561 327.536 42.7195C327.879 42.8804 328.153 43.1089 328.357 43.4048C328.56 43.6984 328.676 44.0417 328.705 44.4347H327.476C327.426 44.1719 327.308 43.9529 327.121 43.7777C326.936 43.6001 326.689 43.5114 326.379 43.5114C326.116 43.5114 325.885 43.5824 325.686 43.7244C325.487 43.8641 325.332 44.0653 325.221 44.3281C325.112 44.5909 325.058 44.9058 325.058 45.2727C325.058 45.6444 325.112 45.964 325.221 46.2315C325.33 46.4967 325.482 46.7015 325.679 46.8459C325.878 46.9879 326.111 47.0589 326.379 47.0589C326.568 47.0589 326.737 47.0234 326.886 46.9524C327.038 46.879 327.165 46.7737 327.266 46.6364C327.368 46.4991 327.438 46.3321 327.476 46.1357H328.705C328.674 46.5215 328.56 46.8636 328.364 47.1619C328.167 47.4579 327.9 47.6899 327.561 47.858C327.223 48.0237 326.825 48.1065 326.368 48.1065ZM331.046 44.804V48H329.76V40.7273H331.017V43.4723H331.081C331.209 43.1645 331.407 42.9219 331.674 42.7443C331.944 42.5644 332.287 42.4744 332.704 42.4744C333.083 42.4744 333.413 42.5537 333.695 42.7124C333.977 42.871 334.194 43.103 334.348 43.4084C334.504 43.7138 334.583 44.0866 334.583 44.527V48H333.297V44.7259C333.297 44.3589 333.202 44.0736 333.013 43.87C332.826 43.6641 332.563 43.5611 332.225 43.5611C331.997 43.5611 331.794 43.6108 331.614 43.7102C331.436 43.8073 331.297 43.9482 331.195 44.1328C331.095 44.3175 331.046 44.5412 331.046 44.804Z" fill="white"/>
<path d="M143.651 67H142.245L144.805 59.7273H146.432L148.996 67H147.589L145.647 61.2188H145.59L143.651 67ZM143.697 64.1484H147.533V65.2067H143.697V64.1484ZM152.591 61.5455V62.5398H149.367V61.5455H152.591ZM150.173 67V61.0305C150.173 60.6636 150.249 60.3582 150.4 60.1143C150.554 59.8705 150.76 59.6882 151.018 59.5675C151.276 59.4467 151.563 59.3864 151.877 59.3864C152.1 59.3864 152.298 59.4041 152.471 59.4396C152.643 59.4751 152.771 59.5071 152.854 59.5355L152.598 60.5298C152.544 60.5133 152.475 60.4967 152.392 60.4801C152.31 60.4612 152.217 60.4517 152.115 60.4517C151.876 60.4517 151.707 60.5097 151.608 60.6257C151.511 60.7393 151.462 60.9027 151.462 61.1158V67H150.173ZM156.322 61.5455V62.5398H153.186V61.5455H156.322ZM153.96 60.2386H155.246V65.3594C155.246 65.5322 155.272 65.6648 155.324 65.7571C155.378 65.8471 155.449 65.9086 155.537 65.9418C155.625 65.9749 155.722 65.9915 155.828 65.9915C155.909 65.9915 155.982 65.9856 156.048 65.9737C156.117 65.9619 156.169 65.9512 156.205 65.9418L156.421 66.9467C156.353 66.9704 156.254 66.9964 156.126 67.0249C156.001 67.0533 155.847 67.0698 155.665 67.0746C155.343 67.084 155.053 67.0355 154.795 66.929C154.537 66.8201 154.332 66.652 154.18 66.4247C154.031 66.1974 153.958 65.9134 153.96 65.5724V60.2386ZM159.753 67.1065C159.206 67.1065 158.734 66.9929 158.336 66.7656C157.941 66.536 157.637 66.2116 157.423 65.7926C157.21 65.3712 157.104 64.8752 157.104 64.3047C157.104 63.7436 157.21 63.2512 157.423 62.8274C157.639 62.4013 157.94 62.0698 158.325 61.8331C158.711 61.594 159.165 61.4744 159.686 61.4744C160.022 61.4744 160.339 61.5289 160.637 61.6378C160.938 61.7443 161.203 61.91 161.433 62.1349C161.665 62.3598 161.847 62.6463 161.98 62.9943C162.112 63.34 162.178 63.7519 162.178 64.2301V64.6243H157.708V63.7578H160.946C160.944 63.5116 160.891 63.2926 160.786 63.1009C160.682 62.9067 160.537 62.754 160.35 62.6428C160.165 62.5315 159.95 62.4759 159.703 62.4759C159.441 62.4759 159.21 62.5398 159.011 62.6676C158.812 62.7931 158.657 62.9588 158.546 63.1648C158.437 63.3684 158.381 63.5921 158.379 63.8359V64.5923C158.379 64.9096 158.437 65.1818 158.553 65.4091C158.669 65.634 158.831 65.8068 159.039 65.9276C159.248 66.0459 159.491 66.1051 159.771 66.1051C159.958 66.1051 160.127 66.0791 160.279 66.027C160.43 65.9725 160.561 65.8932 160.673 65.7891C160.784 65.6849 160.868 65.5559 160.925 65.402L162.125 65.5369C162.049 65.8542 161.905 66.1312 161.692 66.3679C161.481 66.6023 161.211 66.7846 160.882 66.9148C160.553 67.0426 160.177 67.1065 159.753 67.1065ZM163.266 67V61.5455H164.512V62.4545H164.569C164.669 62.1397 164.839 61.897 165.081 61.7266C165.324 61.5537 165.603 61.4673 165.915 61.4673C165.986 61.4673 166.065 61.4709 166.153 61.478C166.243 61.4827 166.318 61.491 166.377 61.5028V62.6854C166.322 62.6664 166.236 62.6499 166.118 62.6357C166.002 62.6191 165.889 62.6108 165.78 62.6108C165.546 62.6108 165.335 62.6617 165.148 62.7635C164.963 62.8629 164.818 63.0014 164.711 63.179C164.605 63.3565 164.551 63.5613 164.551 63.7933V67H163.266ZM173.721 61.7266C173.687 61.4164 173.548 61.175 173.301 61.0021C173.058 60.8293 172.74 60.7429 172.35 60.7429C172.075 60.7429 171.84 60.7843 171.643 60.8672C171.447 60.95 171.296 61.0625 171.192 61.2045C171.088 61.3466 171.035 61.5088 171.032 61.6911C171.032 61.8426 171.067 61.974 171.135 62.0852C171.206 62.1965 171.302 62.2912 171.423 62.3693C171.544 62.4451 171.677 62.509 171.824 62.5611C171.971 62.6132 172.119 62.657 172.268 62.6925L172.95 62.8629C173.225 62.9268 173.489 63.0133 173.742 63.1222C173.998 63.2311 174.226 63.3684 174.427 63.5341C174.631 63.6998 174.792 63.8999 174.91 64.1342C175.029 64.3686 175.088 64.6432 175.088 64.9581C175.088 65.3842 174.979 65.7595 174.761 66.0838C174.543 66.4058 174.228 66.6579 173.816 66.8402C173.407 67.0201 172.911 67.1101 172.328 67.1101C171.763 67.1101 171.271 67.0225 170.855 66.8473C170.44 66.6721 170.116 66.4164 169.882 66.0803C169.65 65.7441 169.524 65.3345 169.505 64.8516H170.801C170.82 65.1049 170.899 65.3156 171.036 65.4837C171.173 65.6518 171.352 65.7772 171.572 65.8601C171.795 65.9429 172.043 65.9844 172.318 65.9844C172.604 65.9844 172.855 65.9418 173.071 65.8565C173.288 65.7689 173.459 65.6482 173.582 65.4943C173.705 65.3381 173.768 65.1558 173.77 64.9474C173.768 64.758 173.712 64.6018 173.603 64.4787C173.494 64.3532 173.342 64.2491 173.145 64.1662C172.951 64.081 172.724 64.0052 172.463 63.9389L171.636 63.7259C171.037 63.572 170.564 63.3388 170.216 63.0263C169.87 62.7114 169.697 62.2936 169.697 61.7727C169.697 61.3442 169.813 60.969 170.045 60.647C170.279 60.325 170.598 60.0753 171 59.8977C171.403 59.7178 171.859 59.6278 172.368 59.6278C172.884 59.6278 173.336 59.7178 173.724 59.8977C174.115 60.0753 174.421 60.3227 174.644 60.6399C174.866 60.9548 174.981 61.317 174.988 61.7266H173.721ZM178.585 67.1065C178.04 67.1065 177.573 66.987 177.182 66.7479C176.794 66.5088 176.494 66.1785 176.284 65.7571C176.075 65.3333 175.971 64.8456 175.971 64.294C175.971 63.7401 176.078 63.2512 176.291 62.8274C176.504 62.4013 176.804 62.0698 177.193 61.8331C177.583 61.594 178.045 61.4744 178.578 61.4744C179.02 61.4744 179.412 61.5561 179.753 61.7195C180.096 61.8804 180.37 62.1089 180.573 62.4048C180.777 62.6984 180.893 63.0417 180.921 63.4347H179.693C179.643 63.1719 179.525 62.9529 179.338 62.7777C179.153 62.6001 178.905 62.5114 178.595 62.5114C178.333 62.5114 178.102 62.5824 177.903 62.7244C177.704 62.8641 177.549 63.0653 177.438 63.3281C177.329 63.5909 177.274 63.9058 177.274 64.2727C177.274 64.6444 177.329 64.964 177.438 65.2315C177.547 65.4967 177.699 65.7015 177.896 65.8459C178.095 65.9879 178.328 66.0589 178.595 66.0589C178.785 66.0589 178.954 66.0234 179.103 65.9524C179.255 65.879 179.381 65.7737 179.483 65.6364C179.585 65.4991 179.655 65.3321 179.693 65.1357H180.921C180.891 65.5215 180.777 65.8636 180.58 66.1619C180.384 66.4579 180.116 66.6899 179.778 66.858C179.439 67.0237 179.042 67.1065 178.585 67.1065ZM183.262 63.804V67H181.977V59.7273H183.234V62.4723H183.298C183.426 62.1645 183.623 61.9219 183.891 61.7443C184.161 61.5644 184.504 61.4744 184.921 61.4744C185.3 61.4744 185.63 61.5537 185.912 61.7124C186.193 61.871 186.411 62.103 186.565 62.4084C186.721 62.7138 186.799 63.0866 186.799 63.527V67H185.514V63.7259C185.514 63.3589 185.419 63.0736 185.23 62.87C185.043 62.6641 184.78 62.5611 184.441 62.5611C184.214 62.5611 184.011 62.6108 183.831 62.7102C183.653 62.8073 183.513 62.9482 183.412 63.1328C183.312 63.3175 183.262 63.5412 183.262 63.804ZM190.489 67.1065C189.956 67.1065 189.495 66.9893 189.104 66.755C188.713 66.5206 188.41 66.1927 188.195 65.7713C187.982 65.3499 187.875 64.8575 187.875 64.294C187.875 63.7306 187.982 63.237 188.195 62.8132C188.41 62.3894 188.713 62.0604 189.104 61.826C189.495 61.5916 189.956 61.4744 190.489 61.4744C191.022 61.4744 191.483 61.5916 191.874 61.826C192.265 62.0604 192.566 62.3894 192.779 62.8132C192.995 63.237 193.103 63.7306 193.103 64.294C193.103 64.8575 192.995 65.3499 192.779 65.7713C192.566 66.1927 192.265 66.5206 191.874 66.755C191.483 66.9893 191.022 67.1065 190.489 67.1065ZM190.496 66.0767C190.785 66.0767 191.026 65.9974 191.221 65.8388C191.415 65.6778 191.559 65.4624 191.654 65.1925C191.751 64.9226 191.799 64.6219 191.799 64.2905C191.799 63.9567 191.751 63.6548 191.654 63.3849C191.559 63.1127 191.415 62.8961 191.221 62.7351C191.026 62.5741 190.785 62.4936 190.496 62.4936C190.2 62.4936 189.954 62.5741 189.757 62.7351C189.563 62.8961 189.418 63.1127 189.321 63.3849C189.226 63.6548 189.179 63.9567 189.179 64.2905C189.179 64.6219 189.226 64.9226 189.321 65.1925C189.418 65.4624 189.563 65.6778 189.757 65.8388C189.954 65.9974 190.2 66.0767 190.496 66.0767ZM196.573 67.1065C196.04 67.1065 195.579 66.9893 195.188 66.755C194.797 66.5206 194.494 66.1927 194.279 65.7713C194.066 65.3499 193.959 64.8575 193.959 64.294C193.959 63.7306 194.066 63.237 194.279 62.8132C194.494 62.3894 194.797 62.0604 195.188 61.826C195.579 61.5916 196.04 61.4744 196.573 61.4744C197.106 61.4744 197.567 61.5916 197.958 61.826C198.349 62.0604 198.65 62.3894 198.863 62.8132C199.079 63.237 199.187 63.7306 199.187 64.294C199.187 64.8575 199.079 65.3499 198.863 65.7713C198.65 66.1927 198.349 66.5206 197.958 66.755C197.567 66.9893 197.106 67.1065 196.573 67.1065ZM196.58 66.0767C196.869 66.0767 197.11 65.9974 197.305 65.8388C197.499 65.6778 197.643 65.4624 197.738 65.1925C197.835 64.9226 197.883 64.6219 197.883 64.2905C197.883 63.9567 197.835 63.6548 197.738 63.3849C197.643 63.1127 197.499 62.8961 197.305 62.7351C197.11 62.5741 196.869 62.4936 196.58 62.4936C196.284 62.4936 196.038 62.5741 195.841 62.7351C195.647 62.8961 195.502 63.1127 195.405 63.3849C195.31 63.6548 195.263 63.9567 195.263 64.2905C195.263 64.6219 195.31 64.9226 195.405 65.1925C195.502 65.4624 195.647 65.6778 195.841 65.8388C196.038 65.9974 196.284 66.0767 196.58 66.0767ZM201.563 59.7273V67H200.278V59.7273H201.563Z" fill="white"/>
<path d="M312.69 59.7273L314.583 65.4517H314.658L316.547 59.7273H317.996L315.432 67H313.805L311.245 59.7273H312.69ZM320.69 67.1065C320.157 67.1065 319.696 66.9893 319.305 66.755C318.915 66.5206 318.612 66.1927 318.396 65.7713C318.183 65.3499 318.077 64.8575 318.077 64.294C318.077 63.7306 318.183 63.237 318.396 62.8132C318.612 62.3894 318.915 62.0604 319.305 61.826C319.696 61.5916 320.157 61.4744 320.69 61.4744C321.223 61.4744 321.684 61.5916 322.075 61.826C322.466 62.0604 322.768 62.3894 322.981 62.8132C323.196 63.237 323.304 63.7306 323.304 64.294C323.304 64.8575 323.196 65.3499 322.981 65.7713C322.768 66.1927 322.466 66.5206 322.075 66.755C321.684 66.9893 321.223 67.1065 320.69 67.1065ZM320.697 66.0767C320.986 66.0767 321.228 65.9974 321.422 65.8388C321.616 65.6778 321.76 65.4624 321.855 65.1925C321.952 64.9226 322.001 64.6219 322.001 64.2905C322.001 63.9567 321.952 63.6548 321.855 63.3849C321.76 63.1127 321.616 62.8961 321.422 62.7351C321.228 62.5741 320.986 62.4936 320.697 62.4936C320.401 62.4936 320.155 62.5741 319.959 62.7351C319.765 62.8961 319.619 63.1127 319.522 63.3849C319.427 63.6548 319.38 63.9567 319.38 64.2905C319.38 64.6219 319.427 64.9226 319.522 65.1925C319.619 65.4624 319.765 65.6778 319.959 65.8388C320.155 65.9974 320.401 66.0767 320.697 66.0767ZM326.774 67.1065C326.23 67.1065 325.762 66.987 325.371 66.7479C324.983 66.5088 324.684 66.1785 324.473 65.7571C324.265 65.3333 324.161 64.8456 324.161 64.294C324.161 63.7401 324.267 63.2512 324.48 62.8274C324.693 62.4013 324.994 62.0698 325.382 61.8331C325.773 61.594 326.234 61.4744 326.767 61.4744C327.21 61.4744 327.602 61.5561 327.942 61.7195C328.286 61.8804 328.559 62.1089 328.763 62.4048C328.966 62.6984 329.082 63.0417 329.111 63.4347H327.882C327.832 63.1719 327.714 62.9529 327.527 62.7777C327.342 62.6001 327.095 62.5114 326.785 62.5114C326.522 62.5114 326.291 62.5824 326.092 62.7244C325.893 62.8641 325.738 63.0653 325.627 63.3281C325.518 63.5909 325.464 63.9058 325.464 64.2727C325.464 64.6444 325.518 64.964 325.627 65.2315C325.736 65.4967 325.889 65.7015 326.085 65.8459C326.284 65.9879 326.517 66.0589 326.785 66.0589C326.974 66.0589 327.143 66.0234 327.293 65.9524C327.444 65.879 327.571 65.7737 327.673 65.6364C327.774 65.4991 327.844 65.3321 327.882 65.1357H329.111C329.08 65.5215 328.966 65.8636 328.77 66.1619C328.573 66.4579 328.306 66.6899 327.967 66.858C327.629 67.0237 327.231 67.1065 326.774 67.1065ZM331.736 67.1101C331.39 67.1101 331.079 67.0485 330.802 66.9254C330.527 66.8 330.31 66.6153 330.149 66.3714C329.99 66.1276 329.911 65.8269 329.911 65.4695C329.911 65.1617 329.968 64.9072 330.081 64.706C330.195 64.5047 330.35 64.3438 330.546 64.223C330.743 64.1023 330.964 64.0111 331.21 63.9496C331.459 63.8857 331.716 63.8395 331.981 63.8111C332.301 63.7779 332.56 63.7483 332.759 63.7223C332.958 63.6939 333.102 63.6513 333.192 63.5945C333.284 63.5353 333.33 63.4441 333.33 63.321V63.2997C333.33 63.0322 333.251 62.825 333.093 62.6783C332.934 62.5315 332.705 62.4581 332.407 62.4581C332.092 62.4581 331.843 62.5268 331.658 62.6641C331.476 62.8014 331.352 62.9635 331.289 63.1506L330.088 62.9801C330.183 62.6487 330.339 62.3717 330.557 62.1491C330.775 61.9242 331.041 61.7562 331.356 61.6449C331.671 61.5312 332.019 61.4744 332.4 61.4744C332.663 61.4744 332.924 61.5052 333.185 61.5668C333.445 61.6283 333.683 61.7301 333.899 61.8722C334.114 62.0118 334.287 62.2024 334.417 62.4439C334.55 62.6854 334.616 62.9872 334.616 63.3494V67H333.38V66.2507H333.338C333.259 66.4022 333.149 66.5443 333.007 66.6768C332.868 66.8071 332.691 66.9124 332.478 66.9929C332.267 67.071 332.02 67.1101 331.736 67.1101ZM332.07 66.1655C332.328 66.1655 332.552 66.1146 332.741 66.0128C332.93 65.9086 333.076 65.7713 333.178 65.6009C333.282 65.4304 333.334 65.2446 333.334 65.0433V64.4006C333.294 64.4337 333.225 64.4645 333.128 64.4929C333.033 64.5213 332.927 64.5462 332.808 64.5675C332.69 64.5888 332.573 64.6077 332.457 64.6243C332.341 64.6409 332.24 64.6551 332.155 64.6669C331.963 64.6929 331.792 64.7356 331.64 64.7947C331.489 64.8539 331.369 64.9368 331.281 65.0433C331.194 65.1475 331.15 65.2824 331.15 65.4482C331.15 65.6849 331.236 65.8636 331.409 65.9844C331.582 66.1051 331.802 66.1655 332.07 66.1655ZM338.632 61.5455V62.5398H335.497V61.5455H338.632ZM336.271 60.2386H337.556V65.3594C337.556 65.5322 337.582 65.6648 337.634 65.7571C337.689 65.8471 337.76 65.9086 337.847 65.9418C337.935 65.9749 338.032 65.9915 338.139 65.9915C338.219 65.9915 338.293 65.9856 338.359 65.9737C338.427 65.9619 338.48 65.9512 338.515 65.9418L338.732 66.9467C338.663 66.9704 338.565 66.9964 338.437 67.0249C338.311 67.0533 338.158 67.0698 337.975 67.0746C337.653 67.084 337.363 67.0355 337.105 66.929C336.847 66.8201 336.642 66.652 336.491 66.4247C336.342 66.1974 336.268 65.9134 336.271 65.5724V60.2386ZM339.707 67V61.5455H340.993V67H339.707ZM340.354 60.7713C340.15 60.7713 339.975 60.7038 339.828 60.5689C339.681 60.4316 339.608 60.267 339.608 60.0753C339.608 59.8812 339.681 59.7166 339.828 59.5817C339.975 59.4444 340.15 59.3757 340.354 59.3757C340.56 59.3757 340.735 59.4444 340.879 59.5817C341.026 59.7166 341.099 59.8812 341.099 60.0753C341.099 60.267 341.026 60.4316 340.879 60.5689C340.735 60.7038 340.56 60.7713 340.354 60.7713ZM344.694 67.1065C344.161 67.1065 343.7 66.9893 343.309 66.755C342.919 66.5206 342.615 66.1927 342.4 65.7713C342.187 65.3499 342.08 64.8575 342.08 64.294C342.08 63.7306 342.187 63.237 342.4 62.8132C342.615 62.3894 342.919 62.0604 343.309 61.826C343.7 61.5916 344.161 61.4744 344.694 61.4744C345.227 61.4744 345.688 61.5916 346.079 61.826C346.47 62.0604 346.771 62.3894 346.985 62.8132C347.2 63.237 347.308 63.7306 347.308 64.294C347.308 64.8575 347.2 65.3499 346.985 65.7713C346.771 66.1927 346.47 66.5206 346.079 66.755C345.688 66.9893 345.227 67.1065 344.694 67.1065ZM344.701 66.0767C344.99 66.0767 345.231 65.9974 345.426 65.8388C345.62 65.6778 345.764 65.4624 345.859 65.1925C345.956 64.9226 346.004 64.6219 346.004 64.2905C346.004 63.9567 345.956 63.6548 345.859 63.3849C345.764 63.1127 345.62 62.8961 345.426 62.7351C345.231 62.5741 344.99 62.4936 344.701 62.4936C344.405 62.4936 344.159 62.5741 343.963 62.7351C343.768 62.8961 343.623 63.1127 343.526 63.3849C343.431 63.6548 343.384 63.9567 343.384 64.2905C343.384 64.6219 343.431 64.9226 343.526 65.1925C343.623 65.4624 343.768 65.6778 343.963 65.8388C344.159 65.9974 344.405 66.0767 344.701 66.0767ZM349.684 63.804V67H348.399V61.5455H349.627V62.4723H349.691C349.817 62.1669 350.017 61.9242 350.292 61.7443C350.569 61.5644 350.911 61.4744 351.318 61.4744C351.694 61.4744 352.022 61.5549 352.301 61.7159C352.583 61.8769 352.801 62.1101 352.955 62.4155C353.111 62.7209 353.188 63.0914 353.186 63.527V67H351.9V63.7259C351.9 63.3613 351.806 63.076 351.616 62.87C351.429 62.6641 351.17 62.5611 350.838 62.5611C350.614 62.5611 350.413 62.6108 350.238 62.7102C350.065 62.8073 349.929 62.9482 349.83 63.1328C349.733 63.3175 349.684 63.5412 349.684 63.804ZM356.062 67.1101C355.717 67.1101 355.405 67.0485 355.128 66.9254C354.854 66.8 354.636 66.6153 354.475 66.3714C354.316 66.1276 354.237 65.8269 354.237 65.4695C354.237 65.1617 354.294 64.9072 354.407 64.706C354.521 64.5047 354.676 64.3438 354.873 64.223C355.069 64.1023 355.29 64.0111 355.537 63.9496C355.785 63.8857 356.042 63.8395 356.307 63.8111C356.627 63.7779 356.886 63.7483 357.085 63.7223C357.284 63.6939 357.428 63.6513 357.518 63.5945C357.61 63.5353 357.657 63.4441 357.657 63.321V63.2997C357.657 63.0322 357.577 62.825 357.419 62.6783C357.26 62.5315 357.032 62.4581 356.733 62.4581C356.418 62.4581 356.169 62.5268 355.984 62.6641C355.802 62.8014 355.679 62.9635 355.615 63.1506L354.414 62.9801C354.509 62.6487 354.665 62.3717 354.883 62.1491C355.101 61.9242 355.367 61.7562 355.682 61.6449C355.997 61.5312 356.345 61.4744 356.726 61.4744C356.989 61.4744 357.251 61.5052 357.511 61.5668C357.771 61.6283 358.009 61.7301 358.225 61.8722C358.44 62.0118 358.613 62.2024 358.743 62.4439C358.876 62.6854 358.942 62.9872 358.942 63.3494V67H357.706V66.2507H357.664C357.586 66.4022 357.475 66.5443 357.333 66.6768C357.194 66.8071 357.017 66.9124 356.804 66.9929C356.594 67.071 356.346 67.1101 356.062 67.1101ZM356.396 66.1655C356.654 66.1655 356.878 66.1146 357.067 66.0128C357.257 65.9086 357.402 65.7713 357.504 65.6009C357.608 65.4304 357.66 65.2446 357.66 65.0433V64.4006C357.62 64.4337 357.551 64.4645 357.454 64.4929C357.359 64.5213 357.253 64.5462 357.135 64.5675C357.016 64.5888 356.899 64.6077 356.783 64.6243C356.667 64.6409 356.566 64.6551 356.481 64.6669C356.289 64.6929 356.118 64.7356 355.966 64.7947C355.815 64.8539 355.695 64.9368 355.608 65.0433C355.52 65.1475 355.476 65.2824 355.476 65.4482C355.476 65.6849 355.563 65.8636 355.735 65.9844C355.908 66.1051 356.128 66.1655 356.396 66.1655ZM361.52 59.7273V67H360.235V59.7273H361.52ZM365.06 60.8317V59.7273H370.862V60.8317H368.615V67H367.308V60.8317H365.06ZM371.358 67V61.5455H372.604V62.4545H372.661C372.76 62.1397 372.931 61.897 373.172 61.7266C373.416 61.5537 373.694 61.4673 374.007 61.4673C374.078 61.4673 374.157 61.4709 374.245 61.478C374.335 61.4827 374.409 61.491 374.469 61.5028V62.6854C374.414 62.6664 374.328 62.6499 374.209 62.6357C374.093 62.6191 373.981 62.6108 373.872 62.6108C373.638 62.6108 373.427 62.6617 373.24 62.7635C373.055 62.8629 372.91 63.0014 372.803 63.179C372.697 63.3565 372.643 63.5613 372.643 63.7933V67H371.358ZM376.795 67.1101C376.449 67.1101 376.138 67.0485 375.861 66.9254C375.586 66.8 375.368 66.6153 375.207 66.3714C375.049 66.1276 374.969 65.8269 374.969 65.4695C374.969 65.1617 375.026 64.9072 375.14 64.706C375.253 64.5047 375.408 64.3438 375.605 64.223C375.801 64.1023 376.023 64.0111 376.269 63.9496C376.518 63.8857 376.774 63.8395 377.04 63.8111C377.359 63.7779 377.618 63.7483 377.817 63.7223C378.016 63.6939 378.161 63.6513 378.251 63.5945C378.343 63.5353 378.389 63.4441 378.389 63.321V63.2997C378.389 63.0322 378.31 62.825 378.151 62.6783C377.992 62.5315 377.764 62.4581 377.466 62.4581C377.151 62.4581 376.901 62.5268 376.716 62.6641C376.534 62.8014 376.411 62.9635 376.347 63.1506L375.147 62.9801C375.242 62.6487 375.398 62.3717 375.616 62.1491C375.833 61.9242 376.1 61.7562 376.415 61.6449C376.729 61.5312 377.077 61.4744 377.459 61.4744C377.721 61.4744 377.983 61.5052 378.243 61.5668C378.504 61.6283 378.742 61.7301 378.957 61.8722C379.173 62.0118 379.345 62.2024 379.476 62.4439C379.608 62.6854 379.675 62.9872 379.675 63.3494V67H378.439V66.2507H378.396C378.318 66.4022 378.208 66.5443 378.066 66.6768C377.926 66.8071 377.75 66.9124 377.537 66.9929C377.326 67.071 377.079 67.1101 376.795 67.1101ZM377.128 66.1655C377.386 66.1655 377.61 66.1146 377.8 66.0128C377.989 65.9086 378.135 65.7713 378.236 65.6009C378.34 65.4304 378.393 65.2446 378.393 65.0433V64.4006C378.352 64.4337 378.284 64.4645 378.187 64.4929C378.092 64.5213 377.985 64.5462 377.867 64.5675C377.749 64.5888 377.631 64.6077 377.515 64.6243C377.399 64.6409 377.299 64.6551 377.214 64.6669C377.022 64.6929 376.85 64.7356 376.699 64.7947C376.547 64.8539 376.428 64.9368 376.34 65.0433C376.252 65.1475 376.209 65.2824 376.209 65.4482C376.209 65.6849 376.295 65.8636 376.468 65.9844C376.641 66.1051 376.861 66.1655 377.128 66.1655ZM380.967 67V61.5455H382.253V67H380.967ZM381.613 60.7713C381.41 60.7713 381.235 60.7038 381.088 60.5689C380.941 60.4316 380.868 60.267 380.868 60.0753C380.868 59.8812 380.941 59.7166 381.088 59.5817C381.235 59.4444 381.41 59.3757 381.613 59.3757C381.819 59.3757 381.995 59.4444 382.139 59.5817C382.286 59.7166 382.359 59.8812 382.359 60.0753C382.359 60.267 382.286 60.4316 382.139 60.5689C381.995 60.7038 381.819 60.7713 381.613 60.7713ZM384.86 63.804V67H383.575V61.5455H384.803V62.4723H384.867C384.993 62.1669 385.193 61.9242 385.467 61.7443C385.744 61.5644 386.086 61.4744 386.494 61.4744C386.87 61.4744 387.198 61.5549 387.477 61.7159C387.759 61.8769 387.977 62.1101 388.131 62.4155C388.287 62.7209 388.364 63.0914 388.362 63.527V67H387.076V63.7259C387.076 63.3613 386.981 63.076 386.792 62.87C386.605 62.6641 386.346 62.5611 386.014 62.5611C385.789 62.5611 385.589 62.6108 385.414 62.7102C385.241 62.8073 385.105 62.9482 385.006 63.1328C384.909 63.3175 384.86 63.5412 384.86 63.804ZM389.668 67V61.5455H390.954V67H389.668ZM390.315 60.7713C390.111 60.7713 389.936 60.7038 389.789 60.5689C389.642 60.4316 389.569 60.267 389.569 60.0753C389.569 59.8812 389.642 59.7166 389.789 59.5817C389.936 59.4444 390.111 59.3757 390.315 59.3757C390.521 59.3757 390.696 59.4444 390.84 59.5817C390.987 59.7166 391.06 59.8812 391.06 60.0753C391.06 60.267 390.987 60.4316 390.84 60.5689C390.696 60.7038 390.521 60.7713 390.315 60.7713ZM393.561 63.804V67H392.276V61.5455H393.504V62.4723H393.568C393.694 62.1669 393.894 61.9242 394.169 61.7443C394.445 61.5644 394.788 61.4744 395.195 61.4744C395.571 61.4744 395.899 61.5549 396.178 61.7159C396.46 61.8769 396.678 62.1101 396.832 62.4155C396.988 62.7209 397.065 63.0914 397.063 63.527V67H395.777V63.7259C395.777 63.3613 395.682 63.076 395.493 62.87C395.306 62.6641 395.047 62.5611 394.715 62.5611C394.49 62.5611 394.29 62.6108 394.115 62.7102C393.942 62.8073 393.806 62.9482 393.707 63.1328C393.61 63.3175 393.561 63.5412 393.561 63.804ZM400.742 69.1591C400.28 69.1591 399.883 69.0964 399.552 68.9709C399.221 68.8478 398.954 68.6821 398.753 68.4737C398.552 68.2654 398.412 68.0346 398.334 67.7812L399.492 67.5007C399.544 67.6072 399.619 67.7126 399.719 67.8168C399.818 67.9233 399.952 68.0109 400.12 68.0795C400.291 68.1506 400.505 68.1861 400.763 68.1861C401.128 68.1861 401.429 68.0973 401.669 67.9197C401.908 67.7446 402.027 67.4557 402.027 67.0533V66.0199H401.963C401.897 66.1525 401.8 66.2886 401.672 66.4283C401.547 66.5679 401.38 66.6851 401.171 66.7798C400.965 66.8745 400.706 66.9219 400.394 66.9219C399.975 66.9219 399.595 66.8236 399.254 66.6271C398.915 66.4283 398.645 66.1323 398.444 65.7393C398.245 65.344 398.146 64.8492 398.146 64.255C398.146 63.656 398.245 63.1506 398.444 62.7386C398.645 62.3243 398.916 62.0107 399.257 61.7976C399.598 61.5821 399.978 61.4744 400.397 61.4744C400.717 61.4744 400.98 61.5289 401.186 61.6378C401.394 61.7443 401.56 61.8733 401.683 62.0249C401.806 62.174 401.899 62.3149 401.963 62.4474H402.034V61.5455H403.302V67.0888C403.302 67.5552 403.191 67.9411 402.968 68.2464C402.746 68.5518 402.441 68.7803 402.056 68.9318C401.67 69.0833 401.232 69.1591 400.742 69.1591ZM400.752 65.9134C401.025 65.9134 401.257 65.8471 401.448 65.7145C401.64 65.5819 401.786 65.3913 401.885 65.1428C401.985 64.8942 402.034 64.5959 402.034 64.2479C402.034 63.9046 401.985 63.6039 401.885 63.3459C401.788 63.0878 401.644 62.8878 401.452 62.7457C401.262 62.6013 401.029 62.5291 400.752 62.5291C400.466 62.5291 400.227 62.6037 400.035 62.7528C399.843 62.902 399.699 63.1068 399.602 63.3672C399.505 63.6252 399.456 63.9188 399.456 64.2479C399.456 64.5817 399.505 64.8741 399.602 65.125C399.701 65.3736 399.847 65.5677 400.039 65.7074C400.233 65.8447 400.471 65.9134 400.752 65.9134ZM409.273 67.1065C408.776 67.1065 408.349 67.0166 407.991 66.8366C407.634 66.6567 407.358 66.4141 407.164 66.1087C406.972 65.8009 406.876 65.4541 406.876 65.0682C406.876 64.777 406.935 64.5189 407.054 64.294C407.175 64.0691 407.34 63.8608 407.551 63.669C407.764 63.4773 408.01 63.2867 408.29 63.0973L409.579 62.2202C409.768 62.0971 409.911 61.9669 410.008 61.8295C410.108 61.6922 410.157 61.5312 410.157 61.3466C410.157 61.1903 410.091 61.0424 409.959 60.9027C409.828 60.763 409.648 60.6932 409.419 60.6932C409.265 60.6932 409.129 60.7299 409.01 60.8033C408.894 60.8743 408.803 60.9678 408.737 61.0838C408.673 61.1998 408.641 61.3229 408.641 61.4531C408.641 61.6117 408.685 61.7727 408.773 61.9361C408.863 62.0994 408.979 62.2687 409.121 62.4439C409.265 62.6191 409.419 62.8049 409.582 63.0014L412.995 67H411.603L408.769 63.7543C408.558 63.508 408.355 63.2654 408.158 63.0263C407.964 62.7872 407.804 62.5386 407.679 62.2805C407.556 62.0201 407.494 61.7384 407.494 61.4354C407.494 61.0921 407.573 60.7855 407.732 60.5156C407.891 60.2434 408.112 60.0291 408.396 59.8729C408.683 59.7166 409.018 59.6385 409.401 59.6385C409.785 59.6385 410.114 59.7143 410.388 59.8658C410.663 60.0173 410.875 60.2185 411.024 60.4695C411.173 60.7204 411.248 60.9938 411.248 61.2898C411.248 61.633 411.162 61.9408 410.992 62.2131C410.822 62.483 410.585 62.728 410.282 62.9482L408.812 64.0241C408.57 64.1993 408.397 64.3769 408.293 64.5568C408.189 64.7344 408.137 64.8859 408.137 65.0114C408.137 65.2031 408.185 65.3771 408.282 65.5334C408.38 65.6896 408.516 65.8151 408.691 65.9098C408.868 66.0021 409.076 66.0483 409.312 66.0483C409.573 66.0483 409.83 65.9903 410.083 65.8743C410.336 65.7559 410.567 65.5878 410.775 65.37C410.984 65.1522 411.149 64.8918 411.273 64.5888C411.396 64.2834 411.457 63.9448 411.457 63.5732H412.562C412.562 64.0324 412.511 64.4325 412.409 64.7734C412.307 65.112 412.176 65.3984 412.015 65.6328C411.854 65.8648 411.683 66.0507 411.503 66.1903C411.447 66.2306 411.392 66.2708 411.34 66.3111C411.288 66.3513 411.233 66.3916 411.177 66.4318C410.921 66.6638 410.622 66.8343 410.278 66.9432C409.937 67.0521 409.602 67.1065 409.273 67.1065ZM416.268 67V59.7273H420.998V60.8317H417.586V62.8061H420.753V63.9105H417.586V65.8956H421.027V67H416.268ZM423.571 63.804V67H422.286V61.5455H423.514V62.4723H423.578C423.704 62.1669 423.904 61.9242 424.178 61.7443C424.455 61.5644 424.797 61.4744 425.205 61.4744C425.581 61.4744 425.909 61.5549 426.188 61.7159C426.47 61.8769 426.688 62.1101 426.842 62.4155C426.998 62.7209 427.075 63.0914 427.072 63.527V67H425.787V63.7259C425.787 63.3613 425.692 63.076 425.503 62.87C425.316 62.6641 425.057 62.5611 424.725 62.5611C424.5 62.5611 424.3 62.6108 424.125 62.7102C423.952 62.8073 423.816 62.9482 423.717 63.1328C423.62 63.3175 423.571 63.5412 423.571 63.804ZM431.103 61.5455V62.5398H427.967V61.5455H431.103ZM428.741 60.2386H430.027V65.3594C430.027 65.5322 430.053 65.6648 430.105 65.7571C430.16 65.8471 430.231 65.9086 430.318 65.9418C430.406 65.9749 430.503 65.9915 430.609 65.9915C430.69 65.9915 430.763 65.9856 430.83 65.9737C430.898 65.9619 430.95 65.9512 430.986 65.9418L431.202 66.9467C431.134 66.9704 431.036 66.9964 430.908 67.0249C430.782 67.0533 430.628 67.0698 430.446 67.0746C430.124 67.084 429.834 67.0355 429.576 66.929C429.318 66.8201 429.113 66.652 428.962 66.4247C428.813 66.1974 428.739 65.9134 428.741 65.5724V60.2386ZM432.178 67V61.5455H433.425V62.4545H433.481C433.581 62.1397 433.751 61.897 433.993 61.7266C434.237 61.5537 434.515 61.4673 434.827 61.4673C434.898 61.4673 434.978 61.4709 435.065 61.478C435.155 61.4827 435.23 61.491 435.289 61.5028V62.6854C435.234 62.6664 435.148 62.6499 435.03 62.6357C434.914 62.6191 434.801 62.6108 434.692 62.6108C434.458 62.6108 434.247 62.6617 434.06 62.7635C433.876 62.8629 433.73 63.0014 433.623 63.179C433.517 63.3565 433.464 63.5613 433.464 63.7933V67H432.178ZM438.333 67.1065C437.786 67.1065 437.314 66.9929 436.916 66.7656C436.521 66.536 436.217 66.2116 436.004 65.7926C435.79 65.3712 435.684 64.8752 435.684 64.3047C435.684 63.7436 435.79 63.2512 436.004 62.8274C436.219 62.4013 436.52 62.0698 436.906 61.8331C437.291 61.594 437.745 61.4744 438.266 61.4744C438.602 61.4744 438.919 61.5289 439.217 61.6378C439.518 61.7443 439.783 61.91 440.013 62.1349C440.245 62.3598 440.427 62.6463 440.56 62.9943C440.692 63.34 440.759 63.7519 440.759 64.2301V64.6243H436.288V63.7578H439.526C439.524 63.5116 439.471 63.2926 439.366 63.1009C439.262 62.9067 439.117 62.754 438.93 62.6428C438.745 62.5315 438.53 62.4759 438.283 62.4759C438.021 62.4759 437.79 62.5398 437.591 62.6676C437.392 62.7931 437.237 62.9588 437.126 63.1648C437.017 63.3684 436.961 63.5921 436.959 63.8359V64.5923C436.959 64.9096 437.017 65.1818 437.133 65.4091C437.249 65.634 437.411 65.8068 437.619 65.9276C437.828 66.0459 438.071 66.1051 438.351 66.1051C438.538 66.1051 438.707 66.0791 438.859 66.027C439.01 65.9725 439.142 65.8932 439.253 65.7891C439.364 65.6849 439.448 65.5559 439.505 65.402L440.705 65.5369C440.629 65.8542 440.485 66.1312 440.272 66.3679C440.061 66.6023 439.791 66.7846 439.462 66.9148C439.133 67.0426 438.757 67.1065 438.333 67.1065ZM441.846 69.0455V61.5455H443.11V62.4474H443.185C443.251 62.3149 443.345 62.174 443.465 62.0249C443.586 61.8733 443.749 61.7443 443.955 61.6378C444.161 61.5289 444.424 61.4744 444.744 61.4744C445.165 61.4744 445.545 61.5821 445.884 61.7976C446.225 62.0107 446.494 62.3267 446.693 62.7457C446.895 63.1624 446.995 63.6738 446.995 64.2798C446.995 64.8788 446.897 65.3878 446.7 65.8068C446.504 66.2259 446.236 66.5455 445.898 66.7656C445.559 66.9858 445.176 67.0959 444.747 67.0959C444.435 67.0959 444.176 67.0438 443.97 66.9396C443.764 66.8355 443.598 66.71 443.472 66.5632C443.349 66.4141 443.253 66.2732 443.185 66.1406H443.132V69.0455H441.846ZM443.107 64.2727C443.107 64.6255 443.156 64.9344 443.256 65.1996C443.358 65.4647 443.503 65.6719 443.693 65.821C443.884 65.9678 444.116 66.0412 444.389 66.0412C444.673 66.0412 444.911 65.9654 445.102 65.8139C445.294 65.66 445.439 65.4505 445.536 65.1854C445.635 64.9179 445.685 64.6136 445.685 64.2727C445.685 63.9342 445.636 63.6335 445.539 63.3707C445.442 63.108 445.298 62.902 445.106 62.7528C444.914 62.6037 444.675 62.5291 444.389 62.5291C444.114 62.5291 443.881 62.6013 443.689 62.7457C443.497 62.8902 443.352 63.0926 443.252 63.353C443.155 63.6134 443.107 63.92 443.107 64.2727ZM448.096 67V61.5455H449.343V62.4545H449.399C449.499 62.1397 449.669 61.897 449.911 61.7266C450.155 61.5537 450.433 61.4673 450.745 61.4673C450.816 61.4673 450.896 61.4709 450.983 61.478C451.073 61.4827 451.148 61.491 451.207 61.5028V62.6854C451.152 62.6664 451.066 62.6499 450.948 62.6357C450.832 62.6191 450.719 62.6108 450.61 62.6108C450.376 62.6108 450.165 62.6617 449.978 62.7635C449.794 62.8629 449.648 63.0014 449.541 63.179C449.435 63.3565 449.382 63.5613 449.382 63.7933V67H448.096ZM454.251 67.1065C453.704 67.1065 453.232 66.9929 452.834 66.7656C452.439 66.536 452.135 66.2116 451.922 65.7926C451.708 65.3712 451.602 64.8752 451.602 64.3047C451.602 63.7436 451.708 63.2512 451.922 62.8274C452.137 62.4013 452.438 62.0698 452.824 61.8331C453.209 61.594 453.663 61.4744 454.184 61.4744C454.52 61.4744 454.837 61.5289 455.135 61.6378C455.436 61.7443 455.701 61.91 455.931 62.1349C456.163 62.3598 456.345 62.6463 456.478 62.9943C456.61 63.34 456.676 63.7519 456.676 64.2301V64.6243H452.206V63.7578H455.444C455.442 63.5116 455.389 63.2926 455.284 63.1009C455.18 62.9067 455.035 62.754 454.848 62.6428C454.663 62.5315 454.448 62.4759 454.201 62.4759C453.939 62.4759 453.708 62.5398 453.509 62.6676C453.31 62.7931 453.155 62.9588 453.044 63.1648C452.935 63.3684 452.879 63.5921 452.877 63.8359V64.5923C452.877 64.9096 452.935 65.1818 453.051 65.4091C453.167 65.634 453.329 65.8068 453.537 65.9276C453.746 66.0459 453.989 66.1051 454.269 66.1051C454.456 66.1051 454.625 66.0791 454.777 66.027C454.928 65.9725 455.06 65.8932 455.171 65.7891C455.282 65.6849 455.366 65.5559 455.423 65.402L456.623 65.5369C456.547 65.8542 456.403 66.1312 456.19 66.3679C455.979 66.6023 455.709 66.7846 455.38 66.9148C455.051 67.0426 454.675 67.1065 454.251 67.1065ZM459.05 63.804V67H457.764V61.5455H458.993V62.4723H459.057C459.182 62.1669 459.382 61.9242 459.657 61.7443C459.934 61.5644 460.276 61.4744 460.683 61.4744C461.059 61.4744 461.387 61.5549 461.667 61.7159C461.948 61.8769 462.166 62.1101 462.32 62.4155C462.476 62.7209 462.553 63.0914 462.551 63.527V67H461.265V63.7259C461.265 63.3613 461.171 63.076 460.981 62.87C460.794 62.6641 460.535 62.5611 460.204 62.5611C459.979 62.5611 459.779 62.6108 459.604 62.7102C459.431 62.8073 459.295 62.9482 459.195 63.1328C459.098 63.3175 459.05 63.5412 459.05 63.804ZM466.273 67.1065C465.726 67.1065 465.253 66.9929 464.856 66.7656C464.46 66.536 464.156 66.2116 463.943 65.7926C463.73 65.3712 463.623 64.8752 463.623 64.3047C463.623 63.7436 463.73 63.2512 463.943 62.8274C464.158 62.4013 464.459 62.0698 464.845 61.8331C465.231 61.594 465.684 61.4744 466.205 61.4744C466.541 61.4744 466.858 61.5289 467.157 61.6378C467.457 61.7443 467.723 61.91 467.952 62.1349C468.184 62.3598 468.367 62.6463 468.499 62.9943C468.632 63.34 468.698 63.7519 468.698 64.2301V64.6243H464.227V63.7578H467.466C467.463 63.5116 467.41 63.2926 467.306 63.1009C467.202 62.9067 467.056 62.754 466.869 62.6428C466.684 62.5315 466.469 62.4759 466.223 62.4759C465.96 62.4759 465.729 62.5398 465.53 62.6676C465.331 62.7931 465.176 62.9588 465.065 63.1648C464.956 63.3684 464.901 63.5921 464.898 63.8359V64.5923C464.898 64.9096 464.956 65.1818 465.072 65.4091C465.188 65.634 465.35 65.8068 465.559 65.9276C465.767 66.0459 466.011 66.1051 466.29 66.1051C466.477 66.1051 466.647 66.0791 466.798 66.027C466.95 65.9725 467.081 65.8932 467.192 65.7891C467.304 65.6849 467.388 65.5559 467.444 65.402L468.645 65.5369C468.569 65.8542 468.425 66.1312 468.211 66.3679C468.001 66.6023 467.731 66.7846 467.402 66.9148C467.073 67.0426 466.696 67.1065 466.273 67.1065ZM473.262 64.706V61.5455H474.548V67H473.301V66.0305H473.244C473.121 66.3359 472.919 66.5857 472.637 66.7798C472.358 66.974 472.013 67.071 471.604 67.071C471.246 67.071 470.93 66.9917 470.656 66.8331C470.383 66.6721 470.17 66.4389 470.016 66.1335C469.862 65.8258 469.786 65.4541 469.786 65.0185V61.5455H471.071V64.8196C471.071 65.1652 471.166 65.4399 471.355 65.6435C471.545 65.8471 471.793 65.9489 472.101 65.9489C472.29 65.9489 472.474 65.9027 472.651 65.8104C472.829 65.718 472.974 65.5807 473.088 65.3984C473.204 65.2138 473.262 64.983 473.262 64.706ZM475.869 67V61.5455H477.116V62.4545H477.173C477.272 62.1397 477.443 61.897 477.684 61.7266C477.928 61.5537 478.206 61.4673 478.519 61.4673C478.59 61.4673 478.669 61.4709 478.757 61.478C478.847 61.4827 478.921 61.491 478.98 61.5028V62.6854C478.926 62.6664 478.839 62.6499 478.721 62.6357C478.605 62.6191 478.493 62.6108 478.384 62.6108C478.149 62.6108 477.939 62.6617 477.752 62.7635C477.567 62.8629 477.421 63.0014 477.315 63.179C477.208 63.3565 477.155 63.5613 477.155 63.7933V67H475.869ZM484.145 62.9872L482.974 63.1151C482.94 62.9967 482.882 62.8854 482.8 62.7812C482.719 62.6771 482.61 62.593 482.473 62.5291C482.336 62.4652 482.167 62.4332 481.969 62.4332C481.701 62.4332 481.476 62.4912 481.294 62.6072C481.114 62.7232 481.025 62.8736 481.028 63.0582C481.025 63.2169 481.083 63.3459 481.202 63.4453C481.322 63.5447 481.521 63.6264 481.798 63.6903L482.729 63.8892C483.245 64.0005 483.628 64.1768 483.879 64.4183C484.132 64.6598 484.26 64.9759 484.263 65.3665C484.26 65.7098 484.16 66.0128 483.961 66.2756C483.764 66.536 483.491 66.7396 483.14 66.8864C482.79 67.0331 482.388 67.1065 481.933 67.1065C481.265 67.1065 480.728 66.9669 480.321 66.6875C479.914 66.4058 479.671 66.014 479.593 65.5121L480.846 65.3913C480.903 65.6375 481.024 65.8234 481.209 65.9489C481.393 66.0743 481.634 66.1371 481.93 66.1371C482.235 66.1371 482.48 66.0743 482.665 65.9489C482.852 65.8234 482.945 65.6683 482.945 65.4837C482.945 65.3274 482.885 65.1984 482.764 65.0966C482.646 64.9948 482.461 64.9167 482.21 64.8622L481.28 64.6669C480.756 64.558 480.369 64.3745 480.118 64.1165C479.867 63.8561 479.743 63.527 479.746 63.1293C479.743 62.7931 479.834 62.5019 480.019 62.2557C480.206 62.0071 480.465 61.8153 480.797 61.6804C481.131 61.5431 481.515 61.4744 481.951 61.4744C482.59 61.4744 483.093 61.6106 483.46 61.8828C483.829 62.1551 484.058 62.5232 484.145 62.9872ZM486.608 63.804V67H485.323V59.7273H486.58V62.4723H486.644C486.771 62.1645 486.969 61.9219 487.237 61.7443C487.507 61.5644 487.85 61.4744 488.267 61.4744C488.645 61.4744 488.976 61.5537 489.257 61.7124C489.539 61.871 489.757 62.103 489.911 62.4084C490.067 62.7138 490.145 63.0866 490.145 63.527V67H488.86V63.7259C488.86 63.3589 488.765 63.0736 488.575 62.87C488.388 62.6641 488.126 62.5611 487.787 62.5611C487.56 62.5611 487.356 62.6108 487.176 62.7102C486.999 62.8073 486.859 62.9482 486.757 63.1328C486.658 63.3175 486.608 63.5412 486.608 63.804ZM491.455 67V61.5455H492.741V67H491.455ZM492.102 60.7713C491.898 60.7713 491.723 60.7038 491.576 60.5689C491.429 60.4316 491.356 60.267 491.356 60.0753C491.356 59.8812 491.429 59.7166 491.576 59.5817C491.723 59.4444 491.898 59.3757 492.102 59.3757C492.308 59.3757 492.483 59.4444 492.627 59.5817C492.774 59.7166 492.847 59.8812 492.847 60.0753C492.847 60.267 492.774 60.4316 492.627 60.5689C492.483 60.7038 492.308 60.7713 492.102 60.7713ZM494.063 69.0455V61.5455H495.327V62.4474H495.402C495.468 62.3149 495.561 62.174 495.682 62.0249C495.803 61.8733 495.966 61.7443 496.172 61.6378C496.378 61.5289 496.641 61.4744 496.961 61.4744C497.382 61.4744 497.762 61.5821 498.1 61.7976C498.441 62.0107 498.711 62.3267 498.91 62.7457C499.111 63.1624 499.212 63.6738 499.212 64.2798C499.212 64.8788 499.114 65.3878 498.917 65.8068C498.721 66.2259 498.453 66.5455 498.115 66.7656C497.776 66.9858 497.393 67.0959 496.964 67.0959C496.652 67.0959 496.392 67.0438 496.186 66.9396C495.98 66.8355 495.815 66.71 495.689 66.5632C495.566 66.4141 495.47 66.2732 495.402 66.1406H495.348V69.0455H494.063ZM495.324 64.2727C495.324 64.6255 495.373 64.9344 495.473 65.1996C495.574 65.4647 495.72 65.6719 495.909 65.821C496.101 65.9678 496.333 66.0412 496.605 66.0412C496.89 66.0412 497.127 65.9654 497.319 65.8139C497.511 65.66 497.655 65.4505 497.752 65.1854C497.852 64.9179 497.902 64.6136 497.902 64.2727C497.902 63.9342 497.853 63.6335 497.756 63.3707C497.659 63.108 497.515 62.902 497.323 62.7528C497.131 62.6037 496.892 62.5291 496.605 62.5291C496.331 62.5291 496.098 62.6013 495.906 62.7457C495.714 62.8902 495.569 63.0926 495.469 63.353C495.372 63.6134 495.324 63.92 495.324 64.2727Z" fill="white"/>
</svg>
