<svg width="41" height="35" viewBox="0 0 41 35" fill="none" xmlns="http://www.w3.org/2000/svg">
<path d="M35.837 11.0566V12.0052V33.0804H31.7522V14.1816V13.2292H29.8586V14.1816V33.0804H25.7886V17.0238V16.0566H23.8839V17.0238V33.0804H19.401H18.4561V35H19.401H39.2299H40.1748V33.0804H39.2299H37.7306V12.0052V11.0566H35.837Z" fill="#FFFCFC"/>
<path d="M29.9851 0V1.91592H30.9487H33.5045L27.7269 7.78646L24.4754 4.49033L17.1689 12.3624L16.7671 12.7939C15.0698 11.6979 13.0574 11.0565 10.8966 11.0565C4.88545 11.0565 0 15.9774 0 22.0238C0 28.0702 4.88545 32.9948 10.8966 32.9948C16.9077 32.9948 21.8043 28.0702 21.8043 22.0238C21.8043 18.8429 20.4413 15.9831 18.2812 13.9769L18.5677 13.6682L24.5312 7.24702L27.7269 10.4874L34.8214 3.27753V5.86682V6.8192H36.7262V5.86682V0H30.9487H29.9851ZM10.8966 12.9725C15.8808 12.9725 19.9107 17.0094 19.9107 22.0238C19.9107 27.0382 15.8808 31.0789 10.8966 31.0789C5.91231 31.0789 1.8936 27.0382 1.8936 22.0238C1.8936 17.0094 5.91231 12.9725 10.8966 12.9725Z" fill="#FFFCFC"/>
<path d="M9.944 16.0751V17.035V17.593H7.55933V22.9762H12.3361V24.5424H8.52287H7.55933V26.4583H8.52287H9.944V27.0126V27.9762H11.8562V27.0126V26.4583H14.2297V21.0603H9.46781V19.5089H13.2848H14.2297V17.593H13.2848H11.8562V17.035V16.0751H9.944Z" fill="#FFFCFC"/>
</svg>
