<svg width="23" height="32" viewBox="0 0 23 32" fill="none" xmlns="http://www.w3.org/2000/svg">
<path d="M1.99716 5.2337L5.61709 6.97258C4.89935 8.13183 4.52487 9.46157 4.52487 10.8595C4.52487 14.6782 7.36465 17.815 10.891 17.815C14.4173 17.815 17.257 14.7123 17.257 10.8595C17.257 9.49566 16.8826 8.13183 16.196 7.00668L19.3791 5.37008V11.9847L18.4117 14.235C18.3493 14.4055 18.3493 14.5759 18.4429 14.7123C18.5365 14.8487 18.6925 14.951 18.8486 14.951H20.6897C20.8458 14.951 21.0018 14.8828 21.0642 14.7123C21.1578 14.5759 21.1578 14.4055 21.0954 14.235L20.2528 11.9847V4.92684C20.2528 4.65407 20.2216 4.44949 19.7847 4.24492C19.6911 4.21082 11.1094 0.0511436 11.1094 0.0511436C10.9846 -0.0170479 10.8597 -0.0170479 10.7349 0.0511436L1.99716 4.27902C1.84113 4.34721 1.71631 4.55178 1.71631 4.75636C1.71631 4.96093 1.80993 5.13141 1.99716 5.2337ZM16.2896 10.8595C16.2896 14.1327 13.8555 16.7922 10.8597 16.7922C7.86395 16.7922 5.42986 14.1327 5.42986 10.8595C5.42986 9.59795 5.80433 8.4046 6.45966 7.38173L10.7037 9.46157C10.7661 9.49567 10.8285 9.49566 10.891 9.49566C10.9534 9.49566 11.0158 9.49567 11.0782 9.46157L15.2598 7.41582C15.9464 8.4387 16.2896 9.63205 16.2896 10.8595ZM19.5663 13.9281L19.7847 13.4167L19.972 13.9281H19.5663ZM10.9222 1.07402L18.5053 4.75636L10.9222 8.4387L3.33904 4.75636L10.9222 1.07402Z" fill="#FFFCFC"/>
<path d="M11.047 19.0425C4.9618 19.0425 0 24.4637 0 31.1124C0 31.3851 0.218444 31.6238 0.468094 31.6238H21.626C21.8756 31.6238 22.094 31.3851 22.094 31.1124C22.094 24.4637 17.1322 19.0425 11.047 19.0425ZM0.967395 30.6009C1.21704 24.7365 5.64834 20.0654 11.0782 20.0654C16.5081 20.0654 20.9082 24.7706 21.1579 30.6009H0.967395Z" fill="#FFFCFC"/>
</svg>
