<svg width="26" height="36" viewBox="0 0 26 36" fill="none" xmlns="http://www.w3.org/2000/svg">
<path d="M25.8416 8.43281C25.4539 7.60296 24.5234 7.24732 23.7092 7.64248L19.7159 9.53927L15.1022 7.60296C14.9472 7.52393 14.7921 7.48442 14.637 7.48442L9.98456 7.01022C9.71317 6.9707 9.40301 7.04973 9.13161 7.16828L4.3241 9.46024C3.74254 9.73685 3.39361 10.3296 3.39361 10.9619L3.43238 16.6522C3.43238 17.5611 4.16902 18.2724 5.06073 18.2724C5.95245 18.2724 6.68909 17.5216 6.65032 16.6127V11.9498L8.16236 11.2385V19.616L5.87491 23.3305L0.834771 26.6104C-0.018176 27.1636 -0.250798 28.3096 0.291987 29.1789C0.640919 29.7322 1.22247 30.0483 1.80403 30.0483C2.15296 30.0483 2.46312 29.9693 2.77329 29.7717L8.08482 26.2942C8.31744 26.1362 8.51129 25.9386 8.6276 25.7015L11.6517 20.841L15.9552 26.0967L16.4592 32.3007C16.5367 33.2491 17.3509 33.9999 18.2814 33.9999C18.3202 33.9999 18.3977 33.9999 18.4365 33.9999C19.4445 33.9209 20.1812 33.012 20.1036 31.9846L19.5221 25.1878C19.4833 24.7926 19.3282 24.437 19.0956 24.1604L14.2105 18.1934L14.9472 11.0804L19.1344 12.8587C19.5608 13.0167 20.0261 13.0167 20.4138 12.8191L25.0662 10.6457C25.8804 10.2506 26.2293 9.26265 25.8416 8.43281Z" fill="#FFFCFC"/>
<path d="M15.2767 4.48631C15.7418 2.93872 14.8642 1.30713 13.3167 0.842063C11.7691 0.376993 10.1375 1.25455 9.67241 2.80214C9.20734 4.34974 10.0849 5.98132 11.6325 6.44639C13.1801 6.91146 14.8117 6.0339 15.2767 4.48631Z" fill="#FFFCFC"/>
<path d="M11.7327 32.58C12.3499 30.6912 11.3191 28.6596 9.43029 28.0424C7.54147 27.4252 5.50994 28.456 4.89272 30.3448C4.2755 32.2336 5.30633 34.2652 7.19515 34.8824C9.08396 35.4996 11.1155 34.4688 11.7327 32.58Z" fill="#FFFCFC"/>
</svg>
