<svg width="20" height="31" viewBox="0 0 20 31" fill="none" xmlns="http://www.w3.org/2000/svg">
<path d="M9.21943 5.81808C9.50254 6.31133 9.71859 6.83302 9.88002 7.37381C9.98403 7.10037 10.1065 6.83546 10.2495 6.57908L10.3362 6.41006C10.2643 5.62143 10.4294 4.91203 10.727 4.30623C11.0779 3.59073 11.6181 3.01581 12.171 2.6477C12.6826 2.30722 13.3119 2.02931 13.9938 1.72783C14.7877 1.3776 15.6571 0.993645 16.451 0.459357C16.6077 0.354125 16.8197 0.398006 16.9233 0.556463C16.9667 0.622284 16.9843 0.698263 16.9791 0.771398C16.9092 2.73465 16.3438 4.21644 15.2837 5.21431C14.2761 6.16262 12.8368 6.65913 10.9671 6.70463C10.9241 6.77452 10.8824 6.84521 10.8426 6.91672C10.3206 7.85244 10.1005 8.93401 10.1005 10.1574C10.1005 10.3479 9.94709 10.5032 9.75875 10.5032C9.57 10.5032 9.4166 10.3479 9.4166 10.1574C9.4166 9.70964 9.44431 9.27734 9.50374 8.86128C9.36199 7.86056 9.07727 6.90413 8.55803 6.04358C6.80072 5.97938 5.44901 5.50523 4.49968 4.61177C3.4869 3.65858 2.94678 2.24343 2.87972 0.369564C2.8745 0.29643 2.89216 0.220045 2.93554 0.15463C3.03914 -0.00423383 3.25118 -0.0477081 3.40779 0.0571179C4.16316 0.565402 4.99081 0.931074 5.74618 1.26465C6.39593 1.5515 6.99629 1.81641 7.48381 2.14145C8.01309 2.49331 8.52952 3.04344 8.86483 3.72603C9.14955 4.30663 9.30777 4.98516 9.24111 5.72463C9.2383 5.75754 9.23067 5.78842 9.21943 5.81808ZM18.1646 16.6655C17.9855 16.9418 17.7566 17.1811 17.4915 17.3721C17.0626 17.6805 16.5382 17.8625 15.9736 17.8625C15.3688 17.8625 14.8102 17.6549 14.3661 17.3055C14.0127 17.0276 13.7308 16.659 13.5549 16.2353L13.4966 16.2507C13.3493 16.2889 13.1955 16.3088 13.0404 16.3088C12.5244 16.3088 12.0566 16.0967 11.708 15.7432C11.3727 15.3918 11.1711 14.9274 11.1711 14.4179C11.1711 14.1635 11.2225 13.9181 11.3141 13.6938C11.3622 13.5764 11.4217 13.4651 11.4903 13.3611C11.2534 13.1238 11.0526 12.8495 10.8984 12.5489C10.7346 12.2299 10.6205 11.8785 10.5683 11.5067C10.2619 11.4771 9.9511 11.4612 9.63707 11.4612C7.78539 11.4612 6.05539 11.9906 4.58682 12.906C4.73019 13.0511 4.8607 13.2087 4.97716 13.3761C5.12132 13.5837 5.24461 13.808 5.34299 14.0457L5.5221 14.0376C6.01885 14.0376 6.48789 14.2143 6.86056 14.5146C7.23162 14.8132 7.5079 15.2382 7.61834 15.7323C7.65408 15.8919 7.67335 16.0545 7.67335 16.2174C7.67335 16.6436 7.55047 17.043 7.33964 17.3802C7.17017 17.6516 6.94208 17.8832 6.67382 18.0559C6.68748 18.1628 6.69471 18.2688 6.69471 18.3728C6.69471 18.9453 6.49753 19.4873 6.16221 19.9184C5.8273 20.3491 5.35223 20.6709 4.79645 20.8033C4.61252 20.848 4.41977 20.8716 4.22299 20.8716C3.59774 20.8716 3.02549 20.6359 2.59018 20.2483C2.22073 19.9192 1.94846 19.4788 1.82557 18.979C1.53844 18.9555 1.26055 18.8982 0.995913 18.8108C0.776652 18.7381 0.566626 18.6446 0.36905 18.5321C0.128505 19.3833 0 20.282 0 21.2117C0 23.9046 1.07824 26.3429 2.82149 28.1074C4.52418 29.8289 6.86136 30.9101 9.44752 30.9605L9.40576 30.8532C9.32986 30.648 9.27525 30.4298 9.24673 30.2039C9.21581 29.9622 9.21541 29.7241 9.24192 29.4962C9.25236 29.406 9.26681 29.317 9.28529 29.2292C9.07486 29.1732 8.8813 29.0716 8.71665 28.9338C8.43916 28.701 8.24359 28.3638 8.1938 27.9717C8.18496 27.899 8.18095 27.8246 8.18215 27.7511C8.18898 27.3773 8.33073 27.0376 8.56967 26.7703C8.76645 26.5586 9.0094 26.4083 9.28408 26.3347C9.24272 25.8951 9.33669 25.4612 9.53868 25.0882C9.7467 24.703 10.07 24.3816 10.4776 24.1813C10.4418 24.046 10.4157 23.9103 10.3981 23.7746C10.3077 23.064 10.4643 22.3595 10.8097 21.7699C11.1554 21.1796 11.6911 20.7005 12.357 20.4405C12.5851 20.3515 12.8292 20.2877 13.085 20.2544C13.9356 20.1435 14.7516 20.3926 15.3808 20.8838C16.0101 21.375 16.4551 22.1104 16.5639 22.9722C16.5908 23.183 16.5964 23.3911 16.5832 23.5918L16.5675 23.7523C17.0233 23.7628 17.4618 23.8534 17.867 24.0099C18.1714 24.1277 18.4581 24.2845 18.7216 24.4735C19.0794 23.4532 19.2741 22.3554 19.2741 21.2117C19.2741 19.5702 18.873 18.0234 18.1646 16.6655ZM11.2791 11.6022C11.3277 11.8232 11.4044 12.0345 11.5052 12.2303C11.6658 12.5428 11.8875 12.8183 12.1542 13.0385L12.2027 13.0795C12.3361 13.2144 12.3361 13.4342 12.2027 13.5691C12.0927 13.6808 12.0036 13.8133 11.9441 13.9583C11.8871 14.0977 11.8554 14.2533 11.8554 14.4179C11.8554 14.7405 11.9811 15.0338 12.1935 15.2573C12.4168 15.4824 12.7132 15.6169 13.0404 15.6169C13.142 15.6169 13.2404 15.6047 13.3312 15.5811C13.4199 15.5592 13.5055 15.5263 13.5854 15.484C13.6139 15.4665 13.6452 15.4531 13.6794 15.4446C13.8617 15.3979 14.0484 15.5096 14.0942 15.6945C14.2018 16.1227 14.45 16.4961 14.7853 16.7594C15.1122 17.017 15.5254 17.1706 15.9736 17.1706C16.3932 17.1706 16.7811 17.0365 17.0968 16.8098C17.3903 16.5989 17.6232 16.3068 17.7638 15.9691C17.3859 15.3707 16.945 14.8169 16.4514 14.3171C15.0744 12.9239 13.2822 11.9504 11.2791 11.6022ZM18.4613 25.1365C18.2112 24.937 17.9288 24.7733 17.6241 24.6555C17.2711 24.519 16.8855 24.4438 16.4824 24.4438L16.1736 24.4576C16.1366 24.4592 16.0989 24.4556 16.0611 24.4454C15.88 24.3954 15.7732 24.2061 15.8226 24.0225C15.8635 23.8713 15.8908 23.7112 15.9021 23.5463C15.9125 23.385 15.9085 23.2212 15.888 23.0587C15.8029 22.3875 15.4551 21.813 14.964 21.4298C14.4725 21.0459 13.8352 20.8517 13.171 20.9382C12.9718 20.9642 12.7806 21.0142 12.6027 21.0837C12.0851 21.2856 11.667 21.6598 11.3968 22.121C11.1265 22.5829 11.0036 23.1335 11.0743 23.6881C11.098 23.8742 11.1442 24.0631 11.2141 24.248L11.2277 24.287C11.2807 24.4694 11.1771 24.6616 10.9968 24.7152C10.6141 24.8294 10.3137 25.0906 10.137 25.4173C9.95833 25.7472 9.90372 26.147 10.0133 26.5354C10.0214 26.5671 10.0258 26.6 10.0254 26.6342C10.0234 26.8239 9.86878 26.9763 9.68124 26.9742L9.55956 26.9812C9.37042 27.0059 9.20296 27.0961 9.07325 27.2347C8.94274 27.3814 8.86604 27.5646 8.86283 27.7625L8.86965 27.8852C8.89656 28.0944 9.00177 28.276 9.15196 28.402C9.29934 28.5255 9.4917 28.5958 9.6949 28.5873C9.74549 28.582 9.7981 28.5885 9.8491 28.6084C10.025 28.6758 10.1137 28.8757 10.0467 29.0541C9.98443 29.2195 9.94066 29.395 9.92018 29.5746C9.9001 29.7529 9.8997 29.9358 9.92259 30.1174C9.94427 30.2905 9.98604 30.4571 10.0439 30.6131C10.086 30.7281 10.139 30.8398 10.2009 30.9459C12.6373 30.8036 14.8315 29.7452 16.4514 28.1066C17.2907 27.2574 17.9766 26.2514 18.4613 25.1365ZM0.584697 17.8593C0.777053 17.9811 0.985874 18.0807 1.20674 18.1538C1.48905 18.2473 1.79345 18.2981 2.11069 18.2981C2.28056 18.2985 2.42874 18.4273 2.44963 18.602C2.50504 19.0489 2.7235 19.4463 3.04155 19.7295C3.35639 20.0094 3.77001 20.1797 4.22299 20.1797C4.36836 20.1797 4.50852 20.163 4.63903 20.1313C5.0398 20.0358 5.38315 19.8034 5.6253 19.4922C5.86786 19.1801 6.01042 18.7877 6.01042 18.3728C6.01042 18.2331 5.99476 18.0921 5.96223 17.9531C5.92689 17.7979 6.00158 17.6325 6.14936 17.5623C6.40196 17.4416 6.61519 17.249 6.76297 17.0125C6.90594 16.7838 6.98946 16.5103 6.98946 16.2174C6.98946 16.0979 6.97661 15.9862 6.95372 15.8834C6.87903 15.5486 6.68949 15.2593 6.43569 15.0546C6.18229 14.8502 5.86183 14.7299 5.5221 14.7299C5.41608 14.7299 5.31007 14.7409 5.20847 14.7628C5.03418 14.81 4.85146 14.7112 4.79564 14.5349C4.7085 14.2619 4.5796 14.0051 4.41896 13.7735C4.29849 13.5996 4.15954 13.4399 4.00534 13.2981C3.59091 13.6 3.20138 13.9348 2.83112 14.3078C1.84164 15.3097 1.07101 16.5152 0.584697 17.8593Z" fill="#FFFCFC"/>
</svg>
