<svg width="34" height="24" viewBox="0 0 34 24" fill="none" xmlns="http://www.w3.org/2000/svg">
<path d="M18.5112 13.2493V1.32382C18.5112 0.932234 18.3332 0.57625 18.084 0.327061C17.7992 0.0778721 17.4432 -0.0289238 17.0517 0.00667468L5.87374 1.46621C5.23297 1.53741 4.73459 2.10698 4.73459 2.74775V12.4661C4.27181 12.2881 3.77343 12.1813 3.23946 12.1813C1.42394 12.1813 0 13.3561 0 14.8156C0 16.2752 1.42394 17.4499 3.23946 17.4499C5.05498 17.4499 6.47892 16.2752 6.47892 14.8156V6.41439L16.8025 5.06165V10.8998C16.3397 10.7218 15.8413 10.615 15.3073 10.615C13.4918 10.615 12.0679 11.7898 12.0679 13.2493C12.0679 14.7088 13.4918 15.8836 15.3073 15.8836C17.0872 15.9192 18.5112 14.7444 18.5112 13.2493Z" fill="#FFFCFC"/>
<path d="M23.3885 8.44354C22.9257 8.44354 22.5342 8.83513 22.5342 9.29791V19.0163C22.0714 18.8383 21.573 18.7315 21.039 18.7315C19.2235 18.7315 17.7996 19.9062 17.7996 21.3658C17.7996 22.8253 19.2235 24.0001 21.039 24.0001C22.8545 24.0001 24.2785 22.8253 24.2785 21.3658V9.29791C24.2429 8.83513 23.8513 8.44354 23.3885 8.44354Z" fill="#FFFCFC"/>
<path d="M32.9647 0.327148C32.5019 0.327148 32.1103 0.718731 32.1103 1.18151V10.8999C31.6475 10.7219 31.1492 10.6151 30.6152 10.6151C28.7997 10.6151 27.3757 11.7898 27.3757 13.2494C27.3757 14.7089 28.7997 15.8837 30.6152 15.8837C32.4307 15.8837 33.8546 14.7089 33.8546 13.2494V1.21711C33.819 0.718731 33.4275 0.327148 32.9647 0.327148Z" fill="#FFFCFC"/>
</svg>
