<svg width="35" height="34" viewBox="0 0 35 34" fill="none" xmlns="http://www.w3.org/2000/svg">
<path d="M23.2172 22.2583C23.3998 21.884 23.2902 21.4348 22.9251 21.2477C22.5599 21.0605 22.1217 21.1728 21.9391 21.5471L20.4784 24.2047L21.4644 20.1996C21.5739 19.7878 21.3183 19.3761 20.9166 19.3012C20.5149 19.1889 20.1132 19.451 20.0402 19.8627L19.2003 23.3064V19.5633C19.2003 19.1515 18.8716 18.8146 18.47 18.8146C18.0683 18.8146 17.7396 19.1515 17.7396 19.5633V23.5684L16.8997 19.8627C16.8267 19.451 16.425 19.2264 16.0233 19.3012C15.6216 19.3761 15.4025 19.7878 15.4755 20.1996L16.498 24.6539C16.4615 25.1779 16.352 25.702 16.2424 26.1511C16.2424 26.1511 16.2424 26.1137 16.2059 26.1137C15.5851 25.1405 14.5991 24.2796 13.6497 24.0176C13.2845 23.9053 12.9193 24.1299 12.8098 24.5042C12.7002 24.8785 12.9193 25.2528 13.2845 25.3651C13.7592 25.4774 14.1974 26.1886 14.6722 26.9372C15.2564 27.873 15.9868 28.9585 17.0823 29.5948V33.6H20.2958V29.3702C21.5009 28.7339 21.6469 26.0763 21.6835 25.0656L23.2172 22.2583Z" fill="#FFFCFC"/>
<path d="M10.3266 22.5578L13.5036 22.5952C13.9053 22.5952 14.2339 22.2583 14.2339 21.8466C14.2339 21.4348 13.9053 21.098 13.5036 21.098L10.5457 21.0605L14.4165 20.0499C14.8182 19.9376 15.0373 19.5258 14.9278 19.1515C14.8182 18.7398 14.4165 18.5152 14.0514 18.6275L10.6918 19.5258L13.9053 17.7291C14.2705 17.542 14.38 17.0928 14.1974 16.7185C14.0148 16.3442 13.5766 16.2319 13.2115 16.4191L9.77884 18.2906L12.5541 15.7827C12.8463 15.5207 12.8828 15.0341 12.6272 14.7347C12.3716 14.4352 11.8968 14.3978 11.6047 14.6598L8.24512 17.6543C7.7704 17.8789 7.29568 18.0286 6.82095 18.1035C6.82095 18.1035 6.82095 18.066 6.85747 18.066C7.40523 17.018 7.66085 15.7453 7.44175 14.7721C7.36871 14.3978 6.96702 14.1732 6.60185 14.248C6.23668 14.3229 6.01757 14.7347 6.09061 15.109C6.20016 15.5956 5.83499 16.3068 5.4333 17.0928C4.92206 18.066 4.33778 19.2264 4.30127 20.5365L0.868652 22.4455L2.40237 25.3277L6.01757 23.3438C7.11309 24.1299 9.45019 23.0069 10.3266 22.5578Z" fill="#FFFCFC"/>
<path d="M10.7282 10.3552L11.4951 13.4994C11.5681 13.8363 11.8603 14.0609 12.1889 14.0609C12.2619 14.0609 12.2985 14.0609 12.3715 14.0234C12.7732 13.9111 12.9923 13.5368 12.9193 13.1251L12.2254 10.168L14.1608 13.724C14.3069 13.986 14.526 14.0983 14.8181 14.0983C14.9277 14.0983 15.0738 14.0609 15.1833 13.986C15.5485 13.7989 15.658 13.3122 15.4755 12.9754L13.7957 9.86858L16.2788 12.6011C16.4249 12.7508 16.6075 12.8256 16.8266 12.8256C17.0092 12.8256 17.1918 12.7508 17.3378 12.6385C17.63 12.339 17.63 11.8899 17.3743 11.5904L14.7086 8.67078L17.8126 10.8044C17.9221 10.8792 18.0682 10.9167 18.2142 10.9167C18.4333 10.9167 18.689 10.8044 18.835 10.5798C19.0541 10.2429 18.9811 9.75629 18.6525 9.5317L14.9277 6.98638C14.599 6.57464 14.3434 6.12546 14.1243 5.71372H14.1608C15.2564 5.97574 16.5345 5.93831 17.4109 5.4517C17.7395 5.26455 17.8491 4.8528 17.6665 4.51592C17.4839 4.17904 17.0822 4.06675 16.7536 4.2539C16.3519 4.47849 15.5485 4.29134 14.7086 4.10418C13.6496 3.84216 12.408 3.54271 11.1664 3.87959L8.50067 0.959961L6.16357 3.20583L8.9754 6.27519C8.39112 7.58528 10.0344 9.64399 10.7282 10.3552Z" fill="#FFFCFC"/>
<path d="M34.757 25.0656L31.9817 21.9589C32.4564 20.6488 30.8131 18.59 30.1558 17.8414L29.4255 14.6972C29.3159 14.2855 28.9507 14.0609 28.5491 14.1357C28.1474 14.248 27.9283 14.6223 28.0013 15.0341L28.6951 17.9911L26.7597 14.3978C26.5771 14.0234 26.1389 13.9112 25.7738 14.0983C25.4086 14.2855 25.299 14.7346 25.4816 15.1089L27.1614 18.2532L24.6782 15.5207C24.3861 15.2212 23.9479 15.1838 23.6558 15.4833C23.3636 15.7827 23.3271 16.2319 23.6192 16.5313L26.285 19.4884L23.2175 17.3548C22.8889 17.1302 22.4142 17.2051 22.1951 17.542C21.976 17.8789 22.049 18.3655 22.3777 18.59L26.0659 21.1728C26.3945 21.5845 26.6502 22.0337 26.8693 22.4455H26.8327C25.7372 22.1834 24.4591 22.2209 23.5827 22.7075C23.2541 22.8946 23.108 23.3064 23.2906 23.6433C23.4732 23.9801 23.8749 24.1299 24.2035 23.9427C24.6052 23.7181 25.4086 23.9053 26.2485 24.1299C27.3075 24.3919 28.5491 24.6913 29.7906 24.3919L32.4199 27.3115L34.757 25.0656Z" fill="#FFFCFC"/>
<path d="M19.7483 9.0451C19.8213 9.0451 19.8943 9.0451 20.0039 9.00766L22.7792 7.99702L19.4926 10.3178C19.164 10.5423 19.091 11.0289 19.3101 11.3658C19.4561 11.5904 19.6752 11.7027 19.8943 11.7027C20.0404 11.7027 20.1865 11.6653 20.296 11.553L23.1444 9.5317L20.7342 12.339C20.4786 12.6385 20.5151 13.1251 20.8073 13.3871C20.9533 13.4994 21.0994 13.5743 21.282 13.5743C21.5011 13.5743 21.6837 13.4994 21.8297 13.3122L24.4225 10.2803L22.6696 13.6491C22.4871 14.0234 22.5966 14.4726 22.9618 14.6598C23.0713 14.7346 23.1809 14.7346 23.2904 14.7346C23.5461 14.7346 23.8017 14.5849 23.9477 14.3229L26.0657 10.2803C26.4309 9.90601 26.8326 9.60656 27.2343 9.34454V9.38198C27.0882 10.5423 27.2708 11.8524 27.8186 12.6759C28.0377 13.0128 28.4394 13.0877 28.768 12.8631C29.0967 12.6385 29.1697 12.2267 28.9506 11.8899C28.695 11.4781 28.8045 10.6546 28.9141 9.75629C29.0601 8.67078 29.2062 7.36069 28.8045 6.12546L31.3607 3.13097L28.9506 0.959961L26.2483 4.14161C24.9337 3.80473 23.1078 5.71372 22.4505 6.42491L19.4561 7.51042C19.091 7.66014 18.8719 8.07188 19.0179 8.48363C19.164 8.85794 19.4561 9.0451 19.7483 9.0451Z" fill="#FFFCFC"/>
</svg>
