<svg width="26" height="37" viewBox="0 0 26 37" fill="none" xmlns="http://www.w3.org/2000/svg">
<path d="M0.885286 20.351C0.763033 20.3509 0.642729 20.3763 0.530722 20.4257C0.418715 20.4751 0.316877 20.5472 0.233939 20.6377C0.151 20.7282 0.0887094 20.835 0.0487773 20.9514C0.00884506 21.0678 -0.006969 21.1913 0.00281523 21.314L1.15581 35.7287C1.18331 36.0749 1.33848 36.3979 1.59179 36.6336C1.8451 36.8692 2.17809 37 2.52285 37H22.9641C23.3089 37 23.6406 36.8692 23.8939 36.6336C24.1472 36.3979 24.3037 36.0749 24.3312 35.7287L25.4842 21.314C25.4939 21.1913 25.4781 21.0678 25.4382 20.9514C25.3983 20.835 25.3347 20.7282 25.2517 20.6377C25.1688 20.5472 25.0683 20.4751 24.9563 20.4257C24.8442 20.3763 24.7239 20.3509 24.6017 20.351H0.885286ZM14.1762 23.9811C14.216 23.9801 14.2546 23.9888 14.2904 24.0063C14.3262 24.0238 14.3572 24.0497 14.381 24.0819C14.4049 24.114 14.4218 24.1514 14.4283 24.1909C14.4349 24.2305 14.4313 24.271 14.4191 24.3092L11.538 32.7799C11.5145 32.8401 11.4689 32.8889 11.4106 32.9161C11.3523 32.9433 11.2862 32.9468 11.2254 32.9258C11.1646 32.9048 11.1144 32.861 11.0849 32.8035C11.0554 32.746 11.0484 32.6792 11.0665 32.6171L13.9477 24.1451C13.965 24.0979 13.9964 24.057 14.037 24.0278C14.0776 23.9985 14.1263 23.9823 14.1762 23.9811ZM9.12956 25.9985C9.17977 25.9963 9.23 26.0094 9.2727 26.0361C9.3154 26.0628 9.34828 26.1019 9.36856 26.1482C9.38884 26.1945 9.39486 26.246 9.38563 26.2958C9.37641 26.3456 9.35286 26.3913 9.31735 26.4272L7.24774 28.5121L9.31735 30.597C9.36337 30.6443 9.38853 30.708 9.38826 30.7741C9.38799 30.8403 9.36243 30.9037 9.31603 30.9506C9.26964 30.9974 9.20708 31.024 9.14138 31.0244C9.07568 31.0249 9.01242 30.9991 8.96541 30.9529L6.85247 28.823C6.81194 28.7822 6.77985 28.7337 6.75792 28.6804C6.73599 28.627 6.72509 28.5698 6.72509 28.5121C6.72509 28.4544 6.73599 28.3972 6.75792 28.3438C6.77985 28.2905 6.81194 28.242 6.85247 28.2012L8.96541 26.0713C9.00943 26.0273 9.06758 26.0013 9.12956 25.9985ZM16.1906 25.9985C16.2239 25.998 16.257 26.0041 16.2878 26.0166C16.3186 26.0291 16.3469 26.0477 16.3705 26.0713L18.4848 28.2012C18.5253 28.242 18.5574 28.2905 18.5794 28.3438C18.6013 28.3972 18.6122 28.4544 18.6122 28.5121C18.6122 28.5698 18.6013 28.627 18.5794 28.6804C18.5574 28.7337 18.5253 28.7822 18.4848 28.823L16.3705 30.9529C16.3237 31 16.2595 31.0265 16.1933 31.0265C16.127 31.0265 16.0641 31 16.0173 30.9528C15.9705 30.9056 15.9437 30.8416 15.9438 30.7749C15.9438 30.7082 15.9705 30.6442 16.0173 30.597L18.0869 28.5121L16.0173 26.4272C15.9827 26.3922 15.9587 26.3477 15.949 26.2993C15.9394 26.2508 15.945 26.2007 15.9635 26.155C15.982 26.1092 16.0136 26.07 16.0541 26.0422C16.0946 26.0144 16.1416 25.9992 16.1906 25.9985Z" fill="#FFFCFC"/>
<path d="M10.6965 4.12928C10.6805 4.1309 10.6658 4.13714 10.6532 4.14722C10.6405 4.15731 10.6308 4.17081 10.6256 4.18617C10.3849 4.86055 10.0137 5.47996 9.533 6.00825C9.05233 6.53654 8.47183 6.96319 7.82584 7.2633C7.81162 7.27033 7.80002 7.28123 7.7917 7.2948C7.78337 7.30838 7.77845 7.32407 7.77857 7.34003V10.0666C7.79885 11.3797 8.33094 12.6321 9.25986 13.5534C10.1888 14.4748 11.4402 14.9912 12.7438 14.9912C14.0474 14.9912 15.2988 14.4748 16.2277 13.5534C17.1566 12.6321 17.6887 11.3797 17.709 10.0666V7.65489C17.7088 7.63442 17.7014 7.61473 17.688 7.5994C17.6745 7.58408 17.6556 7.57419 17.6355 7.57154C15.0283 7.24677 12.6071 6.04234 10.7661 4.15442C10.7573 4.14542 10.7463 4.1385 10.7346 4.13416C10.7228 4.12983 10.7103 4.1282 10.6978 4.12936L10.6965 4.12928ZM15.2796 8.02398C15.3675 8.02368 15.4546 8.04115 15.5356 8.07533C15.6167 8.1095 15.6895 8.15965 15.751 8.22292C15.8125 8.28618 15.8619 8.36129 15.8941 8.44368C15.9264 8.52607 15.941 8.61413 15.9388 8.70264C15.9388 8.87833 15.8704 9.04681 15.7471 9.17104C15.6238 9.29527 15.4553 9.36502 15.2809 9.36502C15.1065 9.36502 14.9393 9.29527 14.816 9.17104C14.6927 9.04681 14.6243 8.87833 14.6243 8.70264C14.6221 8.61447 14.637 8.52671 14.6689 8.44459C14.7009 8.36247 14.7484 8.28762 14.8094 8.22441C14.8705 8.16119 14.9442 8.1109 15.0248 8.07649C15.1054 8.04207 15.192 8.02422 15.2796 8.02398ZM10.1909 8.03349C10.2788 8.03193 10.3667 8.0481 10.4483 8.08112C10.5299 8.11413 10.6039 8.16333 10.6663 8.22573C10.7287 8.28813 10.7786 8.36248 10.8121 8.44443C10.8455 8.52637 10.8615 8.61422 10.8606 8.70281C10.8627 8.79115 10.8468 8.87898 10.8147 8.96119C10.7825 9.04341 10.7355 9.11834 10.6742 9.18154C10.6129 9.24475 10.5396 9.29501 10.4588 9.3293C10.378 9.36359 10.2904 9.38122 10.2027 9.38122C10.115 9.38122 10.0288 9.36359 9.94797 9.3293C9.86713 9.29501 9.7939 9.24475 9.73261 9.18154C9.67131 9.11834 9.62293 9.04341 9.59078 8.96119C9.55864 8.87898 9.54277 8.79115 9.54482 8.70281C9.54312 8.52794 9.61028 8.35953 9.7313 8.23416C9.85232 8.10879 10.0174 8.03666 10.1909 8.03349ZM11.6065 10.7878C11.6613 10.7878 11.7141 10.8059 11.7576 10.8393C11.8011 10.8728 11.8325 10.9198 11.8469 10.973C11.8913 11.1789 12.0044 11.3634 12.1673 11.4957C12.3302 11.6279 12.5332 11.7 12.7425 11.7C12.9517 11.7 13.1547 11.6279 13.3176 11.4957C13.4806 11.3634 13.5936 11.1789 13.6381 10.973C13.6565 10.9128 13.697 10.8617 13.751 10.83C13.805 10.7983 13.8685 10.7882 13.9296 10.8016C13.9907 10.8151 14.0447 10.8513 14.0806 10.9028C14.1165 10.9544 14.1322 11.0177 14.124 11.0801C14.054 11.3966 13.8787 11.6796 13.6276 11.8825C13.3764 12.0853 13.0643 12.1958 12.7425 12.1958C12.4206 12.1958 12.1085 12.0853 11.8574 11.8825C11.6062 11.6796 11.431 11.3966 11.361 11.0801C11.3551 11.0442 11.3566 11.0074 11.3662 10.9723C11.3758 10.9372 11.3928 10.9046 11.4161 10.8768C11.4395 10.849 11.4687 10.8266 11.5015 10.8112C11.5343 10.7959 11.5704 10.7879 11.6065 10.7878Z" fill="#FFFCFC"/>
<path d="M22.9587 19.8482H2.52612L2.55218 19.7632C2.58236 19.5777 2.66365 19.4045 2.7867 19.2632C2.90974 19.1219 3.06965 19.0181 3.24828 18.9638L9.67697 17.0022C9.85628 16.9476 10.0132 16.8363 10.1249 16.6847C10.2366 16.5332 10.2974 16.3495 10.2974 16.1608V14.9832C11.0595 15.3696 11.901 15.571 12.7542 15.571C13.6074 15.571 14.4489 15.3696 15.211 14.9832V16.1608C15.211 16.3495 15.2706 16.5332 15.3823 16.6847C15.4939 16.8363 15.6509 16.9476 15.8302 17.0022L22.2614 18.9638C22.4397 19.0184 22.599 19.1224 22.7217 19.2637C22.8444 19.405 22.9249 19.5779 22.955 19.7632L22.9587 19.8482Z" fill="#FFFCFC"/>
<path d="M17.6954 7.0724C15.2004 6.7616 12.8835 5.60917 11.1215 3.80269C11.0524 3.73166 10.9667 3.67956 10.8721 3.65112C10.7775 3.62269 10.6769 3.61892 10.5805 3.64019C10.4841 3.66145 10.3941 3.70704 10.3199 3.77269C10.2458 3.83834 10.1895 3.92189 10.1561 4.0155C9.93783 4.62727 9.6008 5.18913 9.16472 5.66833C8.72865 6.14753 8.20223 6.53447 7.61618 6.80662C7.51514 6.85369 7.43044 6.92899 7.3705 7.0235C7.31056 7.118 7.27862 7.22776 7.27868 7.33991V10.0662C7.27867 10.9878 7.50793 11.8946 7.94624 12.7035C8.38455 13.5125 9.01815 14.1977 9.78761 14.6962V16.1608C9.78761 16.2416 9.76098 16.3202 9.71316 16.3851C9.66534 16.4501 9.59889 16.4979 9.52208 16.5214L4.57121 18.0314C4.24466 16.4042 4.49631 14.7132 5.2822 13.254C5.69988 12.4791 5.91867 11.6113 5.91874 10.7295V6.84615C5.92581 5.02798 6.64893 3.28674 7.92762 2.00361C9.20632 0.720479 10.9372 0 12.742 0C14.5468 0 16.2777 0.720479 17.5564 2.00361C18.8351 3.28674 19.557 5.02798 19.564 6.84615V10.7295C19.5641 11.6113 19.7829 12.4791 20.2006 13.254C20.987 14.713 21.2389 16.404 20.9128 18.0314L15.9632 16.5214C15.8864 16.4979 15.8199 16.4501 15.7721 16.3851C15.7243 16.3202 15.6976 16.2416 15.6976 16.1608V14.6962C16.4671 14.1977 17.1007 13.5125 17.539 12.7035C17.9773 11.8946 18.2066 10.9878 18.2066 10.0662V7.65507C18.2066 7.51182 18.1543 7.37349 18.0602 7.26616C17.966 7.15882 17.8365 7.09 17.6954 7.0724Z" fill="#FFFCFC"/>
</svg>
