<svg width="36" height="31" viewBox="0 0 36 31" fill="none" xmlns="http://www.w3.org/2000/svg">
<path fill-rule="evenodd" clip-rule="evenodd" d="M8.27542 19.1444V29.5914C8.27542 30.2957 7.68851 31 6.86683 31H4.16705C3.34538 31 2.75847 30.2957 2.75847 29.5914V23.8397C3.58014 23.6049 4.28443 23.2528 4.75396 22.7833L8.27542 19.1444ZM35.7427 1.65456L35.0385 7.64103C34.9211 9.04961 33.3951 9.40176 32.4561 8.58008L31.0475 7.05412L17.5486 20.0835C16.7269 20.7878 15.5531 20.7878 14.7314 20.0835L9.44923 15.0361L3.34538 21.1399C2.52371 21.9616 1.34989 21.9616 0.528218 21.1399C-0.176073 20.553 -0.176073 19.1444 0.528218 18.4402L8.04065 10.8103C8.86232 9.98866 10.0361 9.98866 10.9752 10.9277L16.14 15.9751L28.3477 4.23696L27.0565 2.82838C26.1174 2.0067 26.7044 0.363359 27.8782 0.363359L34.0994 0.0112139C35.0385 -0.106168 35.8601 0.715505 35.7427 1.65456ZM31.8692 10.693V29.5914C31.8692 30.2957 31.2822 31 30.4606 31H27.6434C26.9391 31 26.3522 30.2957 26.3522 29.5914V14.5666L31.0475 9.98866L31.8692 10.693ZM24.0046 16.6794V29.5914C24.0046 30.2957 23.3003 31 22.7134 31H19.7788C19.0745 31 18.3702 30.2957 18.3702 29.5914V21.9616C18.9572 21.6095 23.0655 17.5011 24.0046 16.6794ZM16.14 22.7833V29.5914C16.14 30.2957 15.5531 31 14.8488 31H11.9143C11.21 31 10.6231 30.2957 10.6231 29.5914V18.9097L13.3228 21.4921C14.0271 22.3138 15.0836 22.7833 16.14 22.7833Z" fill="#FFFCFC"/>
</svg>
