<svg width="31" height="31" viewBox="0 0 31 31" fill="none" xmlns="http://www.w3.org/2000/svg">
<path d="M29.5499 19.7952C28.6681 19.3612 27.6382 19.4508 26.846 20.0295L21.9962 22.8057C21.7276 22.9572 21.4313 23.0433 21.1248 23.0675C21.2729 22.754 21.3556 22.4096 21.3556 22.0445C21.3556 20.7149 20.274 19.6333 18.9444 19.6333H12.6308L11.8213 19.0237C10.2817 17.8663 8.42167 17.2257 6.55478 17.2222H2.06667C0.93 17.2222 0 18.1488 0 19.2889V27.5556C0 28.6957 0.93 29.6222 2.06667 29.6222H2.75556C3.73033 29.6222 4.54667 28.9437 4.76367 28.0343L8.99344 30.5247C9.52389 30.8347 10.1267 31 10.7398 31H18.7963C19.4818 31 20.1466 30.7968 20.7149 30.4179L29.9529 24.2282C29.9667 24.2179 29.9804 24.2076 29.9942 24.1972C30.6349 23.7012 31 22.9469 31 22.1375C31 21.1386 30.4454 20.2396 29.5499 19.7952ZM3.44444 27.5556C3.44444 27.9345 3.13789 28.2445 2.75556 28.2445H2.06667C1.68778 28.2445 1.37778 27.9345 1.37778 27.5556V19.2889C1.37778 18.91 1.68778 18.6 2.06667 18.6H3.44444V27.5556ZM29.1641 23.0985L19.9468 29.2709C19.6058 29.5017 19.2097 29.6222 18.7963 29.6222H10.7398C10.3712 29.6222 10.0096 29.5223 9.69267 29.3363L4.82222 26.4706V18.6H6.58578C8.12544 18.6035 9.68922 19.1442 10.9947 20.1259L11.9867 20.8733C12.1072 20.9629 12.2519 21.0111 12.4 21.0111H18.9444C19.5162 21.0111 19.9778 21.4727 19.9778 22.0445C19.9778 22.6128 19.5162 23.0778 18.9444 23.0778H10.3333C10.137 23.0778 9.96133 23.1605 9.83389 23.2948C9.72022 23.4188 9.64444 23.5841 9.64444 23.7667C9.64444 24.1456 9.95444 24.4556 10.3333 24.4556H20.9698C21.5691 24.4556 22.1581 24.2971 22.6782 24.0009L27.5659 21.204C27.5934 21.1902 27.6176 21.173 27.6417 21.1558C28.024 20.863 28.5062 20.8182 28.9368 21.0318C29.3673 21.2453 29.6222 21.6587 29.6222 22.1375C29.6222 22.5129 29.4569 22.8608 29.1641 23.0985Z" fill="#FFFCFC"/>
<path d="M11.7456 13.1061L18.5208 18.4519C18.6448 18.5483 18.7963 18.6 18.9444 18.6C19.096 18.6 19.2476 18.5483 19.3716 18.4519L26.1571 13.0992C30.4868 9.56522 29.8668 5.83144 29.4018 4.39167C28.6096 1.94611 26.4568 0.144667 24.1628 0.0103334C24.0353 0.00344452 23.9044 0 23.7736 0C21.9411 0 20.1913 0.775 18.9444 2.108C17.701 0.775 15.9512 0 14.1188 0C13.9879 0 13.857 0.00344452 13.7296 0.0103334C11.4356 0.144667 9.28277 1.94611 8.49055 4.39167C8.02555 5.83144 7.40555 9.56522 11.7456 13.1061ZM9.80289 4.81533C10.4229 2.89678 12.0693 1.488 13.8088 1.38467C13.9121 1.38122 14.0154 1.37778 14.1188 1.37778C15.8031 1.37778 17.3979 2.20789 18.383 3.596C18.5139 3.77511 18.724 3.88533 18.9444 3.88533C19.1683 3.88533 19.3784 3.77511 19.5059 3.596C20.4944 2.20789 22.0892 1.37778 23.7736 1.37778C23.8769 1.37778 23.9802 1.38122 24.0836 1.38467C25.823 1.488 27.4694 2.89678 28.0894 4.81533C28.892 7.29189 27.869 9.92344 25.2926 12.0246L18.9444 17.0328L12.6067 12.0314C10.0233 9.92344 9.00033 7.29189 9.80289 4.81533Z" fill="#FFFCFC"/>
<path d="M16.5335 11.7111H16.8779V12.0555C16.8779 13.1956 17.8079 14.1222 18.9446 14.1222C20.0847 14.1222 21.0112 13.1956 21.0112 12.0555V11.7111H21.3557C22.4958 11.7111 23.4224 10.7845 23.4224 9.6444C23.4224 8.50429 22.4958 7.57774 21.3557 7.57774H21.0112V7.23329C21.0112 6.09318 20.0847 5.16663 18.9446 5.16663C17.8079 5.16663 16.8779 6.09318 16.8779 7.23329V7.57774H16.5335C15.3968 7.57774 14.4668 8.50429 14.4668 9.6444C14.4668 10.7845 15.3968 11.7111 16.5335 11.7111ZM16.5335 8.95551H17.5668C17.9491 8.95551 18.2557 8.64551 18.2557 8.26663V7.23329C18.2557 6.8544 18.5657 6.5444 18.9446 6.5444C19.3269 6.5444 19.6335 6.8544 19.6335 7.23329V8.26663C19.6335 8.64551 19.9435 8.95551 20.3224 8.95551H21.3557C21.738 8.95551 22.0446 9.26551 22.0446 9.6444C22.0446 10.0233 21.738 10.3333 21.3557 10.3333H20.3224C19.9435 10.3333 19.6335 10.6398 19.6335 11.0222V12.0555C19.6335 12.4344 19.3269 12.7444 18.9446 12.7444C18.5657 12.7444 18.2557 12.4344 18.2557 12.0555V11.0222C18.2557 10.6398 17.9491 10.3333 17.5668 10.3333H16.5335C16.1546 10.3333 15.8446 10.0233 15.8446 9.6444C15.8446 9.26551 16.1546 8.95551 16.5335 8.95551Z" fill="#FFFCFC"/>
</svg>
