<svg width="29" height="30" viewBox="0 0 29 30" fill="none" xmlns="http://www.w3.org/2000/svg">
<path d="M28.6236 28.696C28.4674 28.1442 28.2635 27.6046 28.014 27.0825C27.2364 25.4453 26.3527 23.8522 25.3678 22.3118C24.2481 20.4969 22.9742 18.7658 21.5577 17.1345C21.5051 17.0774 21.4393 17.0318 21.3649 17.001C21.2906 16.9702 21.2098 16.9551 21.1282 16.9567C21.0488 16.961 20.9713 16.9808 20.9008 17.0148C20.8303 17.0487 20.7685 17.096 20.7195 17.1536C20.6689 17.2127 20.6108 17.266 20.5464 17.3124L20.3662 17.4077C20.2676 17.4393 20.1653 17.4606 20.0614 17.4712C19.9798 17.4761 19.9005 17.4981 19.8296 17.5355C19.7588 17.573 19.6982 17.6249 19.6527 17.6872C19.6091 17.7497 19.5809 17.8201 19.5701 17.8937C19.5593 17.9672 19.5663 18.042 19.5904 18.1128C20.4291 20.0659 21.4368 21.9543 22.6038 23.7601C23.5663 25.3162 24.6328 26.8161 25.7973 28.2513C26.1638 28.7056 26.5717 29.1306 27.0165 29.5218C27.2312 29.706 27.7923 30.1952 28.3188 29.9157C28.8453 29.6362 28.686 28.9628 28.6236 28.696Z" fill="#FFFCFC"/>
<path d="M20.8357 14.4583C20.7502 13.69 20.5319 12.9557 20.1966 12.3087C19.5726 11.1417 18.7332 10.1892 17.7525 9.53574C17.59 9.4211 17.0631 9.06283 16.9565 9.14165C16.9784 9.51537 17.0215 9.88656 17.0855 10.2523C17.2536 11.972 16.5249 14.0929 17.3882 15.6048C17.6766 16.1057 18.066 16.497 18.5149 16.7369C18.7389 16.8751 18.9835 16.9499 19.2322 16.9561C19.4808 16.9623 19.7276 16.8997 19.9556 16.7727L20.1013 16.6796C20.1342 16.6582 20.166 16.6342 20.1966 16.6079C20.4514 16.3637 20.6468 16.0321 20.7599 15.6515C20.873 15.271 20.8993 14.8572 20.8357 14.4583Z" fill="#FFFCFC"/>
<path d="M15.1496 17.0186C14.9038 16.1372 14.8891 15.2058 15.1068 14.3168C15.0367 13.5971 15.0511 12.8715 15.1496 12.1553C15.2153 11.7323 15.2358 11.3033 15.2108 10.8758V10.8199C15.0395 9.90062 14.8314 8.75776 15.9817 8.09317C16.269 7.93361 16.5905 7.84828 16.9179 7.84472C17.5354 7.88261 18.1296 8.09803 18.6311 8.46584C19.2434 8.82088 19.8194 9.23702 20.3504 9.70807C22.0391 9.31677 26.7688 8.07453 26.004 5.27329C24.8231 0.931677 17.1565 0 13.6016 0C6.08799 0 0 5.85093 0 13.0435C0 20.236 6.08187 26.087 13.5955 26.087C15.1802 26.087 17.7561 26.0497 18.3007 24.1491C18.9921 21.7391 15.8165 19.2298 15.1924 17.1429C15.1802 17.1242 15.1618 17.0683 15.1496 17.0186ZM17.7378 1.86335C18.2678 1.86335 18.7859 2.02291 19.2267 2.32184C19.6674 2.62077 20.0109 3.04566 20.2137 3.54276C20.4165 4.03987 20.4696 4.58687 20.3662 5.11459C20.2628 5.64232 20.0076 6.12706 19.6328 6.50753C19.258 6.888 18.7805 7.1471 18.2606 7.25207C17.7407 7.35705 17.2019 7.30317 16.7122 7.09726C16.2225 6.89135 15.804 6.54266 15.5095 6.09528C15.215 5.64789 15.0578 5.12191 15.0578 4.58385C15.0578 3.86233 15.3402 3.17036 15.8428 2.66017C16.3453 2.14998 17.027 1.86335 17.7378 1.86335ZM9.26353 3.86957C9.69702 3.86834 10.1211 3.9977 10.4821 4.24129C10.8432 4.48487 11.1249 4.83172 11.2916 5.23792C11.4583 5.64412 11.5026 6.09141 11.4188 6.52315C11.3349 6.9549 11.1268 7.35168 10.8207 7.66328C10.5146 7.97488 10.1243 8.18728 9.69924 8.27358C9.27417 8.35988 8.83343 8.31621 8.43282 8.1481C8.03221 7.97998 7.68975 7.69498 7.44878 7.32918C7.20782 6.96338 7.0792 6.53322 7.0792 6.09317C7.0792 5.50451 7.30913 4.93986 7.7186 4.52304C8.12807 4.10621 8.68365 3.87121 9.26353 3.86957ZM5.51896 8.6087C5.95219 8.6087 6.37569 8.73911 6.73591 8.98344C7.09613 9.22777 7.37688 9.57505 7.54267 9.98136C7.70846 10.3877 7.75184 10.8348 7.66732 11.2661C7.5828 11.6974 7.37418 12.0936 7.06784 12.4046C6.7615 12.7156 6.3712 12.9274 5.9463 13.0132C5.52139 13.099 5.08096 13.0549 4.68071 12.8866C4.28046 12.7183 3.93836 12.4333 3.69767 12.0677C3.45698 11.702 3.32851 11.2721 3.32851 10.8323C3.3277 10.5401 3.38381 10.2505 3.4936 9.98039C3.6034 9.71024 3.76471 9.46479 3.96828 9.25815C4.17184 9.0515 4.41363 8.88774 4.67976 8.77629C4.94588 8.66483 5.23108 8.60788 5.51896 8.6087ZM5.51896 19.1304C5.08521 19.1317 4.66087 19.0021 4.29971 18.7583C3.93856 18.5144 3.65686 18.1672 3.49031 17.7606C3.32376 17.3541 3.27987 16.9065 3.36419 16.4746C3.44851 16.0426 3.65726 15.6459 3.96397 15.3345C4.27067 15.0232 4.66154 14.8113 5.08701 14.7257C5.51249 14.6401 5.95342 14.6846 6.35392 14.8537C6.75442 15.0228 7.09646 15.3087 7.33669 15.6753C7.57691 16.042 7.7045 16.4727 7.70329 16.913C7.70329 17.5011 7.47316 18.0651 7.06352 18.481C6.65387 18.8968 6.09828 19.1304 5.51896 19.1304ZM9.89375 23.0621C9.46025 23.0621 9.03651 22.9315 8.67616 22.6869C8.31581 22.4423 8.03506 22.0947 7.86945 21.688C7.70384 21.2813 7.66082 20.8339 7.74584 20.4024C7.83086 19.9709 8.04009 19.5747 8.34704 19.264C8.65399 18.9533 9.04486 18.742 9.47017 18.6569C9.89548 18.5718 10.3361 18.6167 10.7362 18.786C11.1364 18.9552 11.4781 19.2412 11.718 19.6077C11.958 19.9742 12.0854 20.4047 12.0842 20.8447C12.0826 21.4334 11.8511 21.9974 11.4405 22.413C11.0299 22.8287 10.4736 23.0621 9.89375 23.0621Z" fill="#FFFCFC"/>
</svg>
