<svg width="31" height="31" viewBox="0 0 31 31" fill="none" xmlns="http://www.w3.org/2000/svg">
<path d="M15.3223 13.1514C13.9408 13.1514 12.8169 14.2856 12.8169 15.6799C12.8169 17.0742 13.9408 18.2084 15.3223 18.2084C16.7034 18.2084 17.8274 17.0742 17.8274 15.6799C17.8274 14.2856 16.7034 13.1514 15.3223 13.1514Z" fill="#FFFCFC"/>
<path d="M19.9682 26.3143C19.9322 26.3155 16.8174 26.4961 14.2107 26.6472C13.9571 26.6621 13.7634 26.8798 13.7781 27.1334C13.7929 27.387 14.0157 27.5829 14.2642 27.566C16.2086 27.453 19.9102 27.2383 19.9942 27.234C20.1829 27.2311 20.3707 27.2998 20.3797 27.3616C20.4449 27.8055 19.0939 28.1458 18.65 28.2574C18.5566 28.281 18.4721 28.3024 18.4002 28.3219C17.8305 28.4776 15.0846 29.1389 14.0112 29.3283C12.4536 29.6048 11.2587 29.5129 10.2517 29.0392C9.62517 28.7452 9.0492 28.3518 8.4393 27.9355C7.70495 27.4339 6.94546 26.9155 6.08554 26.5819C5.55314 26.3743 5.03378 26.3375 4.58428 26.4752C4.57328 26.4785 4.56249 26.4824 4.5517 26.4864L4.2206 26.6156V23.8402L6.47057 23.4823C6.4872 23.4794 8.14681 23.2004 9.54565 24.1863L9.64649 24.2573C10.1466 24.6091 10.6632 24.9732 11.1646 25.3385C11.2131 25.3738 11.2789 25.4185 11.3569 25.4713C11.64 25.6627 12.5019 26.2456 12.5446 26.6176C12.547 26.6392 12.5511 26.6738 12.5032 26.7333C12.2164 26.8133 11.3097 26.4914 9.80533 25.7743C9.51846 25.6375 9.31134 25.5389 9.177 25.4888C8.93867 25.4005 8.67404 25.5216 8.58532 25.7597C8.4968 25.9978 8.6181 26.2627 8.85623 26.3514C8.95238 26.3869 9.16398 26.488 9.40929 26.6048C11.1653 27.4422 12.5565 28.0306 13.1581 27.382C13.3912 27.1307 13.495 26.8301 13.4586 26.5127C13.3748 25.7817 12.596 25.1983 11.8724 24.7091C11.8048 24.6632 11.7475 24.6248 11.706 24.5945C11.1992 24.2252 10.6792 23.859 10.1762 23.5048L10.0756 23.434C8.36741 22.23 6.3933 22.5618 6.31826 22.5748L4.11748 22.9248C3.91779 22.4524 3.44975 22.1208 2.90421 22.1208H0.600098V28.777H2.90421C3.58229 28.777 4.14016 28.2649 4.21227 27.6067L4.86846 27.3506C5.17957 27.261 5.5199 27.3488 5.75218 27.4393C6.51416 27.735 7.19728 28.2015 7.92037 28.6953C8.53366 29.1138 9.16713 29.5467 9.86035 29.8719C10.6104 30.2246 11.4584 30.4001 12.4257 30.4001C12.9689 30.4001 13.5496 30.3448 14.1716 30.2345C15.2899 30.0371 18.0453 29.3728 18.6424 29.2097C18.7089 29.1915 18.7875 29.1717 18.8751 29.1497C19.784 28.9208 21.4759 28.4947 21.2899 27.2282C21.2082 26.6715 20.656 26.2977 19.9682 26.3143Z" fill="#FFFCFC"/>
<path d="M26.4317 3.75336L25.7755 4.00922C25.4637 4.09909 25.124 4.01081 24.8918 3.9205C24.1298 3.62489 23.4464 3.15829 22.7231 2.66433C22.1103 2.24581 21.4768 1.81317 20.7836 1.48789C19.6128 0.93752 18.2025 0.818917 16.4728 1.12532C15.3541 1.32277 12.5987 1.98703 12.0018 2.15012C11.9351 2.16832 11.8565 2.1881 11.7693 2.21011C10.86 2.43902 9.168 2.86515 9.354 4.13166C9.43555 4.68808 9.97287 5.06862 10.6762 5.04548C10.7117 5.04435 13.8265 4.86376 16.4333 4.71258C16.6871 4.69774 16.8807 4.48007 16.8659 4.22646C16.8511 3.97306 16.6377 3.78121 16.3798 3.7938C14.4358 3.90679 10.7339 4.12154 10.6497 4.12582C10.4516 4.13054 10.2734 4.06001 10.2642 3.99822C10.1991 3.55434 11.55 3.21401 11.9939 3.10237C12.0874 3.07877 12.1719 3.05745 12.244 3.0379C12.8139 2.88201 15.5594 2.22088 16.6332 2.03152C18.1904 1.75498 19.385 1.84687 20.3927 2.32062C21.019 2.61467 21.5945 3.00779 22.2042 3.42428C22.9388 3.92567 23.6985 4.44437 24.5584 4.77793C25.0912 4.98528 25.6106 5.02234 26.0599 4.88464C26.0707 4.88129 26.0815 4.87747 26.0922 4.87342L26.4233 4.74426V7.51966L24.1747 7.87728C24.1585 7.88043 22.4863 8.15178 21.0985 7.17348L21.0213 7.11913C20.5136 6.76173 19.9884 6.39219 19.4798 6.02131C19.4313 5.98605 19.3652 5.94135 19.287 5.88856C19.004 5.69715 18.1423 5.11424 18.0996 4.74223C18.0969 4.72066 18.0929 4.68606 18.1405 4.62653C18.4262 4.5459 19.3333 4.86781 20.8388 5.58552C21.1255 5.72232 21.3326 5.82093 21.4669 5.87103C21.7051 5.95909 21.9701 5.83823 22.0586 5.60013C22.1471 5.362 22.0258 5.09715 21.7877 5.00842C21.692 4.97293 21.48 4.87183 21.2347 4.75502C19.4784 3.91735 18.0875 3.32836 17.4859 3.978C17.2527 4.22915 17.1489 4.52971 17.1853 4.84713C17.2693 5.57811 18.0484 6.16149 18.7717 6.65074C18.8391 6.69659 18.8966 6.735 18.9384 6.76532C19.4528 7.14024 19.9807 7.51202 20.4915 7.87144L20.5684 7.9258C21.6565 8.69271 22.8525 8.83671 23.5965 8.83648C24.0211 8.83648 24.2987 8.78976 24.3261 8.78505L26.5265 8.43506C26.7262 8.90747 27.1943 9.23903 27.7397 9.23903H30.0441V2.58278H27.7397C27.0618 2.58278 26.5038 3.09494 26.4317 3.75336Z" fill="#FFFCFC"/>
<path d="M22.9823 14.1762C22.9787 14.1762 22.9756 14.1762 22.9725 14.1762L21.768 14.1897C21.59 13.4151 21.2764 12.6945 20.8537 12.0507L21.6961 11.1894C22.0213 10.8583 21.9809 10.2935 21.6076 9.92782L20.9323 9.26738C20.7342 9.07308 20.4812 8.97446 20.2395 8.97446C20.0261 8.97446 19.8212 9.05129 19.6694 9.20718L18.827 10.0689C18.1742 9.66096 17.4468 9.36264 16.6687 9.20224L16.6552 7.99819C16.6502 7.53724 16.2293 7.16882 15.7117 7.16882C15.7077 7.16882 15.7036 7.16882 15.6996 7.16882L14.7552 7.17915C14.2336 7.18499 13.8139 7.56599 13.8189 8.02964L13.8328 9.23414C13.0583 9.41207 12.3374 9.72611 11.6938 10.1484L10.8326 9.30693C10.682 9.15911 10.4839 9.08679 10.2777 9.08679C10.0297 9.08679 9.77069 9.19147 9.57098 9.39544L8.91054 10.0707C8.54574 10.4441 8.51811 11.0097 8.85034 11.3336L9.71162 12.1765C9.30343 12.8293 9.00513 13.5562 8.84427 14.3343L7.64066 14.3478C7.17635 14.3528 6.80524 14.7809 6.81085 15.303L6.82164 16.2474C6.82725 16.7669 7.20331 17.1836 7.66244 17.1836C7.6656 17.1836 7.66852 17.1836 7.67144 17.1836L8.87594 17.1702C9.05387 17.9443 9.36837 18.6649 9.79068 19.3078L8.94872 20.17C8.623 20.5015 8.66367 21.0659 9.0368 21.4316L9.71162 22.0925C9.91018 22.2863 10.1629 22.3847 10.4048 22.3847C10.618 22.3847 10.8229 22.3081 10.975 22.1527L11.8176 21.2909C12.4702 21.6993 13.1978 21.9967 13.9759 22.1576L13.9889 23.3612C13.9943 23.8222 14.4151 24.191 14.9317 24.191C14.9358 24.191 14.9398 24.191 14.9439 24.191L15.8887 24.1802C16.4112 24.1744 16.8304 23.7938 16.8254 23.3293L16.8115 22.1252C17.5856 21.9478 18.3072 21.6333 18.9505 21.2105L19.8113 22.0529C19.9619 22.2005 20.1609 22.2728 20.3667 22.2728C20.6147 22.2728 20.8734 22.1684 21.0729 21.9644L21.7338 21.2896C22.0991 20.9153 22.1256 20.3501 21.7944 20.0262L20.9327 19.1829C21.3411 18.5306 21.639 17.8032 21.7998 17.0255L23.0039 17.0111C23.4675 17.0062 23.8391 16.5789 23.8333 16.0564L23.8225 15.1116C23.8166 14.5931 23.441 14.1762 22.9823 14.1762ZM15.3222 19.1286C13.4303 19.1286 11.8967 17.5844 11.8967 15.6799C11.8967 13.7754 13.4303 12.2313 15.3222 12.2313C17.2141 12.2313 18.7475 13.7754 18.7475 15.6799C18.7475 17.5844 17.2141 19.1286 15.3222 19.1286Z" fill="#FFFCFC"/>
</svg>
