<svg width="27" height="37" viewBox="0 0 27 37" fill="none" xmlns="http://www.w3.org/2000/svg">
<path d="M3.3855 19.9851C3.3855 24.0941 3.3855 28.2031 3.3855 32.3122C3.3855 32.9492 3.3855 33.5862 3.3855 34.2232C6.75952 33.6498 10.3114 34.4318 13.2955 36.0561V21.9355C12.4158 21.3557 8.06994 18.7267 3.3855 19.9851Z" fill="#FFFCFC"/>
<path d="M11.7292 36.1734C8.81707 34.8982 5.71169 34.528 2.60091 35.1801C2.60091 31.3869 2.60091 27.5936 2.60091 23.8004C2.60091 23.2403 2.60091 22.6803 2.60091 22.1202H0.52002V36.3493H12.1205C11.9909 36.2889 11.8605 36.2301 11.7292 36.1734Z" fill="#FFFCFC"/>
<path d="M24.7739 22.1202C24.7739 25.9151 24.7739 29.7099 24.7739 33.5048C24.7739 34.0632 24.7739 34.6217 24.7739 35.1801C21.5247 34.4987 18.2595 34.9417 15.2554 36.3493H26.8555V22.1202H24.7739Z" fill="#FFFCFC"/>
<path d="M15.6614 35.3011C18.2745 34.2171 21.184 33.7425 23.9901 34.2232C23.9901 30.1507 23.9901 26.0782 23.9901 22.0057C23.9901 21.3321 23.9901 20.6586 23.9901 19.9851C19.3052 18.7266 14.96 21.3552 14.0798 21.9355V36.056C14.5937 35.7771 15.1214 35.5255 15.6614 35.3011Z" fill="#FFFCFC"/>
<path d="M12.0087 16.542C12.7048 17.3661 14.6728 17.3673 15.3671 16.5406L15.5052 15.5431C14.3647 16.0967 13.0109 16.0965 11.8704 15.5431L12.0087 16.542Z" fill="#FFFCFC"/>
<path d="M14.7874 17.4854C14.0857 17.6775 13.2901 17.6765 12.5884 17.4854V18.2876C13.2538 18.6135 14.122 18.613 14.7874 18.2876V17.4854Z" fill="#FFFCFC"/>
<path d="M14.6177 11.7761C14.0771 11.9277 13.2979 11.9277 12.7573 11.7761C13.346 13.4051 13.4204 14.7523 13.4252 15.2603C13.6002 15.274 13.7748 15.274 13.9498 15.2603C13.9545 14.7523 14.0291 13.4051 14.6177 11.7761Z" fill="#FFFCFC"/>
<path d="M11.5653 13.4983L11.7213 14.6256C11.9887 14.8236 12.2756 14.9845 12.5793 15.0915C12.5306 13.8994 12.2451 12.7073 11.7909 11.6066C11.6807 11.3399 11.4113 10.9854 11.6161 10.7011C11.7879 10.4626 12.026 10.5209 12.2435 10.6334C12.7119 10.8755 13.145 11.065 13.6879 11.065C14.2271 11.065 14.6655 10.8752 15.1315 10.6337C15.3373 10.5271 15.5356 10.4639 15.7205 10.6598C15.9895 10.9446 15.7024 11.321 15.584 11.6085C15.1305 12.7091 14.8427 13.8997 14.7957 15.0919C15.0997 14.9847 15.3868 14.8238 15.6544 14.6251C15.7841 13.689 15.8866 12.763 16.3261 11.9065C16.6773 11.2223 17.1752 10.7414 17.3172 9.94607C17.4521 9.19008 17.3685 8.39585 17.058 7.69213C16.3711 6.13512 14.6822 5.28601 13.0179 5.57861C11.3556 5.87081 10.1062 7.29593 10.0041 8.97895C9.94615 9.93416 10.2246 10.734 10.7867 11.4913C11.2046 12.0544 11.4679 12.8048 11.5653 13.4983Z" fill="#FFFCFC"/>
<path d="M13.6878 4.11236C14.2927 4.11236 14.08 2.83248 14.08 2.47616C14.08 2.1204 14.2922 0.839966 13.6878 0.839966C13.0903 0.839966 13.2955 2.07775 13.2955 2.43067C13.2956 2.78845 13.0795 4.11236 13.6878 4.11236Z" fill="#FFFCFC"/>
<path d="M4.90907 9.56407C5.4724 9.56407 6.0357 9.56407 6.59904 9.56407C6.84429 9.56407 7.11562 9.5963 7.35926 9.56407C7.86779 9.49676 7.93628 8.86532 7.39729 8.7801C6.87617 8.69768 6.27689 8.7801 5.75013 8.7801C5.48866 8.7801 5.20703 8.74948 4.9471 8.7801C4.46354 8.83711 4.34356 9.56407 4.90907 9.56407Z" fill="#FFFCFC"/>
<path d="M19.5857 9.17203C19.5857 9.77668 20.8655 9.56402 21.2217 9.56402C21.5773 9.56402 22.8576 9.77613 22.8576 9.17203C22.8576 8.57484 21.6199 8.78005 21.2672 8.78005C20.9095 8.78005 19.5857 8.56411 19.5857 9.17203Z" fill="#FFFCFC"/>
<path d="M8.10664 5.30231C8.53615 5.61996 8.90726 5.00955 8.56223 4.66428C8.41735 4.51929 8.21424 4.40763 8.04955 4.28611C7.65512 3.99517 7.24984 3.59703 6.81288 3.37391C6.35157 3.13837 5.996 3.64635 6.35145 4.00764C6.4959 4.15445 6.70469 4.2682 6.86997 4.39011C7.28219 4.69415 7.69442 4.99823 8.10664 5.30231Z" fill="#FFFCFC"/>
<path d="M19.0362 5.37892C19.2341 5.37892 19.423 5.18851 19.5721 5.07859C19.8368 4.88333 20.1016 4.6881 20.3663 4.49284C20.5677 4.34429 20.795 4.20778 20.9807 4.03974C21.2384 3.80648 21.2612 3.29507 20.7938 3.297C20.6044 3.29779 20.4309 3.47084 20.2874 3.5767C20.0131 3.77894 19.7389 3.98119 19.4647 4.18344C19.2681 4.32843 19.0434 4.46187 18.8632 4.62703C18.6092 4.85977 18.5491 5.37892 19.0362 5.37892Z" fill="#FFFCFC"/>
</svg>
