<svg width="63" height="64" viewBox="0 0 63 64" fill="none" xmlns="http://www.w3.org/2000/svg">
<path d="M61.8512 53.0637L48.1012 39.2035L48.8312 38.9819C50.1812 38.579 51.5812 38.166 52.2212 37.0479C52.8612 35.9298 52.5112 34.5398 52.2212 33.1699C51.9193 32.2628 51.8202 31.2996 51.9312 30.3495C52.2987 29.5055 52.8447 28.7527 53.5312 28.1435C54.5312 27.1362 55.5312 26.0282 55.5312 24.7087C55.5312 23.3891 54.5312 22.3113 53.5312 21.2738C52.8447 20.6647 52.2987 19.9118 51.9312 19.0679C51.8202 18.1177 51.9193 17.1546 52.2212 16.2475C52.5412 14.8776 52.8812 13.4674 52.2212 12.3695C51.5612 11.2715 50.2212 10.8384 48.8312 10.4355C47.9146 10.2496 47.0504 9.86078 46.3012 9.29724C45.7418 8.54259 45.3558 7.67212 45.1712 6.74881C44.7712 5.38897 44.3612 3.97877 43.2512 3.33411C42.1412 2.68945 40.7612 3.03193 39.4012 3.33411C38.5007 3.63828 37.5445 3.73803 36.6012 3.62622C35.7634 3.2561 35.016 2.70605 34.4112 2.01457C33.4112 1.00728 32.3112 0 31.0012 0C29.6912 0 28.6212 1.00728 27.5912 2.01457C26.9865 2.70605 26.239 3.2561 25.4012 3.62622C24.4579 3.73803 23.5017 3.63828 22.6012 3.33411C21.2412 3.00171 19.8412 2.66931 18.7512 3.33411C17.6612 3.99892 17.2312 5.34868 16.8312 6.74881C16.6467 7.67212 16.2607 8.54259 15.7012 9.29724C14.952 9.86078 14.0879 10.2496 13.1712 10.4355C11.8212 10.8384 10.4212 11.2514 9.78122 12.3695C9.14122 13.4875 9.49122 14.8776 9.78122 16.2374C10.0827 17.1481 10.1817 18.1144 10.0712 19.0679C9.70377 19.9118 9.1577 20.6647 8.47122 21.2738C7.47122 22.2811 6.47122 23.3891 6.47122 24.7087C6.47122 26.0282 7.47122 27.106 8.47122 28.1435C9.1577 28.7527 9.70377 29.5055 10.0712 30.3495C10.1817 31.303 10.0827 32.2693 9.78122 33.18C9.46122 34.5398 9.12122 35.95 9.78122 37.0479C10.4412 38.1459 11.7812 38.579 13.1712 38.9819L13.9012 39.2035L0.151219 53.0637C0.0820038 53.1293 0.0336536 53.214 0.0122918 53.3073C-0.00906994 53.4005 -0.00248133 53.4981 0.0312203 53.5875C0.0610896 53.6765 0.11553 53.755 0.188153 53.8139C0.260776 53.8728 0.348567 53.9096 0.44122 53.9199L9.05122 54.9272L10.0012 63.5496C10.0111 63.6445 10.0486 63.7344 10.1091 63.8079C10.1696 63.8814 10.2504 63.9352 10.3412 63.9626C10.394 63.9731 10.4484 63.9731 10.5012 63.9626C10.6364 63.9622 10.7658 63.9079 10.8612 63.8115L27.3112 47.1107L27.5912 47.3726C28.5912 48.3799 29.6912 49.3872 31.0012 49.3872C32.3112 49.3872 33.3812 48.3799 34.4112 47.3726L34.6912 47.1107L51.1412 63.8417C51.2366 63.9381 51.3661 63.9924 51.5012 63.9928C51.5541 64.0024 51.6083 64.0024 51.6612 63.9928C51.752 63.9654 51.8328 63.9116 51.8933 63.8381C51.9538 63.7647 51.9914 63.6747 52.0012 63.5798L53.0012 54.9272L61.6112 53.9199C61.7039 53.9096 61.7917 53.8728 61.8643 53.8139C61.9369 53.755 61.9913 53.6765 62.0212 53.5875C62.0492 53.4932 62.0479 53.3925 62.0176 53.2988C61.9872 53.2052 61.9291 53.1232 61.8512 53.0637ZM10.8512 62.3811L9.97122 54.3228C9.95671 54.2104 9.90569 54.106 9.8261 54.0258C9.74651 53.9456 9.64283 53.8943 9.53122 53.8796L1.53122 52.9932L14.9212 39.6064L15.0812 39.687L15.2712 39.7978C15.4261 39.8887 15.5703 39.9969 15.7012 40.1201C16.2607 40.8748 16.6467 41.7453 16.8312 42.6686C17.2312 44.0284 17.6412 45.4386 18.7512 46.0833C19.8612 46.7279 21.2412 46.3754 22.6012 46.0833C23.5017 45.7791 24.4579 45.6793 25.4012 45.7911C25.5781 45.8479 25.7489 45.9221 25.9112 46.0128H25.9612C26.1354 46.1153 26.3025 46.2298 26.4612 46.3552H26.5112L10.8512 62.3811ZM31.0012 48.3799C30.0912 48.3799 29.1712 47.5035 28.2812 46.6473C28.0712 46.4358 27.8512 46.2344 27.6312 46.0329C27.4612 45.8818 27.2912 45.7307 27.1012 45.5897L26.9312 45.4587C26.7889 45.3498 26.6385 45.2522 26.4812 45.1666L26.3012 45.0558C26.098 44.9454 25.8834 44.8576 25.6612 44.7939C25.4229 44.7303 25.1777 44.6964 24.9312 44.6932H24.7612C24.5412 44.6932 24.3112 44.6932 24.0912 44.6932H23.9412C23.7312 44.6932 23.5112 44.7537 23.3012 44.804H23.0912L22.3612 44.9753C21.1412 45.2674 19.9912 45.5393 19.2512 45.1062C18.5112 44.6731 18.1312 43.4543 17.7912 42.2858C17.577 41.1821 17.1039 40.146 16.4112 39.264C16.228 39.0856 16.0269 38.927 15.8112 38.7905H15.7612C15.5653 38.6724 15.3615 38.568 15.1512 38.4783L15.0012 38.5387C14.5112 38.3372 14.0012 38.1862 13.4612 38.025C12.3012 37.6825 11.1012 37.3199 10.6612 36.5544C10.2212 35.7888 10.5012 34.6506 10.7912 33.4217C11.1472 32.3522 11.2432 31.2123 11.0712 30.0977C10.6776 29.0817 10.0464 28.1764 9.23122 27.4586C8.39122 26.5621 7.51122 25.6354 7.51122 24.7188C7.51122 23.8021 8.39122 22.8754 9.23122 21.9789C10.0464 21.2611 10.6776 20.3558 11.0712 19.3399C11.2432 18.2252 11.1472 17.0853 10.7912 16.0158C10.5012 14.7869 10.2212 13.6286 10.6612 12.8832C11.1012 12.1378 12.3012 11.755 13.4612 11.4125C14.557 11.1968 15.5856 10.7202 16.4612 10.0225C17.1579 9.14298 17.6316 8.10582 17.8412 7.00063C18.1812 5.83218 18.5412 4.62344 19.3012 4.18023C20.0612 3.73703 21.1912 4.01907 22.4112 4.31118C23.473 4.66972 24.6047 4.76644 25.7112 4.59322C26.7198 4.1967 27.6186 3.56091 28.3312 2.73981C29.2212 1.8937 30.1412 1.00728 31.0512 1.00728C31.9612 1.00728 32.8812 1.8937 33.7712 2.73981C34.4838 3.56091 35.3826 4.1967 36.3912 4.59322C37.4978 4.76644 38.6295 4.66972 39.6912 4.31118C40.9112 4.01907 42.0612 3.7471 42.8012 4.18023C43.5412 4.61336 43.9212 5.83218 44.2612 7.00063C44.4754 8.10435 44.9486 9.14046 45.6412 10.0225C46.5169 10.7202 47.5455 11.1968 48.6412 11.4125C49.8012 11.755 51.0012 12.1176 51.4412 12.8832C51.8812 13.6487 51.6012 14.7869 51.3112 16.0158C50.9553 17.0853 50.8592 18.2252 51.0312 19.3399C51.4249 20.3558 52.0561 21.2611 52.8712 21.9789C53.7112 22.8754 54.5912 23.8021 54.5912 24.7188C54.5912 25.6354 53.7112 26.5621 52.8712 27.4586C52.0561 28.1764 51.4249 29.0817 51.0312 30.0977C50.8592 31.2123 50.9553 32.3522 51.3112 33.4217C51.6012 34.6506 51.8812 35.809 51.4412 36.5544C51.0012 37.2997 49.8012 37.6825 48.6412 38.025C48.1212 38.1862 47.6412 38.3372 47.0912 38.5387L46.9412 38.6092C46.7303 38.6937 46.5264 38.7947 46.3312 38.9114C46.1106 39.0453 45.906 39.2041 45.7212 39.3848C45.0286 40.2668 44.5554 41.3029 44.3412 42.4067C44.0012 43.5751 43.6412 44.7839 42.8812 45.2271C42.0584 45.5332 41.1541 45.5332 40.3312 45.2271L39.7712 45.0961C38.9515 44.8563 38.1045 44.7243 37.2512 44.7033C36.9878 44.7091 36.726 44.7463 36.4712 44.8141C36.2491 44.8777 36.0345 44.9655 35.8312 45.076L35.6512 45.1767L35.1912 45.489L35.0312 45.5998L34.5012 46.053C34.2812 46.2545 34.0612 46.456 33.8512 46.6675C32.8312 47.4935 31.9112 48.3799 31.0012 48.3799ZM52.4412 53.9199C52.3296 53.9345 52.2259 53.9859 52.1463 54.0661C52.0668 54.1463 52.0157 54.2507 52.0012 54.3631L51.1212 62.4214L35.4412 46.4358H35.5012C35.66 46.3103 35.827 46.1959 36.0012 46.0933H36.0512C36.2135 46.0027 36.3844 45.9285 36.5612 45.8717C37.01 45.7803 37.4724 45.7803 37.9212 45.8717C38.3812 45.9422 38.9212 46.053 39.3612 46.1739L39.5912 46.2243C40.693 46.6234 41.8942 46.6482 43.0112 46.2948C43.0805 46.2707 43.1474 46.2404 43.2112 46.2041C44.3212 45.5595 44.7312 44.1896 45.1312 42.7894C45.3104 41.8203 45.711 40.9065 46.3012 40.1201C46.4322 39.9969 46.5764 39.8887 46.7312 39.7978L46.9312 39.687L47.0812 39.6064L60.4112 53.0335L52.4412 53.9199Z" fill="#FBB80B"/>
<path d="M16.0013 20.6795C15.8727 20.6492 15.7374 20.6714 15.625 20.7412C15.5126 20.811 15.4322 20.9228 15.4013 21.0522C15.3313 21.4047 15.2613 21.7472 15.2013 22.0595C15.181 22.1902 15.2127 22.3238 15.2894 22.4312C15.3661 22.5387 15.4818 22.6114 15.6113 22.6336H15.6913C15.8111 22.6352 15.9276 22.5933 16.0193 22.5157C16.1111 22.438 16.1721 22.3297 16.1913 22.2106C16.1913 21.8782 16.3013 21.5558 16.3813 21.2033C16.3894 21.0849 16.3557 20.9674 16.2862 20.8716C16.2166 20.7757 16.1158 20.7077 16.0013 20.6795Z" fill="#FBB80B"/>
<path d="M15.5313 25.7864C15.466 25.7914 15.4023 25.8096 15.344 25.8399C15.2858 25.8701 15.2341 25.9119 15.1922 25.9626C15.1502 26.0133 15.1188 26.072 15.0998 26.1351C15.0807 26.1983 15.0744 26.2647 15.0813 26.3303C15.0813 26.693 15.1613 27.0455 15.2213 27.3376C15.2383 27.456 15.2973 27.5641 15.3874 27.6419C15.4775 27.7197 15.5926 27.7619 15.7113 27.7607H15.8013C15.9308 27.7384 16.0465 27.6657 16.1232 27.5583C16.1999 27.4509 16.2316 27.3173 16.2113 27.1865C16.1513 26.8541 16.1113 26.5318 16.0813 26.1792C16.0548 26.0565 15.9837 25.9481 15.8819 25.8754C15.7802 25.8027 15.6551 25.771 15.5313 25.7864Z" fill="#FBB80B"/>
<path d="M17.3716 31.0345C17.3456 30.9735 17.3077 30.9184 17.2602 30.8724C17.2126 30.8265 17.1563 30.7907 17.0947 30.7672C17.0331 30.7437 16.9674 30.733 16.9016 30.7356C16.8357 30.7383 16.7711 30.7543 16.7116 30.7827C16.5928 30.8396 16.5006 30.9406 16.454 31.0645C16.4074 31.1883 16.4101 31.3256 16.4616 31.4475C16.6116 31.7698 16.7716 32.0921 16.9416 32.4547C16.9856 32.5335 17.0494 32.5992 17.1266 32.6452C17.2039 32.6912 17.2918 32.7158 17.3816 32.7166C17.4652 32.7158 17.5474 32.6951 17.6216 32.6562C17.7366 32.5904 17.8217 32.4822 17.859 32.3544C17.8963 32.2267 17.8829 32.0893 17.8216 31.9712C17.6616 31.6288 17.5116 31.3367 17.3716 31.0345Z" fill="#FBB80B"/>
<path d="M20.1514 35.1341C20.0562 35.0412 19.9289 34.9893 19.7964 34.9893C19.6638 34.9893 19.5365 35.0412 19.4414 35.1341C19.3945 35.181 19.3573 35.2367 19.3319 35.298C19.3065 35.3594 19.2935 35.4252 19.2935 35.4917C19.2935 35.5582 19.3065 35.624 19.3319 35.6854C19.3573 35.7468 19.3945 35.8025 19.4414 35.8493C19.6914 36.1011 19.9414 36.353 20.2014 36.5947C20.2958 36.6774 20.4162 36.7238 20.5414 36.7257C20.6807 36.7221 20.8133 36.6643 20.9114 36.5645C21.0036 36.4686 21.0552 36.3404 21.0552 36.2069C21.0552 36.0734 21.0036 35.9452 20.9114 35.8493C20.6114 35.6176 20.3814 35.3759 20.1514 35.1341Z" fill="#FBB80B"/>
<path d="M18.1311 15.9856C18.0178 15.9172 17.8825 15.8958 17.7538 15.9259C17.6251 15.9559 17.513 16.0351 17.4411 16.1468C17.2511 16.449 17.0811 16.7512 16.9111 17.0735C16.8797 17.1309 16.8599 17.194 16.8529 17.2592C16.8459 17.3244 16.852 17.3904 16.8706 17.4532C16.8892 17.516 16.9201 17.5745 16.9614 17.6252C17.0027 17.6759 17.0536 17.7177 17.1111 17.7484C17.1853 17.7873 17.2675 17.808 17.3511 17.8088C17.4413 17.8102 17.5301 17.7864 17.6077 17.7402C17.6853 17.694 17.7488 17.6271 17.7911 17.5469C17.9511 17.2548 18.1111 16.9627 18.2911 16.6807C18.326 16.6245 18.3496 16.5619 18.3604 16.4965C18.3713 16.4311 18.3692 16.3643 18.3544 16.2997C18.3395 16.2351 18.3121 16.1741 18.2738 16.1202C18.2355 16.0664 18.187 16.0206 18.1311 15.9856Z" fill="#FBB80B"/>
<path d="M42.5812 35.5873C42.6507 35.5885 42.7196 35.5747 42.7834 35.5469C42.8472 35.5191 42.9044 35.4779 42.9512 35.4262C43.1912 35.1542 43.4112 34.8822 43.6312 34.6002C43.6762 34.5485 43.7101 34.488 43.731 34.4226C43.7519 34.3571 43.7593 34.2881 43.7527 34.2196C43.7461 34.1512 43.7256 34.0848 43.6926 34.0247C43.6595 33.9645 43.6146 33.9118 43.5606 33.8698C43.5066 33.8278 43.4446 33.7973 43.3784 33.7804C43.3123 33.7634 43.2434 33.7602 43.176 33.7711C43.1086 33.782 43.0441 33.8066 42.9865 33.8435C42.929 33.8805 42.8795 33.9289 42.8412 33.9858C42.6412 34.2477 42.4312 34.4995 42.2112 34.7513C42.1434 34.8221 42.0981 34.9117 42.0811 35.0085C42.0642 35.1054 42.0764 35.2052 42.1162 35.2951C42.156 35.3849 42.2215 35.4607 42.3043 35.5128C42.3872 35.5649 42.4836 35.5909 42.5812 35.5873Z" fill="#FBB80B"/>
<path d="M45.4614 20.6795C45.4932 20.786 45.5579 20.8795 45.646 20.9465C45.7341 21.0135 45.841 21.0505 45.9514 21.0522H46.0814C46.2091 21.0146 46.3171 20.9283 46.3825 20.8116C46.4479 20.695 46.4654 20.5572 46.4314 20.4277C46.3414 20.0852 46.2314 19.7528 46.1214 19.4204C46.0776 19.2935 45.9856 19.1893 45.8656 19.1307C45.7456 19.0722 45.6074 19.064 45.4814 19.1081C45.3554 19.1522 45.252 19.2449 45.1938 19.3658C45.1357 19.4867 45.1276 19.6259 45.1714 19.7528C45.2814 20.055 45.3814 20.3773 45.4614 20.6795Z" fill="#FBB80B"/>
<path d="M45.1112 31.2056C45.1737 31.2199 45.2386 31.2199 45.3012 31.2056C45.3999 31.2051 45.4962 31.1752 45.5781 31.1196C45.6599 31.0641 45.7236 30.9853 45.7612 30.8934C45.9012 30.571 46.0212 30.2386 46.1412 29.8861C46.1826 29.7605 46.1734 29.6235 46.1153 29.5047C46.0573 29.386 45.9552 29.295 45.8312 29.2515C45.7051 29.2094 45.5677 29.2184 45.4482 29.2767C45.3287 29.335 45.2365 29.438 45.1912 29.5637C45.0812 29.876 44.9712 30.1883 44.8412 30.5005C44.8066 30.5636 44.7862 30.6335 44.7814 30.7053C44.7766 30.7772 44.7874 30.8492 44.8131 30.9164C44.8388 30.9836 44.8788 31.0443 44.9303 31.0943C44.9818 31.1442 45.0435 31.1822 45.1112 31.2056Z" fill="#FBB80B"/>
<path d="M43.3911 16.187C43.4365 16.2547 43.4975 16.3102 43.5689 16.3488C43.6404 16.3874 43.72 16.4079 43.8011 16.4086C43.9016 16.4094 43.9998 16.3776 44.0811 16.318C44.1356 16.2815 44.1823 16.2345 44.2185 16.1795C44.2547 16.1246 44.2796 16.0629 44.2917 15.9981C44.3038 15.9333 44.3029 15.8667 44.2891 15.8023C44.2752 15.7379 44.2487 15.6769 44.2111 15.623C44.0191 15.3271 43.8122 15.0413 43.5911 14.7668C43.5528 14.7099 43.5033 14.6615 43.4457 14.6245C43.3881 14.5876 43.3237 14.563 43.2563 14.5521C43.1889 14.5412 43.12 14.5444 43.0538 14.5614C42.9877 14.5783 42.9257 14.6088 42.8717 14.6508C42.8176 14.6928 42.7727 14.7455 42.7397 14.8057C42.7067 14.8659 42.6862 14.9322 42.6796 15.0006C42.673 15.0691 42.6803 15.1381 42.7012 15.2036C42.7221 15.269 42.7561 15.3295 42.8011 15.3812C43.0011 15.6431 43.2011 15.9151 43.3911 16.187Z" fill="#FBB80B"/>
<path d="M46.0012 24.7087C46.0012 25.0378 46.0012 25.3735 46.0012 25.716C45.9958 25.7817 46.0034 25.8477 46.0237 25.9104C46.044 25.973 46.0766 26.0309 46.1195 26.0806C46.1623 26.1304 46.2147 26.171 46.2733 26.2001C46.332 26.2291 46.3959 26.2461 46.4612 26.2499C46.5872 26.2503 46.7086 26.2028 46.8013 26.1169C46.894 26.031 46.9511 25.913 46.9612 25.7865C46.9612 25.434 46.9612 25.0713 46.9612 24.7188V24.6483C46.96 24.5843 46.9459 24.5213 46.9199 24.463C46.8938 24.4047 46.8562 24.3523 46.8095 24.309C46.7628 24.2657 46.7078 24.2324 46.648 24.211C46.5881 24.1897 46.5246 24.1808 46.4612 24.1849C46.3339 24.1998 46.2166 24.2615 46.1317 24.3582C46.0468 24.4548 46.0004 24.5797 46.0012 24.7087Z" fill="#FBB80B"/>
<path d="M29.7814 39.818C29.4514 39.818 29.1214 39.7575 28.7814 39.7072C28.6488 39.6885 28.5143 39.7236 28.4074 39.8048C28.3005 39.8861 28.23 40.0067 28.2114 40.1403C28.1929 40.2739 28.2277 40.4094 28.3084 40.5171C28.389 40.6248 28.5088 40.6958 28.6414 40.7145C28.9814 40.7682 29.3314 40.8085 29.6914 40.8353C29.824 40.8353 29.9512 40.7823 30.045 40.6878C30.1387 40.5934 30.1914 40.4653 30.1914 40.3317C30.1914 40.1981 30.1387 40.07 30.045 39.9756C29.9512 39.8811 29.824 39.8281 29.6914 39.8281L29.7814 39.818Z" fill="#FBB80B"/>
<path d="M24.731 10.929C24.8007 10.9386 24.8713 10.9386 24.941 10.929C25.241 10.788 25.541 10.6671 25.851 10.5463C25.9135 10.5249 25.9711 10.4911 26.0203 10.4467C26.0696 10.4024 26.1094 10.3485 26.1374 10.2883C26.1654 10.2281 26.1811 10.1628 26.1834 10.0964C26.1857 10.0299 26.1747 9.96366 26.151 9.9016C26.1059 9.77608 26.0131 9.67374 25.8931 9.61707C25.7731 9.56041 25.6357 9.55406 25.511 9.59942L24.511 10.0023C24.3905 10.0573 24.2966 10.1581 24.2497 10.2827C24.2028 10.4073 24.2069 10.5456 24.261 10.6671C24.3055 10.7521 24.3737 10.8222 24.4572 10.8687C24.5407 10.9153 24.6359 10.9362 24.731 10.929Z" fill="#FBB80B"/>
<path d="M25.0014 38.5588C24.7014 38.4278 24.4014 38.2767 24.1014 38.1256C23.9845 38.0651 23.8487 38.0534 23.7234 38.093C23.598 38.1326 23.4931 38.2203 23.4314 38.3372C23.3709 38.4564 23.359 38.5947 23.3982 38.7226C23.4374 38.8506 23.5247 38.958 23.6414 39.0221C23.9614 39.1833 24.2714 39.3344 24.6414 39.4754C24.7034 39.5072 24.7718 39.5244 24.8414 39.5258C24.9384 39.5236 25.033 39.4942 25.1142 39.4408C25.1955 39.3874 25.2604 39.3122 25.3014 39.2236C25.3268 39.1602 25.3392 39.0924 25.3378 39.0241C25.3364 38.9558 25.3211 38.8885 25.2931 38.8263C25.265 38.7641 25.2247 38.7083 25.1745 38.6623C25.1244 38.6163 25.0655 38.5811 25.0014 38.5588Z" fill="#FBB80B"/>
<path d="M34.9414 40.3316C35.0051 40.3152 35.065 40.2862 35.1176 40.2464C35.1703 40.2066 35.2146 40.1568 35.248 40.0997C35.2814 40.0426 35.3034 39.9794 35.3125 39.9138C35.3217 39.8481 35.3179 39.7813 35.3014 39.7172C35.2862 39.6534 35.2585 39.5932 35.22 39.5403C35.1814 39.4874 35.1328 39.4427 35.077 39.409C35.0211 39.3752 34.9591 39.353 34.8946 39.3436C34.8301 39.3343 34.7644 39.338 34.7014 39.3546C34.3814 39.4351 34.0514 39.5056 33.7014 39.5661C33.5716 39.5906 33.4568 39.6657 33.3819 39.7752C33.3069 39.8846 33.278 40.0195 33.3014 40.1503C33.3205 40.2668 33.3805 40.3725 33.4704 40.4483C33.5603 40.5241 33.6742 40.5649 33.7914 40.5633H33.8814C34.2614 40.4928 34.6014 40.4223 34.9414 40.3316Z" fill="#FBB80B"/>
<path d="M29.6714 9.65993L30.6714 9.60956C30.7371 9.60825 30.8018 9.59393 30.862 9.5674C30.9222 9.54087 30.9766 9.50266 31.0221 9.45496C31.0676 9.40725 31.1033 9.35098 31.1272 9.28937C31.1511 9.22775 31.1627 9.16199 31.1614 9.09585C31.1562 8.96136 31.0988 8.83431 31.0016 8.74201C30.9043 8.64971 30.775 8.59954 30.6414 8.60228L29.6414 8.66272C29.5757 8.6678 29.5116 8.68593 29.4528 8.71606C29.3941 8.74619 29.3418 8.78773 29.2991 8.83828C29.2563 8.88884 29.2239 8.94741 29.2037 9.01063C29.1835 9.07385 29.1759 9.14047 29.1814 9.20665C29.1976 9.32797 29.2555 9.43974 29.345 9.52255C29.4345 9.60535 29.55 9.65396 29.6714 9.65993Z" fill="#FBB80B"/>
<path d="M39.1612 12.0271C39.4412 12.2084 39.7112 12.3998 39.9712 12.6012C40.0574 12.6673 40.1629 12.7027 40.2712 12.7019C40.3491 12.7036 40.4262 12.6861 40.4959 12.651C40.5656 12.6159 40.6257 12.5642 40.6712 12.5005C40.7507 12.3936 40.7849 12.2593 40.7661 12.1271C40.7474 11.9948 40.6773 11.8755 40.5712 11.7954C40.2912 11.5839 40.0012 11.3824 39.7112 11.1809C39.5982 11.1085 39.4614 11.0837 39.3304 11.112C39.1994 11.1403 39.0848 11.2193 39.0112 11.332C38.9397 11.4443 38.9154 11.5805 38.9435 11.7108C38.9717 11.8411 39.0499 11.9548 39.1612 12.0271Z" fill="#FBB80B"/>
<path d="M20.9313 12.178L20.1313 12.873C20.0844 12.9198 20.0472 12.9755 20.0219 13.0369C19.9965 13.0983 19.9834 13.1641 19.9834 13.2306C19.9834 13.2971 19.9965 13.3629 20.0219 13.4243C20.0472 13.4857 20.0844 13.5414 20.1313 13.5882C20.1766 13.6392 20.2321 13.6799 20.2941 13.7077C20.3562 13.7355 20.4234 13.7497 20.4913 13.7494C20.5538 13.7514 20.616 13.7409 20.6744 13.7184C20.7328 13.6959 20.7861 13.6619 20.8313 13.6184C21.0813 13.3867 21.3313 13.1752 21.5813 12.9637C21.6843 12.8806 21.7505 12.7598 21.7655 12.6277C21.7805 12.4956 21.7431 12.3629 21.6613 12.2586C21.6194 12.2039 21.567 12.1584 21.5072 12.1246C21.4474 12.0908 21.3814 12.0695 21.3133 12.062C21.2452 12.0545 21.1762 12.0609 21.1106 12.0808C21.0449 12.1007 20.984 12.1338 20.9313 12.178Z" fill="#FBB80B"/>
<path d="M39.211 37.3601C38.941 37.5415 38.651 37.7127 38.361 37.8739C38.3038 37.9062 38.2536 37.9498 38.2135 38.002C38.1733 38.0543 38.1439 38.1141 38.1272 38.178C38.1104 38.2419 38.1065 38.3085 38.1157 38.3739C38.125 38.4393 38.1472 38.5022 38.181 38.5588C38.2226 38.6375 38.2845 38.7034 38.3602 38.7495C38.4359 38.7956 38.5226 38.8202 38.611 38.8207C38.6993 38.8213 38.7859 38.7969 38.861 38.7502C39.161 38.579 39.461 38.3876 39.761 38.1962C39.8706 38.1223 39.9468 38.0079 39.9731 37.8777C39.9993 37.7475 39.9734 37.6122 39.901 37.5012C39.8656 37.4454 39.8195 37.3974 39.7653 37.36C39.7111 37.3226 39.6501 37.2966 39.5857 37.2834C39.5213 37.2703 39.455 37.2703 39.3906 37.2835C39.3263 37.2966 39.2652 37.3227 39.211 37.3601Z" fill="#FBB80B"/>
<path d="M34.6313 10.0426C34.9579 10.1232 35.2913 10.2138 35.6313 10.3146C35.6808 10.3241 35.7317 10.3241 35.7813 10.3146C35.8878 10.3137 35.9914 10.2792 36.0775 10.216C36.1636 10.1527 36.2278 10.0639 36.2613 9.96201C36.2991 9.83378 36.2858 9.69573 36.2242 9.57722C36.1626 9.45871 36.0575 9.36909 35.9313 9.32742L34.9313 9.03531C34.8014 9.00476 34.6648 9.02667 34.5508 9.09634C34.4368 9.166 34.3544 9.27788 34.3213 9.408C34.2993 9.47012 34.29 9.53603 34.2938 9.60185C34.2976 9.66766 34.3144 9.73204 34.3433 9.79119C34.3722 9.85034 34.4126 9.90306 34.462 9.94624C34.5115 9.98942 34.569 10.0222 34.6313 10.0426Z" fill="#FBB80B"/>
<path d="M38.3411 21.3545C38.2526 21.2545 38.1289 21.1933 37.9963 21.1839C37.8637 21.1745 37.7326 21.2176 37.6311 21.3041L28.7011 29.0098L25.0011 24.0741C24.9617 24.0212 24.9124 23.9766 24.8559 23.9429C24.7994 23.9092 24.7368 23.8871 24.6718 23.8777C24.6068 23.8684 24.5406 23.872 24.477 23.8884C24.4134 23.9048 24.3536 23.9337 24.3011 23.9734C24.1972 24.0551 24.1288 24.1742 24.1101 24.3057C24.0915 24.4371 24.1241 24.5707 24.2011 24.6785L28.2011 30.0473L28.3111 30.1279H28.3711C28.4404 30.1417 28.5118 30.1417 28.5811 30.1279C28.6809 30.1238 28.7777 30.0925 28.8611 30.0372H29.0011L38.3311 21.979C38.4007 21.8905 38.4394 21.7813 38.4412 21.6684C38.443 21.5555 38.4078 21.4452 38.3411 21.3545Z" fill="#FBB80B"/>
</svg>
