<svg width="38" height="36" viewBox="0 0 38 36" fill="none" xmlns="http://www.w3.org/2000/svg">
<path d="M27.5 12C26.673 12 26 12.7952 26 13.7722V17.2278C26 18.2048 26.673 19 27.5 19C28.327 19 29 18.2048 29 17.2278V13.7722C29 12.7952 28.327 12 27.5 12Z" fill="#FFFCFC"/>
<path d="M16 16V11.5567C16 10.6985 15.1026 10 14 10C12.8974 10 12 10.6985 12 11.5567V15.4056C12.1384 15.413 12.2769 15.4241 12.4153 15.4464L15.9952 16H16Z" fill="#FFFCFC"/>
<path d="M25.0677 18.9521C24.6029 19.6758 23.7988 20.1525 22.8859 20.1525C22.1153 20.1525 21.4202 19.812 20.9428 19.2671C20.9302 19.365 20.9051 19.4629 20.8758 19.5566C20.3942 20.9442 19.096 21.885 17.647 21.8892H17.4376C17.4585 21.902 17.4795 21.9148 17.5004 21.9275C18.6772 22.6341 20.0843 24.0346 20.0843 26.6737C20.0843 26.9121 19.8916 27.1079 19.6571 27.1079C19.4226 27.1079 19.23 26.9121 19.23 26.6737C19.23 24.8944 18.5097 23.5536 17.09 22.6895C15.997 22.0254 14.8747 21.8977 14.8663 21.8977C14.6402 21.8722 14.4727 21.6764 14.4852 21.4423C14.4978 21.2124 14.6821 21.0294 14.9082 21.0294L17.6428 21.0209C18.7316 21.0209 19.7074 20.3143 20.0717 19.2671C20.1303 19.0926 20.1136 18.9138 20.0256 18.7521C19.9377 18.5946 19.7911 18.4882 19.6152 18.4499L12.6091 17.0367C11.7297 16.8579 10.8545 17.3474 10.5278 18.1945L9.31755 21.3359C8.76477 22.7703 8.94065 24.3836 9.79077 25.6606L13.4676 31.173C13.8948 31.8115 14.1209 32.5606 14.1209 33.3311V36H26.2193V32.8033C26.2193 32.7266 26.2403 32.6543 26.278 32.5862L27.4422 30.5345C28.4598 28.7382 29 26.6907 29 24.6135V19.4544C28.5352 19.8843 27.9196 20.144 27.2453 20.144C26.3324 20.144 25.5325 19.6673 25.0635 18.9436L25.0677 18.9521Z" fill="#FFFCFC"/>
<path d="M19.9785 17.9953C19.9928 17.892 20 17.7839 20 17.6759V11.9683C20 10.8831 19.327 10 18.5 10C17.673 10 17 10.8831 17 11.9683V17.1216L19.5704 17.7933C19.7172 17.8309 19.8532 17.9014 19.9785 18V17.9953Z" fill="#FFFCFC"/>
<path d="M23 19C24.1026 19 25 18.1768 25 17.1653V12.8347C25 11.8232 24.1026 11 23 11C21.8974 11 21 11.8232 21 12.8347V17.1653C21 18.1768 21.8974 19 23 19Z" fill="#FFFCFC"/>
<path d="M19 4C19.549 4 20 3.79935 20 3.55507V0.444929C20 0.200654 19.549 0 19 0C18.451 0 18 0.200654 18 0.444929V3.55507C18 3.79935 18.451 4 19 4Z" fill="#FFFCFC"/>
<path d="M3.55507 22H0.444929C0.200654 22 0 22.2255 0 22.5C0 22.7745 0.200654 23 0.444929 23H3.55507C3.79935 23 4 22.7745 4 22.5C4 22.2255 3.79935 22 3.55507 22Z" fill="#FFFCFC"/>
<path d="M10.5127 7C10.6128 7 10.7128 6.96398 10.8034 6.89707C11.0178 6.7221 11.0655 6.39788 10.9035 6.16115L8.87809 3.21232C8.71606 2.98074 8.41583 2.92927 8.19661 3.10425C7.98216 3.27922 7.93451 3.60344 8.09654 3.84017L10.1219 6.789C10.2172 6.92795 10.365 7 10.5127 7Z" fill="#FFFCFC"/>
<path d="M4.69232 13.0902L1.61786 12.0249C1.3761 11.9426 1.11154 12.0706 1.02487 12.313C0.94276 12.5553 1.07048 12.8204 1.31224 12.9073L4.3867 13.9726C4.43687 13.9909 4.48705 14 4.53723 14C4.72881 14 4.91127 13.8811 4.97513 13.6845C5.05724 13.4422 4.92952 13.1771 4.68776 13.0902H4.69232Z" fill="#FFFCFC"/>
<path d="M37.5551 22H34.4449C34.2007 22 34 22.2255 34 22.5C34 22.7745 34.2007 23 34.4449 23H37.5551C37.7993 23 38 22.7745 38 22.5C38 22.2255 37.7993 22 37.5551 22Z" fill="#FFFCFC"/>
<path d="M29.8034 3.10425C29.5889 2.92927 29.2839 2.98074 29.1219 3.21232L27.0965 6.16115C26.9345 6.39274 26.9822 6.7221 27.1966 6.89707C27.2824 6.96912 27.3872 7 27.4873 7C27.635 7 27.7828 6.92795 27.8781 6.789L29.9035 3.84017C30.0655 3.60859 30.0178 3.27922 29.8034 3.10425Z" fill="#FFFCFC"/>
<path d="M36.9797 12.313C36.8976 12.0706 36.633 11.9426 36.3867 12.0249L33.3122 13.0902C33.0705 13.1725 32.9428 13.4377 33.0249 13.6845C33.0933 13.8766 33.2712 14 33.4628 14C33.5129 14 33.5631 13.9909 33.6133 13.9726L36.6878 12.9073C36.9295 12.825 37.0572 12.5598 36.9751 12.313H36.9797Z" fill="#FFFCFC"/>
</svg>
