<svg width="36" height="33" viewBox="0 0 36 33" fill="none" xmlns="http://www.w3.org/2000/svg">
<path d="M9.59265 7.79223C11.7444 7.79223 13.4888 6.04788 13.4888 3.89612C13.4888 1.74435 11.7444 0 9.59265 0C7.44088 0 5.69653 1.74435 5.69653 3.89612C5.69653 6.04788 7.44088 7.79223 9.59265 7.79223Z" fill="#FFFCFC"/>
<path d="M25.4398 7.79223C27.5916 7.79223 29.3359 6.04788 29.3359 3.89612C29.3359 1.74435 27.5916 0 25.4398 0C23.2881 0 21.5437 1.74435 21.5437 3.89612C21.5437 6.04788 23.2881 7.79223 25.4398 7.79223Z" fill="#FFFCFC"/>
<path d="M17.516 16.2411C19.1359 16.2411 20.4491 14.9279 20.4491 13.308C20.4491 11.6882 19.1359 10.375 17.516 10.375C15.8962 10.375 14.583 11.6882 14.583 13.308C14.583 14.9279 15.8962 16.2411 17.516 16.2411Z" fill="#FFFCFC"/>
<path d="M24.3454 13.308C23.8638 12.8265 23.0321 12.8265 22.5505 13.308L19.5737 16.2849C18.4355 17.423 16.5969 17.423 15.4587 16.2849L12.4819 13.308C12.0004 12.8265 11.2124 12.7827 10.6871 13.2643C10.1618 13.7458 10.2055 14.5776 10.6871 15.0591L14.627 18.9552V30.9062C14.627 31.6067 15.2398 32.2195 15.9403 32.1757C16.6407 32.1757 17.2098 31.6067 17.2098 30.9062V27.0539C17.2098 26.835 17.2973 26.6599 17.5162 26.6599C17.7351 26.6599 17.8227 26.835 17.8227 27.0539V30.9062C17.8227 31.6067 18.4355 32.2195 19.136 32.1757C19.8364 32.1757 20.4055 31.6067 20.4055 30.9062V18.999L24.3016 15.1029C24.8269 14.5776 24.8269 13.7896 24.3454 13.308Z" fill="#FFFCFC"/>
<path d="M34.5453 3.89611C33.8887 3.23946 32.838 3.23946 32.1814 3.89611L28.1977 7.87978C26.6655 9.41196 24.214 9.41196 22.7256 7.87978L18.7858 3.93989C18.5231 3.67723 18.1729 3.50212 17.8227 3.45835C17.2973 3.37079 16.7283 3.50212 16.2905 3.93989L12.3068 7.92356C10.7746 9.45574 8.32315 9.45574 6.83475 7.92356L2.89486 3.98366C2.23821 3.32702 1.18757 3.28324 0.530923 3.93989C-0.169502 4.59654 -0.169502 5.69095 0.487147 6.3476L5.69656 11.557V30.5998C5.69656 31.5629 6.52831 32.3509 7.44762 32.3071C8.36693 32.3071 9.15491 31.5629 9.15491 30.6436V22.2823C9.15491 21.9758 9.33001 21.757 9.63645 21.757C9.94289 21.757 10.118 21.9758 10.118 22.2823V30.5123C10.118 31.4754 10.9497 32.2633 11.8691 32.2196C12.7884 32.2196 13.5763 31.4754 13.5763 30.556V19.2179L10.0742 15.7596C9.63645 15.3218 9.41757 14.7527 9.41757 14.1836C9.41757 13.5707 9.68023 13.0454 10.0742 12.6076C10.4682 12.2137 10.9935 11.9948 11.5626 11.9948C12.1317 11.9948 12.7446 12.2137 13.1824 12.6514L13.5326 13.0016V11.5132L17.5162 7.48579L21.5437 11.557L21.281 12.739C21.3248 12.9141 21.3248 13.0892 21.3248 13.2205L21.8501 12.6952C22.2441 12.3012 22.8132 12.0386 23.3823 12.0386C23.9514 12.0386 24.5205 12.2574 24.9582 12.6952C25.8338 13.5707 25.8338 14.9278 24.9582 15.8033L21.3248 19.4368V24.2084H21.4999V30.556C21.4999 31.5191 22.3317 32.3071 23.251 32.2633C24.1703 32.2633 24.9582 31.5191 24.9582 30.5998V24.1647H25.8776V30.5123C25.8776 31.4754 26.7093 32.2633 27.6286 32.2196C28.5479 32.2196 29.3359 31.4754 29.3359 30.556V24.1647H32.0063L29.3359 11.5132L34.5453 6.30382C35.202 5.64717 35.202 4.55276 34.5453 3.89611Z" fill="#FFFCFC"/>
</svg>
