<svg width="35" height="31" viewBox="0 0 35 31" fill="none" xmlns="http://www.w3.org/2000/svg">
<path d="M25.2292 1.37977C29.8503 1.37977 33.6055 5.08006 33.6055 9.64942C33.6055 11.9968 32.612 14.1113 31.026 15.6165L17.5 29.0379L3.73698 15.3746C2.29688 13.8873 1.40365 11.8714 1.40365 9.64942C1.40365 5.08006 5.14974 1.37977 9.77995 1.37977C13.2617 1.37977 16.2422 3.4763 17.5091 6.46879C18.7578 3.48526 21.7474 1.37977 25.2292 1.37977ZM25.2292 0C22.1484 0 19.3229 1.41561 17.5 3.74509C15.6771 1.41561 12.8516 0 9.77083 0C4.38411 0 0 4.32746 0 9.64942C0 12.1491 0.966146 14.5234 2.72526 16.3332L16.5065 30.0145L17.5 31L18.4935 30.0145L32.0104 16.5931C33.9245 14.7743 35 12.3014 35 9.64942C35 4.32746 30.6159 0 25.2292 0Z" fill="#FFFCFC"/>
</svg>
