<svg width="43" height="40" viewBox="0 0 43 40" fill="none" xmlns="http://www.w3.org/2000/svg">
<path d="M0.504524 38.2382L9.47818 33.543C9.63133 33.4621 9.80424 33.4261 9.97697 33.4392C10.078 33.4456 20.1328 34.1508 21.6099 34.1856C22.9051 34.036 33.0004 28.9947 39.8613 25.4095C39.2771 24.9165 37.9433 24.2508 35.9316 25.0367C33.8868 25.8364 29.2259 27.5982 27.1132 28.3933C27.3356 28.8178 27.4906 29.2744 27.5725 29.7466C27.6077 29.9841 27.5913 30.2265 27.5244 30.4571C27.4575 30.6877 27.3416 30.9012 27.1847 31.0831C27.0278 31.2649 26.8335 31.4108 26.6151 31.5108C26.3967 31.6108 26.1593 31.6626 25.919 31.6627C25.7894 31.6623 25.6603 31.6472 25.5341 31.6177C24.8112 31.4479 18.2571 30.4875 16.2564 30.3764C16.0089 30.3627 15.777 30.2513 15.6117 30.0667C15.4463 29.8822 15.361 29.6396 15.3746 29.3922C15.3911 29.1456 15.5037 28.9152 15.6881 28.7505C15.8725 28.5857 16.1141 28.4997 16.3611 28.5108C18.2222 28.6137 24.0506 29.4418 25.6545 29.7356C25.4221 29.0314 24.6881 27.7883 23.2542 26.9721C20.4222 25.3617 15.0935 23.5384 11.9758 23.498C9.74089 23.5191 6.79775 26.0255 5.86263 27.0134C5.79953 27.0802 5.72677 27.1371 5.64676 27.1823L1.40198 29.6089C1.29546 29.6698 1.17799 29.7091 1.05627 29.7246C0.934551 29.7401 0.810966 29.7315 0.692574 29.6993C0.574177 29.6671 0.463291 29.6118 0.366249 29.5368C0.269207 29.4617 0.187904 29.3683 0.126987 29.2618C0.0660706 29.1554 0.0267258 29.038 0.0112076 28.9163C-0.00431061 28.7947 0.00429535 28.6711 0.0365372 28.5528C0.0687828 28.4345 0.124027 28.3236 0.199123 28.2267C0.27422 28.1297 0.367695 28.0484 0.474213 27.9875L4.60784 25.6271C5.25085 24.9743 8.69095 21.6287 11.9427 21.6287H12.0034C14.0794 21.6553 16.9408 22.3632 19.567 23.2988C19.7204 23.15 23.02 20 26.1643 20C28.2191 20 29.7513 21.0944 29.8156 21.1412C29.9592 21.2456 30.0698 21.389 30.1344 21.5544C30.5982 21.3959 31.0709 21.2644 31.5499 21.1605C34.2359 20.616 36.4083 22.1328 37.2341 22.8259C39.706 22.6276 41.4311 23.9947 41.8987 25.0129C42.2661 25.8125 41.9134 26.4478 41.4394 26.6994C38.4522 28.2648 23.5068 36.0577 21.6255 36.0567H21.6118C20.1687 36.0237 11.7526 35.4398 10.1102 35.3223L1.36891 39.8935C1.23579 39.9635 1.08761 40.0001 0.937176 40C0.727798 40.0007 0.524265 39.931 0.359238 39.8022C0.19421 39.6734 0.0772591 39.4929 0.0271492 39.2897C-0.0229568 39.0866 -0.0033226 38.8724 0.0829124 38.6817C0.169147 38.491 0.316982 38.3348 0.502689 38.2382H0.504524ZM26.1606 21.8729C24.5696 21.8729 22.6424 23.1583 21.5263 24.0654C22.0518 24.2875 22.5524 24.5152 23.0209 24.7448C23.9101 24.2784 26.0246 23.1978 28.1117 22.3256C27.5011 22.0372 26.8358 21.8829 26.1606 21.8729ZM31.9201 22.9967C30.0572 23.3759 26.8284 24.9109 24.9499 25.8557C25.3338 26.1418 25.6899 26.4633 26.0136 26.816C27.7084 26.1733 32.4281 24.3968 34.8164 23.4695C34.0439 23.0766 33.0279 22.7718 31.9201 22.9967Z" fill="#FFFCFC"/>
<path d="M16.0968 5.71576C15.031 4.73339 13.9587 3.28322 14.5324 1.71892C14.7418 1.13523 15.1477 0.646578 15.6776 0.340297C16.2075 0.0340168 16.8268 -0.0699352 17.4249 0.0470187C18.2497 0.19952 19.158 0.774908 19.7427 1.89855C20.3283 0.775843 21.2366 0.200455 22.0614 0.0470187C22.6595 -0.0702337 23.2789 0.0334667 23.809 0.339583C24.3391 0.6457 24.7452 1.13428 24.9548 1.71798C25.5285 3.27948 24.4562 4.73245 23.3903 5.71482H28.718V9.23077H10.7692V5.71576H16.0968ZM23.7954 2.16519C23.6908 1.85771 23.4797 1.59982 23.2019 1.43995C22.9242 1.28008 22.5988 1.22924 22.2869 1.29697C21.4015 1.4607 20.3686 2.47487 20.3686 4.79514C20.3719 4.88055 20.3582 4.96575 20.3284 5.04563C20.2986 5.1255 20.2533 5.19842 20.1952 5.26001C20.1371 5.3216 20.0675 5.37059 19.9905 5.40406C19.9134 5.43753 19.8305 5.45478 19.7468 5.45478C19.6631 5.45478 19.5802 5.43753 19.5032 5.40406C19.4261 5.37059 19.3565 5.3216 19.2984 5.26001C19.2403 5.19842 19.1951 5.1255 19.1653 5.04563C19.1355 4.96575 19.1217 4.88055 19.125 4.79514C19.125 2.47487 18.0911 1.4607 17.2076 1.29603C16.5249 1.17628 15.9401 1.51215 15.6991 2.16519C15.1748 3.5929 17.3845 5.2068 18.1535 5.72044H21.3456C22.3501 5.06272 24.2739 3.4797 23.7918 2.16519H23.7954Z" fill="#FFFCFC"/>
<path d="M13.3333 10.2564H26.1538V18.4615H13.3333V10.2564Z" fill="#FFFCFC"/>
</svg>
