<svg width="39" height="32" viewBox="0 0 39 32" fill="none" xmlns="http://www.w3.org/2000/svg">
<path fill-rule="evenodd" clip-rule="evenodd" d="M32.2229 18.0946V18.0952C30.6732 18.6892 28.5724 18.9958 26.8972 18.79C25.8277 18.6593 24.9001 18.3097 23.7106 18.161C23.0721 18.0821 22.5046 18.5558 22.4665 19.1951L22.2154 23.4559C22.15 24.4971 22.7338 25.4429 23.6942 25.8589L30.7605 28.9246C31.4699 29.2306 31.8464 29.9717 31.6936 30.7215C31.5353 31.4762 30.8915 32 30.1166 32H19.8746C19.1215 32 18.5104 31.3928 18.5104 30.6409C18.5104 29.8927 19.1161 29.2817 19.8691 29.2817H23.8797C24.4472 29.2817 24.4472 28.4231 23.8797 28.4231H14.0687C13.5121 28.4231 13.5067 29.2817 14.0687 29.2817H17.9484C18.0084 29.2817 18.0466 29.3482 18.0193 29.4032L17.932 29.5595C17.5555 30.2439 17.5555 31.0378 17.932 31.7217C17.9865 31.8187 18.052 31.8992 18.0193 31.9592C18.0029 31.9848 17.9756 32 17.9484 32H7.83178C6.10204 32 5.60546 29.6134 7.19337 28.9246L14.2542 25.8589C15.2146 25.4429 15.7985 24.4971 15.7384 23.4559L15.482 19.1951C15.4438 18.5515 14.8817 18.0837 14.2379 18.161C12.4153 18.3832 11.7496 18.9168 9.62702 18.8471C8.31742 18.8036 6.96964 18.5683 5.7419 18.0995C5.7419 18.0995 5.7419 18.0995 5.7419 18.0984C4.3832 17.6241 4.596 16.6119 5.28899 16.2993C5.55636 16.1779 5.93832 16.1692 6.20025 16.2694C12.7537 18.7889 14.9527 13.8986 21.6316 15.488C23.5687 15.9497 25.2657 16.7937 27.2956 16.9713C28.8452 17.1069 30.3076 16.8264 31.7536 16.2694C32.0155 16.1692 32.3975 16.1779 32.6649 16.2982C33.3906 16.625 33.527 17.6497 32.2229 18.0946ZM16.3878 11.5413C16.3878 12.8961 17.4354 14.0085 18.7668 14.1158H19.187C20.5184 14.0085 21.5661 12.8961 21.5661 11.5413C21.5661 10.1163 20.4038 8.95759 18.9797 8.95759C17.55 8.95759 16.3878 10.1163 16.3878 11.5413ZM25.5221 5.45415C25.1238 4.40378 24.791 2.87585 25.5494 1.90117C26.0351 1.2728 26.8208 1.08276 27.5793 1.08276C28.7034 1.08276 29.751 1.45193 30.7605 1.88865C30.8151 1.91424 30.826 1.99647 30.7714 2.03292C28.8853 3.30777 27.474 4.67309 26.1115 6.486C26.0733 6.5361 25.9969 6.52903 25.9696 6.47404C25.8059 6.13154 25.6586 5.82988 25.5221 5.45415ZM31.9992 2.59107C29.9093 3.86414 28.0704 5.59409 26.7008 7.61752C26.679 7.64584 26.679 7.68123 26.7008 7.71009C28.0431 9.6916 29.9147 11.4749 31.961 12.7137C32.0046 12.7382 32.0374 12.767 32.0865 12.7371C34.1764 11.4738 36.0261 9.73025 37.3958 7.71009C37.4121 7.68123 37.4121 7.64584 37.3958 7.61752C36.0207 5.59518 34.1818 3.85762 32.0865 2.59107C32.0592 2.57473 32.0265 2.57473 31.9992 2.59107ZM30.7714 13.2963C28.8671 11.9922 27.4974 10.6919 26.1115 8.84161C26.0951 8.81764 26.0678 8.8062 26.0351 8.80839C25.9751 8.81545 25.9532 8.88735 25.915 8.96575C25.3039 10.2154 24.5618 12.3793 25.6476 13.5522C26.5262 14.5019 28.2014 14.2933 29.3091 13.9775C29.8622 13.8202 30.2425 13.6634 30.7605 13.4395C30.8205 13.4139 30.826 13.3328 30.7714 13.2963ZM33.336 1.88865C34.1945 1.51989 34.9609 1.23417 35.9061 1.12304C36.7792 1.02014 37.8159 1.09038 38.4489 1.777C39.5293 2.95209 38.7927 5.11001 38.1761 6.36133C38.1379 6.43863 38.1215 6.5116 38.056 6.51759C38.0287 6.51978 38.0014 6.50833 37.9851 6.48437C36.5936 4.62812 35.2295 3.34523 33.3251 2.03185C33.2705 1.99591 33.276 1.91531 33.336 1.88865ZM38.1761 8.96794L38.1215 8.85739C38.0942 8.80186 38.0178 8.79531 37.9851 8.84378C36.5991 10.6957 35.2295 11.9873 33.3251 13.2958C33.2978 13.3132 33.2869 13.3399 33.2869 13.3704C33.2924 13.4379 33.3742 13.4553 33.4615 13.4929C34.8093 14.0902 37.2866 14.8063 38.4489 13.5522C38.8309 13.1335 38.9782 12.5672 38.9946 12.0101C39.0218 10.9788 38.629 9.88761 38.1761 8.96794ZM4.99433 3.88321C5.23988 3.71877 5.5782 3.78358 5.7419 4.03188L6.6477 5.39642C6.67497 5.43454 6.72408 5.44489 6.76228 5.41929L10.0199 3.25538C10.2654 3.09094 10.5983 3.165 10.7565 3.40621C10.9257 3.65289 10.8602 3.98448 10.6147 4.14948L6.84958 6.6548C6.59858 6.82144 6.2712 6.74848 6.10204 6.50235L4.84702 4.62758C4.6833 4.37982 4.74878 4.04875 4.99433 3.88321ZM6.24391 13.3671L6.28211 14.1904C6.28211 14.234 6.32031 14.2683 6.36394 14.2683H10.9475C10.9966 14.2683 11.0348 14.2274 11.0294 14.1801C10.9802 13.623 10.9311 13.0268 10.9639 12.4784C11.1167 9.84244 13.0101 9.18193 12.9828 4.88567C12.9774 3.6115 12.5245 2.50176 11.6023 1.61747C9.45786 -0.435916 5.22897 -0.707616 3.33007 1.81405C2.42427 3.01307 3.17728 4.27036 1.88951 5.85218L0.0233502 7.84242C-0.0148402 7.87997 -0.00393692 7.94042 0.0397259 7.96819L1.14741 8.66845C2.29878 9.3981 2.34788 11.1335 2.1951 12.3309C2.15691 12.65 2.42972 12.9157 2.75166 12.8645L5.22351 12.4697C5.791 12.3793 6.23298 12.809 6.24391 13.3671Z" fill="#FFFCFC"/>
</svg>
