<svg width="31" height="31" viewBox="0 0 31 31" fill="none" xmlns="http://www.w3.org/2000/svg">
<path d="M0 29.7104C0 26.6375 0.996038 23.9613 3.13204 22.5258C3.6241 23.1067 4.23677 23.5734 4.92747 23.8935C5.61816 24.2136 6.37029 24.3794 7.13156 24.3794C7.89282 24.3794 8.64495 24.2135 9.33563 23.8934C10.0263 23.5733 10.639 23.1066 11.131 22.5257C13.2671 23.9613 14.2632 26.6375 14.2632 29.7104C14.2632 31.4299 0 31.4299 0 29.7104ZM7.1316 23.1394C7.9262 23.1394 8.70296 22.9038 9.36364 22.4623C10.0243 22.0209 10.5393 21.3934 10.8433 20.6593C11.1474 19.9252 11.227 19.1174 11.072 18.3381C10.9169 17.5587 10.5343 16.8429 9.97244 16.281C9.41058 15.7191 8.69471 15.3365 7.91538 15.1815C7.13605 15.0265 6.32825 15.106 5.59413 15.4101C4.86002 15.7142 4.23256 16.2291 3.7911 16.8898C3.34965 17.5505 3.11402 18.3273 3.11402 19.1219C3.11402 19.6495 3.21794 20.1719 3.41984 20.6593C3.62175 21.1467 3.91768 21.5896 4.29075 21.9627C4.66381 22.3358 5.10671 22.6317 5.59414 22.8336C6.08157 23.0355 6.604 23.1394 7.1316 23.1394ZM23.8686 21.6751C23.1073 21.6749 22.3552 21.509 21.6645 21.1889C20.9738 20.8689 20.3611 20.4023 19.8688 19.8216C17.7329 21.2571 16.7368 23.9333 16.7368 27.0061C16.7368 28.7256 31 28.7256 31 27.0061C31 23.9333 30.0039 21.257 27.8678 19.8215C27.3757 20.4022 26.763 20.8688 26.0724 21.1889C25.3818 21.509 24.6298 21.6749 23.8686 21.6751ZM19.8509 16.4176C19.8509 17.2122 20.0865 17.989 20.5279 18.6496C20.9694 19.3103 21.5969 19.8253 22.331 20.1293C23.0651 20.4334 23.8729 20.513 24.6522 20.358C25.4315 20.2029 26.1474 19.8203 26.7093 19.2584C27.2711 18.6966 27.6538 17.9807 27.8088 17.2014C27.9638 16.4221 27.8843 15.6143 27.5802 14.8802C27.2761 14.146 26.7612 13.5186 26.1005 13.0771C25.4398 12.6357 24.663 12.4 23.8684 12.4C23.3408 12.4 22.8184 12.504 22.331 12.7059C21.8435 12.9078 21.4006 13.2037 21.0276 13.5768C20.6545 13.9498 20.3586 14.3927 20.1567 14.8801C19.9548 15.3676 19.8508 15.89 19.8509 16.4176ZM5.99212 9.31874L4.94289 13.2113L8.9853 10.886C9.69927 11.0745 10.4346 11.1699 11.1731 11.1698C15.0286 11.1698 18.1542 8.66937 18.1542 5.58493C18.1542 2.50049 15.0286 6.57441e-05 11.173 6.57441e-05C7.31749 6.57441e-05 4.19197 2.5005 4.19197 5.58491C4.20758 6.29981 4.37635 7.00304 4.68689 7.64715C4.99743 8.29127 5.44253 8.86128 5.99212 9.31874ZM19.5318 5.585C19.5245 6.83306 19.132 8.04843 18.408 9.06505C19.5556 9.34137 20.7538 9.3286 21.8952 9.02788L25.2476 10.9563L24.3775 7.72816C24.8333 7.34879 25.2024 6.87607 25.4599 6.34189C25.7175 5.80771 25.8574 5.22451 25.8704 4.63164C25.8704 2.07371 23.2783 6.57441e-05 20.0809 6.57441e-05C19.0459 -0.00446397 18.0233 0.225132 17.0895 0.671672C17.8345 1.25918 18.4399 2.00456 18.8622 2.85416C19.2845 3.70375 19.5132 4.63642 19.5318 5.585Z" fill="#FFFCFC"/>
</svg>
